<svg xmlns="http://www.w3.org/2000/svg" xmlns:xlink="http://www.w3.org/1999/xlink" viewBox="0 0 1345.7 976.16"><defs><style>.cls-1,.cls-60,.cls-62{fill:none;}.cls-2{clip-path:url(#clip-path);}.cls-3{clip-path:url(#clip-path-2);}.cls-4{clip-path:url(#clip-path-3);}.cls-5{clip-path:url(#clip-path-4);}.cls-6{clip-path:url(#clip-path-5);}.cls-7{clip-path:url(#clip-path-6);}.cls-8{clip-path:url(#clip-path-7);}.cls-9{clip-path:url(#clip-path-8);}.cls-10{clip-path:url(#clip-path-9);}.cls-11{clip-path:url(#clip-path-10);}.cls-12{clip-path:url(#clip-path-11);}.cls-13{clip-path:url(#clip-path-12);}.cls-14{fill:url(#Dégradé_sans_nom_58);}.cls-15{fill:url(#Dégradé_sans_nom_56);}.cls-16{fill:url(#Dégradé_sans_nom_56-2);}.cls-17{fill:url(#Dégradé_sans_nom_68);}.cls-18{fill:url(#Dégradé_sans_nom_62);}.cls-19{fill:url(#Dégradé_sans_nom_62-2);}.cls-20{fill:url(#Dégradé_sans_nom_74);}.cls-21{fill:#fff;}.cls-22{fill:url(#Dégradé_sans_nom_62-3);}.cls-23{fill:url(#Dégradé_sans_nom_74-2);}.cls-24{fill:url(#Dégradé_sans_nom_62-4);}.cls-25{fill:url(#Dégradé_sans_nom_58-2);}.cls-26{fill:url(#Dégradé_sans_nom_56-3);}.cls-27{fill:url(#Dégradé_sans_nom_56-4);}.cls-28{fill:url(#Dégradé_sans_nom_58-3);}.cls-29{fill:url(#Dégradé_sans_nom_56-5);}.cls-30{fill:url(#Dégradé_sans_nom_58-4);}.cls-31{fill:#f14b01;}.cls-32{fill:#ffeee6;}.cls-33{fill:url(#Dégradé_sans_nom_21);}.cls-34{fill:url(#Dégradé_sans_nom_21-2);}.cls-35{fill:#ff9865;}.cls-36{fill:url(#Dégradé_sans_nom_21-3);}.cls-37{fill:#27292f;}.cls-38{fill:#f8f7f6;}.cls-39{fill:#fe6a28;}.cls-40{fill:url(#Dégradé_sans_nom_21-4);}.cls-41{fill:url(#Dégradé_sans_nom_52);}.cls-42{fill:url(#Dégradé_sans_nom_21-5);}.cls-43{fill:url(#Dégradé_sans_nom_25);}.cls-44{fill:#dd0010;}.cls-45{fill:url(#Dégradé_sans_nom_52-2);}.cls-46{fill:url(#Dégradé_sans_nom_52-3);}.cls-47{fill:#0044a6;}.cls-48{fill:url(#Dégradé_sans_nom_21-6);}.cls-49{fill:url(#Dégradé_sans_nom_24);}.cls-50{fill:url(#Dégradé_sans_nom_24-2);}.cls-51{fill:url(#Dégradé_sans_nom_24-3);}.cls-52{fill:#016dff;}.cls-53{fill:#ffcfd0;}.cls-54{fill:url(#Dégradé_sans_nom_55);}.cls-55{fill:url(#Dégradé_sans_nom_21-7);}.cls-56{fill:#f0f6ff;}.cls-57{fill:url(#Dégradé_sans_nom_21-8);}.cls-58{fill:#65a4ff;}.cls-59{fill:url(#Dégradé_sans_nom_21-9);}.cls-60{stroke:#27292f;stroke-width:0.85px;}.cls-60,.cls-62{stroke-miterlimit:10;}.cls-61{fill:#ff2738;}.cls-62{stroke:#9fa0a3;stroke-width:1.13px;stroke-dasharray:4.53;}.cls-63{fill:url(#Dégradé_sans_nom_55-2);}.cls-64{fill:url(#Dégradé_sans_nom_55-3);}.cls-65{fill:url(#Dégradé_sans_nom_55-4);}.cls-66{fill:url(#Dégradé_sans_nom_21-10);}.cls-67{fill:url(#Dégradé_sans_nom_21-11);}</style><clipPath id="clip-path"><rect class="cls-1" x="-517.38" y="580.76" width="74" height="74" rx="5"/></clipPath><clipPath id="clip-path-2"><rect class="cls-1" x="-517.38" y="671.76" width="74" height="74" rx="5"/></clipPath><clipPath id="clip-path-3"><rect class="cls-1" x="-517.38" y="-324.24" width="74" height="74" rx="5"/></clipPath><clipPath id="clip-path-4"><rect class="cls-1" x="-517.38" y="-233.24" width="74" height="74" rx="5"/></clipPath><clipPath id="clip-path-5"><rect class="cls-1" x="-517.38" y="-142.24" width="74" height="74" rx="5"/></clipPath><clipPath id="clip-path-6"><rect class="cls-1" x="-517.38" y="-52.24" width="74" height="74" rx="5"/></clipPath><clipPath id="clip-path-7"><rect class="cls-1" x="-517.38" y="38.76" width="74" height="74" rx="5"/></clipPath><clipPath id="clip-path-8"><rect class="cls-1" x="-517.38" y="128.76" width="74" height="74" rx="5"/></clipPath><clipPath id="clip-path-9"><rect class="cls-1" x="-517.38" y="218.76" width="74" height="74" rx="5"/></clipPath><clipPath id="clip-path-10"><rect class="cls-1" x="-517.38" y="309.76" width="74" height="74" rx="5"/></clipPath><clipPath id="clip-path-11"><rect class="cls-1" x="-517.38" y="399.76" width="74" height="74" rx="5"/></clipPath><clipPath id="clip-path-12"><rect class="cls-1" x="-517.38" y="490.76" width="74" height="74" rx="5"/></clipPath><radialGradient id="Dégradé_sans_nom_58" cx="274.87" cy="897.86" r="118.33" gradientUnits="userSpaceOnUse"><stop offset="0" stop-color="#ffeee6"/><stop offset="0.31" stop-color="#ffece3"/><stop offset="0.57" stop-color="#ffe5d9"/><stop offset="0.8" stop-color="#ffdac8"/><stop offset="1" stop-color="#ffccb2"/></radialGradient><linearGradient id="Dégradé_sans_nom_56" x1="1286.25" y1="777.68" x2="1399.66" y2="777.68" gradientTransform="matrix(-1, 0, 0, 1, 2055.87, 0)" xlink:href="#Dégradé_sans_nom_58"/><linearGradient id="Dégradé_sans_nom_56-2" x1="506.72" y1="777.68" x2="620.13" y2="777.68" xlink:href="#Dégradé_sans_nom_58"/><linearGradient id="Dégradé_sans_nom_68" x1="638.15" y1="5924.41" x2="638.15" y2="5648.72" gradientTransform="matrix(1, 0, 0, -1, 0, 6513.56)" gradientUnits="userSpaceOnUse"><stop offset="0" stop-color="#ff9865"/><stop offset="0.69" stop-color="#ffccb2"/><stop offset="0.77" stop-color="#ffcfb7"/><stop offset="0.87" stop-color="#ffd9c6"/><stop offset="0.97" stop-color="#ffe9de"/><stop offset="1" stop-color="#ffeee6"/></linearGradient><linearGradient id="Dégradé_sans_nom_62" x1="502.86" y1="534.68" x2="573.7" y2="534.68" gradientUnits="userSpaceOnUse"><stop offset="0" stop-color="#ffeee6"/><stop offset="0.12" stop-color="#ffe9de"/><stop offset="0.69" stop-color="#ffd4be"/><stop offset="1" stop-color="#ffccb2"/></linearGradient><linearGradient id="Dégradé_sans_nom_62-2" x1="702.67" y1="534.68" x2="773.52" y2="534.68" xlink:href="#Dégradé_sans_nom_62"/><linearGradient id="Dégradé_sans_nom_74" x1="568.4" y1="523.63" x2="707.9" y2="523.63" gradientUnits="userSpaceOnUse"><stop offset="0" stop-color="#ffeee6"/><stop offset="0.21" stop-color="#ffd8c5"/><stop offset="0.57" stop-color="#ffb691"/><stop offset="0.85" stop-color="#ffa071"/><stop offset="1" stop-color="#ff9865"/></linearGradient><linearGradient id="Dégradé_sans_nom_62-3" x1="601.71" y1="328.78" x2="674.64" y2="328.78" xlink:href="#Dégradé_sans_nom_62"/><linearGradient id="Dégradé_sans_nom_74-2" x1="586.74" y1="328.75" x2="689.59" y2="328.75" xlink:href="#Dégradé_sans_nom_74"/><linearGradient id="Dégradé_sans_nom_62-4" x1="580.54" y1="179.97" x2="695.67" y2="179.97" xlink:href="#Dégradé_sans_nom_62"/><radialGradient id="Dégradé_sans_nom_58-2" cx="1054.41" cy="897.86" r="118.33" gradientTransform="matrix(-1, 0, 0, 1, 2055.87, 0)" xlink:href="#Dégradé_sans_nom_58"/><linearGradient id="Dégradé_sans_nom_56-3" x1="334.46" y1="812.53" x2="513.95" y2="812.53" xlink:href="#Dégradé_sans_nom_58"/><linearGradient id="Dégradé_sans_nom_56-4" x1="1113.99" y1="812.53" x2="1293.48" y2="812.53" gradientTransform="matrix(-1, 0, 0, 1, 2055.87, 0)" xlink:href="#Dégradé_sans_nom_58"/><radialGradient id="Dégradé_sans_nom_58-3" cx="638.17" cy="877.01" r="223.15" xlink:href="#Dégradé_sans_nom_58"/><linearGradient id="Dégradé_sans_nom_56-5" x1="638.17" y1="859.8" x2="638.17" y2="746.38" xlink:href="#Dégradé_sans_nom_58"/><radialGradient id="Dégradé_sans_nom_58-4" cx="638.17" cy="890.52" r="130.76" xlink:href="#Dégradé_sans_nom_58"/><linearGradient id="Dégradé_sans_nom_21" x1="48.31" y1="813.03" x2="98.98" y2="813.03" gradientUnits="userSpaceOnUse"><stop offset="0" stop-color="#f8f7f6"/><stop offset="0" stop-color="#ff2738"/><stop offset="0.3" stop-color="#fc2738"/><stop offset="0.53" stop-color="#f22738"/><stop offset="0.74" stop-color="#e22738"/><stop offset="0.94" stop-color="#ca2738"/><stop offset="1" stop-color="#c22738"/></linearGradient><linearGradient id="Dégradé_sans_nom_21-2" x1="160.41" y1="887.99" x2="160.41" y2="925.71" xlink:href="#Dégradé_sans_nom_21"/><linearGradient id="Dégradé_sans_nom_21-3" x1="920.92" y1="404.55" x2="935.15" y2="407.06" gradientTransform="matrix(-1, -0.05, -0.05, 1, 1247.59, 75.47)" xlink:href="#Dégradé_sans_nom_21"/><linearGradient id="Dégradé_sans_nom_21-4" x1="1476.2" y1="356.66" x2="1553.6" y2="356.66" gradientTransform="translate(-1145.99)" xlink:href="#Dégradé_sans_nom_21"/><linearGradient id="Dégradé_sans_nom_52" x1="380.96" y1="97.29" x2="418.47" y2="97.29" gradientUnits="userSpaceOnUse"><stop offset="0" stop-color="#fe6a28"/><stop offset="0.11" stop-color="#fe6e2e"/><stop offset="0.26" stop-color="#fe7a3f"/><stop offset="0.42" stop-color="#fd8d5a"/><stop offset="0.61" stop-color="#fda781"/><stop offset="0.8" stop-color="#fdc9b2"/><stop offset="1" stop-color="#fcf1ed"/></linearGradient><linearGradient id="Dégradé_sans_nom_21-5" x1="167.68" y1="114.3" x2="270.83" y2="114.3" xlink:href="#Dégradé_sans_nom_21"/><linearGradient id="Dégradé_sans_nom_25" x1="175.94" y1="138.38" x2="179.07" y2="138.38" gradientUnits="userSpaceOnUse"><stop offset="0" stop-color="#f8f7f6"/><stop offset="0" stop-color="#ff2738"/><stop offset="0.3" stop-color="#fc2738"/><stop offset="0.53" stop-color="#f22738"/><stop offset="0.75" stop-color="#e12738"/><stop offset="0.95" stop-color="#ca2738"/><stop offset="1" stop-color="#c22738"/></linearGradient><linearGradient id="Dégradé_sans_nom_52-2" x1="371.05" y1="192.4" x2="420.7" y2="142.74" xlink:href="#Dégradé_sans_nom_52"/><linearGradient id="Dégradé_sans_nom_52-3" x1="348.23" y1="60.63" x2="387.56" y2="99.96" xlink:href="#Dégradé_sans_nom_52"/><linearGradient id="Dégradé_sans_nom_21-6" x1="864.31" y1="329.83" x2="973.46" y2="329.83" xlink:href="#Dégradé_sans_nom_21"/><linearGradient id="Dégradé_sans_nom_24" x1="867.5" y1="344.36" x2="905.9" y2="344.36" gradientUnits="userSpaceOnUse"><stop offset="0" stop-color="#f8f7f6"/><stop offset="0" stop-color="#ff2738"/><stop offset="0.38" stop-color="#fd2738"/><stop offset="0.59" stop-color="#f52738"/><stop offset="0.76" stop-color="#e72738"/><stop offset="0.9" stop-color="#d42738"/><stop offset="1" stop-color="#c22738"/></linearGradient><linearGradient id="Dégradé_sans_nom_24-2" x1="866.88" y1="336.52" x2="905.38" y2="336.52" xlink:href="#Dégradé_sans_nom_24"/><linearGradient id="Dégradé_sans_nom_24-3" x1="866.36" y1="328.68" x2="904.87" y2="328.68" xlink:href="#Dégradé_sans_nom_24"/><linearGradient id="Dégradé_sans_nom_55" x1="863.47" y1="128.42" x2="912.52" y2="128.42" gradientUnits="userSpaceOnUse"><stop offset="0" stop-color="#016dff"/><stop offset="0.17" stop-color="#0770ff"/><stop offset="0.39" stop-color="#1879ff"/><stop offset="0.65" stop-color="#3389ff"/><stop offset="0.93" stop-color="#5a9eff"/><stop offset="1" stop-color="#65a4ff"/></linearGradient><linearGradient id="Dégradé_sans_nom_21-7" x1="1099.63" y1="737.43" x2="959.66" y2="737.43" xlink:href="#Dégradé_sans_nom_21"/><linearGradient id="Dégradé_sans_nom_21-8" x1="1055.02" y1="56.9" x2="1117.27" y2="227.93" xlink:href="#Dégradé_sans_nom_21"/><linearGradient id="Dégradé_sans_nom_21-9" x1="1134" y1="385.55" x2="1190.04" y2="385.55" xlink:href="#Dégradé_sans_nom_21"/><linearGradient id="Dégradé_sans_nom_55-2" x1="904.49" y1="219.96" x2="961.57" y2="219.96" xlink:href="#Dégradé_sans_nom_55"/><linearGradient id="Dégradé_sans_nom_55-3" x1="906.94" y1="208.26" x2="959.12" y2="208.26" xlink:href="#Dégradé_sans_nom_55"/><linearGradient id="Dégradé_sans_nom_55-4" x1="893.84" y1="99.13" x2="949.5" y2="99.13" xlink:href="#Dégradé_sans_nom_55"/><linearGradient id="Dégradé_sans_nom_21-10" x1="1231.53" y1="708.09" x2="1097.03" y2="757.04" xlink:href="#Dégradé_sans_nom_21"/><linearGradient id="Dégradé_sans_nom_21-11" x1="1176.48" y1="556.95" x2="1176.57" y2="556.95" xlink:href="#Dégradé_sans_nom_21"/></defs><g id="Landing_Illu_1" data-name="Landing Illu 1"><path class="cls-14" d="M422.77,922.69a102.73,102.73,0,0,1-14.91,53.47H136.1a63.11,63.11,0,0,1,86-87.06,103.14,103.14,0,0,1,200.65,33.59Z"/><circle class="cls-15" cx="712.91" cy="777.68" r="56.71"/><circle class="cls-16" cx="563.42" cy="777.68" r="56.71"/><path class="cls-17" d="M590.89,589.16H685.4l-8.74,236.4c0,21.7-15.87,39.28-35.46,39.28h-6.1c-19.59,0-35.47-17.58-35.47-39.28Z"/><path class="cls-18" d="M573.7,527.64c-40.08,14.15-37.64,117.88-37.65,117.89l-11.41.18C520.52,567,461,503.09,558.27,423.65A808.58,808.58,0,0,0,573.7,527.64Z"/><path class="cls-19" d="M702.67,527.64c40.08,14.15,37.65,117.88,37.66,117.89l11.41.18c4.12-78.69,63.63-142.62-33.63-222.06A806.87,806.87,0,0,1,702.67,527.64Z"/><path class="cls-20" d="M707.9,500.64c-.56,3.12-1.15,6.27-1.74,9.44q-2.79,14.59-6.21,29.77l-26,4a233,233,0,0,1-71.51,0l-26.12-4v0Q573,524.61,570.13,510c-.61-3.18-1.2-6.29-1.73-9.41l5.33.82,28.73,4.48a234.87,234.87,0,0,0,71.51,0l28.6-4.45Z"/><path class="cls-21" d="M674,543.87l26-4c-.21,1-.45,2-.66,3-4,15.56-8.16,31.23-13.89,46.35-6.13,1.38-13.94,2.9-22.73,4.1a179.78,179.78,0,0,1-49,0c-8.8-1.2-16.61-2.72-22.74-4.1C585.16,574,581,558.37,577,542.81c-.24-1-.45-2-.67-3l26.12,4A233,233,0,0,0,674,543.87Z"/><path class="cls-21" d="M695.75,228.82l-31.28,4.85a171.48,171.48,0,0,1-52.55,0l-31.33-4.88h0c-20.15,57.47-28,120.69-22.28,194.85,0,.24,0,.47.06.71.12,1.67.26,3.33.41,5,0,.45.07.91.12,1.36a1.09,1.09,0,0,0,0,.18c.06.89.15,1.79.25,2.69.1,1.35.24,2.71.39,4.09.07.9.16,1.81.27,2.72s.15,1.57.24,2.36c0,.38.08.77.12,1.15.11,1.09.23,2.18.37,3.26.15,1.46.31,2.92.5,4.39.09.86.19,1.72.31,2.6.06.53.12,1.08.2,1.62,0,.36.08.73.14,1.09.1.81.19,1.65.31,2.48s.19,1.39.28,2.1c0,.29.07.58.12.88q.11.9.24,1.83c.21,1.57.42,3.16.66,4.75.16,1.16.32,2.33.5,3.49s.29,2.06.46,3.1c0,.17,0,.33.07.5.08.53.15,1.06.24,1.6q.47,3,.94,6a.9.9,0,0,1,0,.16v0c.26,1.62.53,3.26.8,4.89.34,2,.68,4.05,1,6.08s.7,3.89,1,5.85l5.33.82,28.72,4.47a234.3,234.3,0,0,0,71.52,0l28.6-4.44,5.32-.82q1.58-8.53,2.88-16.85v0C727,382.73,721.11,301.2,695.75,228.82Zm-87.5,120.76,10-14.62v0l10.48-15.3,3,2.16-9.41,19.72L615,357h0a37.75,37.75,0,0,1-6.76-7.36Z"/><path class="cls-22" d="M674.64,328.76a36.49,36.49,0,0,1-36.5,36.49c-.34,0-.66,0-1,0H637c-.41,0-.8,0-1.22-.06h-.16a.18.18,0,0,1-.1,0c-.46,0-.91-.07-1.36-.12l-1.11-.13c-.31-.05-.63-.09-.95-.16a2.93,2.93,0,0,1-.41-.07c-.91-.15-1.83-.36-2.72-.59a.66.66,0,0,1-.15-.05c-.5-.12-1-.27-1.47-.42h0c-.16-.06-.32-.12-.5-.17l-.69-.22c-.25-.09-.49-.17-.73-.27-.45-.17-.94-.35-1.39-.55l-.85-.36c-.25-.12-.53-.24-.78-.38a4.83,4.83,0,0,1-.56-.27c-.35-.17-.68-.35-1-.53l-.28-.15-.52-.31c-.23-.12-.44-.24-.65-.37-.86-.5-1.69-1.06-2.51-1.65,0,0,0,0-.07-.06-.59-.41-1.18-.85-1.74-1.32l0,0h0l7.36-15.43,9.41-19.72-3-2.16-10.48,15.3v0l-10,14.62h0c-.44-.62-.86-1.26-1.25-1.91s-.78-1.3-1.14-2a36.35,36.35,0,0,1-4.13-16.92v-.86a.9.9,0,0,1,0-.23c0-.21,0-.42,0-.63V327c0-.3,0-.59,0-.89s.05-.59.08-.88a.15.15,0,0,1,0-.06c0-.38.08-.77.13-1.15a1,1,0,0,1,0-.15c0-.38.09-.76.16-1.13s.09-.49.14-.73a6.27,6.27,0,0,1,.13-.71c.08-.38.16-.79.26-1.16,0-.19.11-.38.15-.58s.14-.56.21-.83.17-.53.25-.8l0-.14c.09-.29.18-.56.29-.85,0-.1.07-.22.12-.33s.08-.23.12-.33c.15-.42.32-.86.47-1.29s.36-.83.54-1.25c0,0,0-.05.05-.08h0c.11-.21.2-.44.32-.65s.21-.44.31-.65.37-.7.53-1a2.53,2.53,0,0,0,.12-.23l.73-1.24c.24-.39.5-.79.76-1.19s.63-.93,1-1.4l.49-.65c.24-.31.48-.63.74-.95a1.42,1.42,0,0,0,.12-.13c.58-.7,1.18-1.37,1.82-2l.18-.19.19-.2a39.07,39.07,0,0,1,4.24-3.66h0c.77-.56,1.56-1.09,2.38-1.61s1.65-1,2.51-1.42h0c.43-.22.85-.44,1.29-.65s.88-.4,1.33-.58h0c.34-.14.69-.26,1-.41l.6-.23,1.14-.39.32-.09c.37-.14.74-.25,1.11-.35a37.51,37.51,0,0,1,8.79-1.36h1.1A36.62,36.62,0,0,1,649,293.94c.57.17,1.13.36,1.69.58a36.66,36.66,0,0,1,7.84,4s0,0,0,0c1,.65,1.89,1.34,2.8,2.07a37.26,37.26,0,0,1,7.06,7.77c.65,1,1.26,2,1.82,3a34.13,34.13,0,0,1,1.72,3.68,30.39,30.39,0,0,1,1.44,4.22A36.66,36.66,0,0,1,674.64,328.76Z"/><path class="cls-23" d="M638.14,277.32a51.29,51.29,0,0,0-42.1,22h0a51.42,51.42,0,0,0,42.11,80.9,49.65,49.65,0,0,0,7.94-.62,51.43,51.43,0,0,0-7.94-102.24Zm-36.4,50.35h0a1.77,1.77,0,0,1,0-.22v0a1.14,1.14,0,0,1,0-.26s0-.09,0-.13c0-.32,0-.64,0-.94s.05-.59.08-.88a.15.15,0,0,1,0-.06c0-.27.05-.51.09-.75a2.71,2.71,0,0,1,0-.4,1,1,0,0,1,0-.15,2.28,2.28,0,0,1,.06-.39c0-.26.06-.5.1-.74q.12-.74.27-1.44c.08-.38.16-.79.26-1.16,0-.19.11-.38.15-.58s.09-.36.15-.56a2.61,2.61,0,0,0,.06-.27c.08-.26.16-.55.25-.8l0-.14c.09-.29.18-.56.29-.85,0-.1.07-.22.12-.33s.08-.23.12-.33c.15-.42.32-.86.47-1.29s.36-.83.54-1.25c0,0,0-.05.05-.08h0c.1-.23.2-.44.31-.65.25-.58.54-1.14.84-1.68a2.53,2.53,0,0,0,.12-.23l.73-1.24c.24-.39.5-.79.76-1.19s.63-.93,1-1.4c.08-.12.17-.22.25-.34a3.24,3.24,0,0,1,.24-.31c.24-.31.48-.63.74-.95a1.42,1.42,0,0,0,.12-.13c.58-.7,1.18-1.37,1.82-2l.18-.19.19-.2c.32-.32.62-.62.94-.92.68-.64,1.42-1.27,2.15-1.88l1.15-.86h0c.77-.56,1.56-1.09,2.38-1.61s1.65-1,2.51-1.42h0v0l1.29-.63c.44-.2.88-.4,1.33-.58h0c.34-.14.69-.26,1-.41l.6-.23.41-.15c.24-.09.49-.17.73-.24l.32-.09c.36-.12.71-.23,1.05-.32L608.4,319.11h0Zm36.4,37.58c-.34,0-.66,0-1,0H637c-.41,0-.8,0-1.22-.06h-.16a.18.18,0,0,1-.1,0c-.46,0-.91-.07-1.36-.12l-1.11-.13-.36-.05-.59-.11a2.93,2.93,0,0,1-.41-.07l-.47-.08c-.47-.09-1-.18-1.43-.3-.28-.06-.55-.14-.82-.21a.66.66,0,0,1-.15-.05c-.23,0-.44-.1-.67-.16a1.58,1.58,0,0,0-.31-.09l-.49-.17h0c-.16-.06-.32-.12-.5-.17l-.69-.22c-.25-.09-.49-.17-.73-.27-.45-.17-.94-.35-1.39-.55l-.85-.36-.71-.35h0l0,0,0,0-.51-.24-.5-.27-.52-.26-.28-.15-.52-.31c-.23-.12-.44-.24-.65-.37s-.44-.26-.65-.41c-.59-.38-1.19-.77-1.77-1.2a.18.18,0,0,1-.09,0s0,0-.07-.06l-.1-.08c-.54-.41-1.1-.81-1.63-1.25l0,0h0l7.36-15.43,9.41-19.72-3-2.16-10.48,15.3v0l-10,14.62h0c-.44-.62-.86-1.26-1.25-1.91s-.76-1.29-1.11-2l9.24-15.82h0L637,292.31h0v0h1.08A36.26,36.26,0,0,1,649,293.94c.57.17,1.13.36,1.69.58a35.75,35.75,0,0,1,7.84,4s0,0,0,0c1,.65,1.91,1.34,2.8,2.07a37.26,37.26,0,0,1,7.06,7.77c.65,1,1.26,2,1.82,3a34.13,34.13,0,0,1,1.72,3.68,30.39,30.39,0,0,1,1.44,4.22,36.45,36.45,0,0,1-35.23,46Z"/><path class="cls-24" d="M695.67,228.76l-.2.1a132.28,132.28,0,0,1-114.79,0l-.14-.06c13.66-39.06,33-75.43,57.57-110.76C662.67,153.33,682,189.7,695.67,228.76Z"/><path class="cls-25" d="M853.56,922.69a102.73,102.73,0,0,0,14.91,53.47h271.76a63.1,63.1,0,0,0-86-87.06,103.14,103.14,0,0,0-200.66,33.59Z"/><path class="cls-26" d="M514,790.66a56.7,56.7,0,0,1-56.7,56.7,57.59,57.59,0,0,1-10.66-1,56.7,56.7,0,1,1-55.43-68.68,57.67,57.67,0,0,1,10.66,1,56.71,56.71,0,0,1,112.13,12Z"/><path class="cls-27" d="M762.38,790.66a56.71,56.71,0,0,0,56.7,56.7,57.59,57.59,0,0,0,10.66-1,56.71,56.71,0,1,0,55.44-68.68,57.59,57.59,0,0,0-10.66,1,56.71,56.71,0,0,0-112.14,12Z"/><path class="cls-28" d="M937.77,966.54c0,1.69,0,3.38-.07,5.07-2,1.54-4,3-6,4.55h-593c0-1.7-.07-7.93-.07-9.62,0-104.2,84.47-188.67,188.66-188.67a187.91,187.91,0,0,1,110.94,36,187.9,187.9,0,0,1,110.93-36C853.3,777.87,937.77,862.34,937.77,966.54Z"/><path class="cls-29" d="M694.89,803.09a56.62,56.62,0,0,1-56.7,56.71h-.05a56.71,56.71,0,0,1,0-113.42h.05A56.71,56.71,0,0,1,694.89,803.09Z"/><path class="cls-30" d="M802.06,976.16H474.28A172.94,172.94,0,0,1,582.8,815.66c1.23-.49,2.47-1,3.72-1.44a147.41,147.41,0,0,1,103.3,0c1.24.46,2.48.95,3.72,1.44A172.94,172.94,0,0,1,802.06,976.16Z"/><path class="cls-31" d="M269.9,276.37c-9.86-32.52-21.63-64-42-90.21l1.35-9.91.22-1.66s9.54,6.26,16,8.73L242,192.75,255.93,196a303.42,303.42,0,0,1,28.51,117l6.64,183.56-8.83-50.86-5.8-15.6,1.88-.29h0l-.8-45Z"/><path class="cls-32" d="M158.37,143.14l2-2.62,7.3-9.83a.11.11,0,0,1,.05,0h0C185.17,141,206.9,161.2,217,173.09l1.62-11.63c2.83,4.43,10.86,13.13,10.86,13.13l-1.57,11.57c39.66,48.29,51.76,113.46,52.85,176.46q.73,43.2,3.71,86.32V449a227.24,227.24,0,0,1-58,6.78,1.06,1.06,0,0,0,0-.2c3.3-40.64,10.62-83.81,9.6-120"/><polygon class="cls-33" points="62.91 801.2 80.02 785.39 98.98 833.69 78.99 838.89 48.31 840.66 62.91 801.2"/><polygon class="cls-34" points="141.67 912.45 139.02 889.92 179.56 888 181.8 906.36 171.54 925.71 141.67 912.45"/><path class="cls-35" d="M124.81,827.88l-2.69,1.84-21,14.35c-28.71-34.84-27.91-71.21-27.91-71.21L115,745.35l2.49-1.64Z"/><path class="cls-35" d="M315.32,626.84l-.36-2L284.43,449q-14,2.83-28.12,4.52t-28.4,2.19l-1.43.07-1.74,21.74c-1.25,11.63-5.87,23-16.09,27.28a24.06,24.06,0,0,1-9.66,1.8l-91.5-8.14c-5,68.62,3.54,161.65,9.89,245.29,6.07,80,14,144.71,14,144.71s26,7.27,57.9-3.18c0,0-.32-49.22,2.82-102.11l2.6-1.72L266.37,734C336.41,687.08,323.46,671.71,315.32,626.84ZM222,674.17l-23.37,15.55-2.6,1.73c2.89-40.5,6.58-84.29,15.35-153.68l22.34,107.85A27.58,27.58,0,0,1,222,674.17Z"/><path class="cls-36" d="M294.19,384.05l3.23,93.74a26,26,0,0,0,11-27.93Z"/><path class="cls-37" d="M257.45,197.2l-.07,0S257.42,197.14,257.45,197.2Z"/><path class="cls-38" d="M169.46,153.12c-5.08-4.47-8.69-6.34-9.6-8.78A112.82,112.82,0,0,1,169.46,153.12Z"/><path class="cls-39" d="M255.93,196h0L242,192.75l3.44-9.43h0a67.62,67.62,0,0,0,12.15,3c15.06,2.23,36.43,28.17,36.43,55.3l3.7,245.24a9.62,9.62,0,0,1-4.05,7.85l-2.63,1.86L284.49,314A303.62,303.62,0,0,0,255.93,196Z"/><path class="cls-31" d="M181.14,211.3v0C164.37,191.23,151,179.78,150.08,179h0s0,0,0,0h0l6.7-4.85a2.13,2.13,0,0,0,.12-3.34l-14.58-12.29a112.09,112.09,0,0,0,16.1-15.37c.49.39,1,.79,1.49,1.2a112.82,112.82,0,0,1,9.6,8.78l0,0c38.56,39.32,66.25,116.7,70.6,173.88C229,287.92,206.76,242.47,181.14,211.3Z"/><path class="cls-31" d="M335.36,333.51s13,12.95,6.77,51.92l-20.88-8.68-7.07-27.45Z"/><path class="cls-40" d="M375.86,340.08a4,4,0,0,0,3.4-2.62,4,4,0,0,0-.92-4.23l-.23-.23a4.08,4.08,0,0,0-3.21-1.17,263.71,263.71,0,0,0-38.41,6.6,3.81,3.81,0,0,0-2.47,2c-5.93,11.63-3.49,28.38-2.26,34.69a3.7,3.7,0,0,0,3,3,272.5,272.5,0,0,0,69,2.17,4,4,0,0,0,2.91-1.77l.06-.08a4.17,4.17,0,0,0,.77-3,4,4,0,0,0-2.05-3,4.08,4.08,0,0,0-1.93-.5,4.78,4.78,0,0,0,2.13-.79h0a4.26,4.26,0,0,0,1-1l.06-.08a4.2,4.2,0,0,0,.21-4.54,4,4,0,0,0-3.42-1.91l-.4,0,.64-.06a3.92,3.92,0,0,0,1.95-.77,3.81,3.81,0,0,0,1-1l.06-.08a4.2,4.2,0,0,0,.21-4.54,4,4,0,0,0-1.49-1.42,4.13,4.13,0,0,0-1.93-.49,2.69,2.69,0,0,0-.4,0,4.63,4.63,0,0,1,.51-.05,4.37,4.37,0,0,0,2-.77,4.75,4.75,0,0,0,1-1l.19-.26a4.07,4.07,0,0,0,.09-4.34,4,4,0,0,0-3.43-1.92c-.14,0-.27,0-.41,0-17.25,1.73-30.48,1.55-48.57-.4a1.14,1.14,0,0,1-.11-2.23l.11,0a102.7,102.7,0,0,1,21.25-4.22Z"/><path class="cls-37" d="M403.59,371.94a4.08,4.08,0,0,1,1.93.5,197.79,197.79,0,0,1-23.09,1.36c-8.93,0-17-.58-24.84-1.15l.08-1.26c14.1,1,28.66,2.07,48.05-.24A4.78,4.78,0,0,1,403.59,371.94Z"/><path class="cls-37" d="M403.59,363.61a4,4,0,0,1,1.93.49,195.47,195.47,0,0,1-23.09,1.35c-8.93,0-17-.58-24.84-1.15l.08-1.25c14.11,1,28.69,2.07,48.11-.25a3.92,3.92,0,0,1-1.95.77l-.64.06Z"/><path class="cls-37" d="M403.59,355.27a4.13,4.13,0,0,1,1.93.49,195.63,195.63,0,0,1-23.09,1.36c-8.93,0-17-.59-24.84-1.15l.08-1.27c14.1,1,28.66,2.09,48.05-.22a4.37,4.37,0,0,1-2,.77,4.63,4.63,0,0,0-.51.05A2.69,2.69,0,0,1,403.59,355.27Z"/><path class="cls-41" d="M399.72,78.54h-.1A18.76,18.76,0,0,0,381,97.29a18.18,18.18,0,0,0,.71,5.08,18.75,18.75,0,1,0,18.05-23.83Zm9.22,11.11-9.26,17.08a1.9,1.9,0,0,1-1.38,1,2.36,2.36,0,0,1-.29,0,1.86,1.86,0,0,1-1.31-.54l-5.84-5.6a1.9,1.9,0,0,1,2.62-2.74l4,3.89,8.07-14.9a1.9,1.9,0,0,1,3.34,1.81Z"/><path class="cls-37" d="M182.52,77.57a8.25,8.25,0,0,1,1.82-.73A9.88,9.88,0,0,0,182.52,77.57Z"/><path class="cls-42" d="M216.89,173.9l1.9-13.77s0-.1,0-.13a83.11,83.11,0,0,1,6.45-18.59,41.34,41.34,0,0,1,4.81-7.63,13.76,13.76,0,0,1,1.13-1.26h0a51.08,51.08,0,0,0,33.18-33h0l2.39-17,4-27.79c-17.27,5.87-41.13,4.84-50.23,3.91-4.12-.63-6.16,4-7.77,6.87-3,4.45-2.77,9.76-3.67,14.8-1.72,6.69-5,12.23-12.92,14.16,11-18.09-19.68-27.22-20.33-4.57a18,18,0,0,0-.12,2.22c0,28.21-8.11,38.51-8.11,38.51S197.61,153.52,216.89,173.9Z"/><path class="cls-43" d="M175.94,137.14l3.13,2.49C178,138.78,176.94,138,175.94,137.14Z"/><path class="cls-37" d="M290.11,29.5a13.69,13.69,0,0,0-3.8-7.36,11,11,0,0,0-1-.9l-.53-.41a13.35,13.35,0,0,0-1.73-1.1,17.81,17.81,0,0,0-1.92-.89c-.44-.17-.9-.32-1.36-.46a27.81,27.81,0,0,0-13.44-.29,34.1,34.1,0,0,0-3.39.83c-.58.16-1.15.35-1.73.54a45.26,45.26,0,0,0-6.94,3,52.53,52.53,0,0,0-8.48,5.65,4.34,4.34,0,0,1-.87.39c-3.09,1-3.94-3.87-1.49-6.15a16.86,16.86,0,0,0,2.25-15.74C237.88-16,200.87,25.43,198.55,42,184.72.64,166.24,63.16,173.47,91.29a1.44,1.44,0,0,0,2.33.8c0-.25,0-.52,0-.77s0-.28,0-.42,0-.34,0-.52,0-.34,0-.5,0-.56,0-.82a.14.14,0,0,1,0-.09,7.12,7.12,0,0,1,.08-.82,14.87,14.87,0,0,1,.22-1.59c0-.22.08-.45.13-.65s.13-.54.2-.81.13-.45.22-.68.14-.43.22-.64.16-.43.24-.63a10.66,10.66,0,0,1,.59-1.17c.13-.25.3-.5.45-.74a.1.1,0,0,1,0-.06c.19-.29.39-.56.59-.81s.45-.52.67-.76.55-.52.82-.76h0a7.87,7.87,0,0,1,.87-.65,12.71,12.71,0,0,1,1.4-.77c.23-.1.47-.18.69-.26l.46-.16.33-.12.1,0,0,0,.15,0,.21,0,.28-.07.2,0h0c.17,0,.34,0,.52-.07a.08.08,0,0,0,.06,0,12.61,12.61,0,0,1,2.3-.06,6.65,6.65,0,0,1,.78.08l.62.1.43.09.44.1.08,0c.34.09.67.2,1,.32l.49.19.48.21a2.06,2.06,0,0,1,.33.17.47.47,0,0,1,.15.06l.46.25c.3.18.6.37.88.57s.57.42.84.64l.29.26a.93.93,0,0,1,.1.1c.12.11.25.24.36.36a7.92,7.92,0,0,1,.61.69,6.64,6.64,0,0,1,.52.72s0,0,.05.06c.16.24.3.49.44.74a9.37,9.37,0,0,1,.4.85,7.13,7.13,0,0,1,.32.88,2.08,2.08,0,0,1,.11.41,5.11,5.11,0,0,1,.13.53c0,.16.06.33.09.49a10.77,10.77,0,0,1,.11,1.52V87a6.34,6.34,0,0,1,0,.74,6.78,6.78,0,0,1-.1.88h0c0,.28-.1.56-.16.84a13.27,13.27,0,0,1-.48,1.61c-.05.17-.13.33-.19.51a17.86,17.86,0,0,1-.83,1.8,11.84,11.84,0,0,1-.59,1c.43-.1.85-.23,1.27-.36a8.75,8.75,0,0,0,.86-.3,4.75,4.75,0,0,0,.63-.23l.63-.27.39-.19c.28-.13.54-.27.8-.41s.64-.38.94-.58.61-.42.89-.64.49-.38.72-.58.59-.55.87-.84a14.53,14.53,0,0,0,1.62-2,7.42,7.42,0,0,0,.44-.7c.09-.12.16-.25.24-.38a2.17,2.17,0,0,0,.19-.33h0a2,2,0,0,0,.19-.31l.09-.18.48-1s0,0,0,0a0,0,0,0,0,0,0,.79.79,0,0,0,0-.09,0,0,0,0,0,0,0,.54.54,0,0,1,0-.11l.3-.74c0-.09.08-.18.11-.27.31-.77.58-1.56.82-2.38.12-.41.22-.82.34-1.24.26-1.52.43-3.06.63-4.59v0c.07-.67.16-1.33.28-2a30.11,30.11,0,0,1,.7-3.55.42.42,0,0,0,0-.12c.05-.2.12-.39.18-.58a3.58,3.58,0,0,1,.19-.58.49.49,0,0,1,.05-.16l.23-.6c.1-.27.21-.52.34-.79a.7.7,0,0,1,.09-.17,7.22,7.22,0,0,1,.41-.78,7.44,7.44,0,0,1,.52-.85h0c.19-.34.38-.71.58-1.08.1-.19.2-.38.32-.57.25-.45.51-.92.81-1.39.19-.3.39-.6.59-.9,0,0,0,0,0,0l.3-.4c.11-.13.21-.27.32-.39s.22-.24.33-.37l.34-.34.14-.13a4,4,0,0,1,.34-.27,3.85,3.85,0,0,1,.43-.31,5.12,5.12,0,0,1,1.26-.58,2.66,2.66,0,0,1,.56-.12h0a3.42,3.42,0,0,1,.65-.06,5.24,5.24,0,0,1,.77.07,162.14,162.14,0,0,0,17.59.7l2.06,0h.06l2.07-.07c.72,0,1.44-.06,2.18-.1l2.19-.12.19,0,2.05-.15h.22l2-.19,2.55-.28c.62-.07,1.24-.15,1.85-.24h.09c.72-.1,1.44-.2,2.16-.32l.47-.07c.62-.1,1.22-.2,1.83-.32s1.48-.28,2.21-.43c.52-.1,1.05-.21,1.57-.34l.63-.14L266.7,56l.52-.14,1.54-.44.06,0c.52-.16,1-.32,1.55-.5a2.06,2.06,0,0,0,.46-.15h0c.35-.11.7-.24,1-.36l1-.38,1-.39a38.42,38.42,0,0,0,5.56-2.77l.85-.53c.44-.28.86-.57,1.26-.86.2-.14.41-.29.61-.45l.54-.42c.24-.2.47-.39.69-.59s.47-.42.7-.64.45-.43.67-.64a19.37,19.37,0,0,0,3.31-4.41,7.84,7.84,0,0,0,.41-.82,8.84,8.84,0,0,0,.38-.83,16.87,16.87,0,0,0,.9-2.68c.08-.28.14-.57.2-.86a3.49,3.49,0,0,0,.07-.37,2.56,2.56,0,0,1,.05-.27v-.11h0a6,6,0,0,0,.09-.63c.07-.54.12-1.11.15-1.68A24.08,24.08,0,0,0,290.11,29.5ZM217,58.24h0Z"/><path class="cls-37" d="M290.11,29.5a13.69,13.69,0,0,0-3.8-7.36,12.66,12.66,0,0,0-1-.9l-.53-.41a17.58,17.58,0,0,0-1.73-1.1,17.81,17.81,0,0,0-1.92-.89c-.44-.16-.9-.32-1.36-.46a27.81,27.81,0,0,0-13.44-.29c-1.12.22-2.25.5-3.39.83-.58.16-1.15.35-1.73.54a48.26,48.26,0,0,0-6.94,3,52.53,52.53,0,0,0-8.48,5.65,4.34,4.34,0,0,1-.87.39c-3.09,1-3.94-3.87-1.49-6.15a16.86,16.86,0,0,0,2.25-15.74C237.88-16,200.87,25.43,198.55,42,184.72.64,166.24,63.16,173.47,91.29a1.44,1.44,0,0,0,2.33.8V91.6l.1-14.39,21.16-7.91,22.63-21.42,38.15-4.65,13.43,8.57-.43,2.9c.35-.11.7-.24,1-.36l1-.38,1-.39a38.42,38.42,0,0,0,5.56-2.77l.85-.53c.44-.28.86-.57,1.26-.86.2-.14.41-.29.61-.45l.54-.42c.24-.2.47-.39.69-.59s.47-.42.7-.64.45-.43.67-.64a19.37,19.37,0,0,0,3.31-4.41,7.84,7.84,0,0,0,.41-.82,8.84,8.84,0,0,0,.38-.83,16.87,16.87,0,0,0,.9-2.68c.08-.28.14-.57.2-.86a3.49,3.49,0,0,0,.07-.37,2.56,2.56,0,0,1,.05-.27v0a.13.13,0,0,0,0-.06h0a6,6,0,0,0,.09-.63c.07-.54.12-1.11.15-1.68A24.08,24.08,0,0,0,290.11,29.5Z"/><path class="cls-37" d="M249.41,120.87c-3,0-7.33-1.18-12.58-5.74l.72-.83c10,8.66,16,4.51,16.29,4.33l.64.88A8.92,8.92,0,0,1,249.41,120.87Z"/><path class="cls-44" d="M231.2,132.51s-.41.4-1.13,1.26a55,55,0,0,1-14.34-3.22,30.86,30.86,0,0,1-12.19-8.23,51.15,51.15,0,0,0,27.66,10.19Z"/><path class="cls-45" d="M421.11,145.67H374.48a6.07,6.07,0,0,0-6.07,6.07v37.62a1,1,0,0,0,1.58.74l3.66-3.07a6.1,6.1,0,0,1,3.89-1.41h43.57a6.08,6.08,0,0,0,6.08-6.08v-27.8A6.08,6.08,0,0,0,421.11,145.67ZM385,168a3.82,3.82,0,1,1,3.81-3.81A3.8,3.8,0,0,1,385,168Zm12.82,0a3.82,3.82,0,1,1,3.81-3.81A3.81,3.81,0,0,1,397.8,168Zm12.82-2.52a3.82,3.82,0,1,1,3.81-3.82A3.81,3.81,0,0,1,410.62,165.5Z"/><path class="cls-46" d="M369,48.6a27.94,27.94,0,0,0-24.88,25.3A27.65,27.65,0,0,0,349.62,93a4.14,4.14,0,0,1,.64,3.45,11,11,0,0,1-1.82,3.85,10.67,10.67,0,0,1-3.69,3.08.63.63,0,0,0,.33,1.18,37.94,37.94,0,0,0,12.29-2.78,4.09,4.09,0,0,1,3.2,0,27.79,27.79,0,0,0,39-22.39c0-.27.05-.52.07-.78A27.85,27.85,0,0,0,369,48.6ZM379.3,81.87a2.49,2.49,0,0,1-2.49,2.49H358.48A2.48,2.48,0,0,1,356,81.87V68.58a2.48,2.48,0,0,1,2.49-2.48h18.33a2.49,2.49,0,0,1,2.49,2.48Zm1.55-7.38L386,69.33a1,1,0,0,1,1.77.73V80.39a1,1,0,0,1-1.77.74L380.85,76A1,1,0,0,1,380.85,74.49Z"/><path class="cls-31" d="M78.32,842.8c0,.09,0,.18-.09.27-1.24,4.87-4.18,9.13-7.29,13.37-.46.62-.92,1.23-1.34,1.82a.92.92,0,0,0-.13.21,48.81,48.81,0,0,0-2.78,4.38,5,5,0,0,0-.29.5c-.46.81-.85,1.58-1.2,2.33h0c-.28.57-.53,1.12-.76,1.65a.52.52,0,0,0-.06.16,31.75,31.75,0,0,0-1.78,5.41v0a17.12,17.12,0,0,0-.57,4.76,31.52,31.52,0,0,0-.13,3.22c.06,10.31.81,21.48-.73,31.49a28.7,28.7,0,0,0-9.74-10.3,28.8,28.8,0,0,0-21.21-3.34l.38,1.42c1.25-.3,11-2.42,20.06,3.19a28.24,28.24,0,0,1,10.1,11.33c-2.12,10.86-7.35,20-19.71,24.69l-6.8,1.8-21.06-79a14.1,14.1,0,0,1-.46-4l.7-19.09a1.81,1.81,0,0,0-2.25-1.81l-4.33,1.15L0,812.65c25.4-6.77,37.28-9.11,37.28-9.11,2.37,9.52.21,17.31-6.44,23.18a31,31,0,0,1-11.19,6.19l.38,1.43c.47-.13,11.28-3.08,16.7-12.43,3.07-5.29,3.76-11.55,2-18.64a146.27,146.27,0,0,1,24-2.07h.18c1.05,5.14-1.21,18.57,5.33,20.9C75.29,825.63,81,835.14,78.32,842.8Z"/><path class="cls-32" d="M78.32,842.8c0,.09,0,.18-.09.27-1.24,4.87-4.18,9.13-7.29,13.37l-5.57-20.9-1.7.47,5.93,22.25a.92.92,0,0,0-.13.21,48.81,48.81,0,0,0-2.78,4.38,5,5,0,0,0-.29.5L61.8,846.1l-1.71.44,5.11,19.14h0c-.28.57-.53,1.12-.76,1.65a.52.52,0,0,0-.06.16,31.75,31.75,0,0,0-1.78,5.41L58.24,856.6l-1.72.45L62,877.69a31.52,31.52,0,0,0-.13,3.22c.06,10.31.81,21.48-.73,31.49a28.7,28.7,0,0,0-9.74-10.3,28.8,28.8,0,0,0-21.21-3.34l.38,1.42c1.25-.3,11-2.42,20.06,3.19a28.24,28.24,0,0,1,10.1,11.33c-2.12,10.86-7.35,20-19.71,24.69l-6.8,1.8-21.06-79a14.1,14.1,0,0,1-.46-4l.7-19.09a1.81,1.81,0,0,0-2.25-1.81l-4.33,1.15L0,812.65c25.4-6.77,37.28-9.11,37.28-9.11,2.37,9.52.21,17.31-6.44,23.18a31,31,0,0,1-11.19,6.19l.38,1.43c.47-.13,11.28-3.08,16.7-12.43,3.07-5.29,3.76-11.55,2-18.64a146.27,146.27,0,0,1,24-2.07h.18c1.05,5.14-1.21,18.57,5.33,20.9C75.29,825.63,81,835.14,78.32,842.8Z"/><path class="cls-31" d="M61.17,912.4v0l-.41,2.27a28.24,28.24,0,0,0-10.1-11.33c-9-5.61-18.81-3.49-20.06-3.19l-.38-1.42a28.8,28.8,0,0,1,21.21,3.34A28.7,28.7,0,0,1,61.17,912.4Z"/><path class="cls-31" d="M36.73,821.91c-5.42,9.35-16.23,12.3-16.7,12.43l-.38-1.43a31,31,0,0,0,11.19-6.19c6.65-5.87,8.81-13.66,6.44-23.18,0,0,.67-.14,1.47-.27C40.49,810.36,39.8,816.62,36.73,821.91Z"/><path class="cls-31" d="M185.89,908.15a1.82,1.82,0,0,1,.23.15c4.39,2.46,7.75,6.4,11,10.5.48.61,1,1.21,1.41,1.76a1.46,1.46,0,0,0,.16.19c1.2,1.43,2.38,2.7,3.52,3.82a5.29,5.29,0,0,0,.41.41c.66.65,1.31,1.22,1.93,1.76h0c.47.42.95.81,1.4,1.16a.41.41,0,0,0,.13.1,31.93,31.93,0,0,0,4.77,3.12h0a17.6,17.6,0,0,0,4.46,1.78,30.41,30.41,0,0,0,3.08,1c10,2.61,21,4.78,30.22,8.85a27.7,27.7,0,0,0-21.17,26.37H229c0-1.29.51-11.28,8.26-18.55a28.21,28.21,0,0,1,13.56-6.83c9.94,4.85,17.45,12.28,18.75,25.43v7l-81.8-.09a14.69,14.69,0,0,1-4-.6l-18.26-5.61a1.8,1.8,0,0,0-2.33,1.7v4.49l-26.61,0c0-26.29.83-38.37.83-38.37,9.81.18,16.78,4.28,20.73,12.21a31.34,31.34,0,0,1,3.09,12.41h1.48c0-.49-.06-11.7-7.69-19.35-4.32-4.33-10.19-6.62-17.49-6.77a146.2,146.2,0,0,1,4.2-23.7l.05-.17c5.24.31,17.62,6,21.57.25C168.52,906.63,179.18,903.58,185.89,908.15Z"/><path class="cls-32" d="M185.89,908.15a1.82,1.82,0,0,1,.23.15c4.39,2.46,7.75,6.4,11,10.5l-21.63,0v1.76l23,0a1.46,1.46,0,0,0,.16.19c1.2,1.43,2.38,2.7,3.52,3.82a5.29,5.29,0,0,0,.41.41l-17.86,0v1.76l19.8,0h0c.47.42.95.81,1.4,1.16a.41.41,0,0,0,.13.1,31.93,31.93,0,0,0,4.77,3.12H194v1.78l21.36,0a30.41,30.41,0,0,0,3.08,1c10,2.61,21,4.78,30.22,8.85a27.7,27.7,0,0,0-21.17,26.37H229c0-1.29.51-11.28,8.26-18.55a28.21,28.21,0,0,1,13.56-6.83c9.94,4.85,17.45,12.28,18.75,25.43v7l-81.8-.09a14.69,14.69,0,0,1-4-.6l-18.26-5.61a1.8,1.8,0,0,0-2.33,1.7v4.49l-26.61,0c0-26.29.83-38.37.83-38.37,9.81.18,16.78,4.28,20.73,12.21a31.34,31.34,0,0,1,3.09,12.41h1.48c0-.49-.06-11.7-7.69-19.35-4.32-4.33-10.19-6.62-17.49-6.77a146.2,146.2,0,0,1,4.2-23.7l.05-.17c5.24.31,17.62,6,21.57.25C168.52,906.63,179.18,903.58,185.89,908.15Z"/><path class="cls-31" d="M248.68,942.71h0l2.08,1a28.21,28.21,0,0,0-13.56,6.83c-7.75,7.27-8.23,17.26-8.26,18.55h-1.47a27.7,27.7,0,0,1,21.17-26.37Z"/><path class="cls-31" d="M155,942.92c7.63,7.65,7.69,18.86,7.69,19.35h-1.48a31.34,31.34,0,0,0-3.09-12.41c-4-7.93-10.92-12-20.73-12.21,0,0,0-.69.12-1.49C144.77,936.3,150.64,938.59,155,942.92Z"/><path class="cls-39" d="M342.12,385.44l-105.19-7.66c-1.58,16.65-3.6,33.89-5.72,50.74Q228.74,447.84,226,467c-.19,1.31-.37,2.63-.52,3.94v0c-.27,2.17-.49,4.34-.72,6.53-1.6,14.8-8.64,29.21-25.75,29.08l-87-7.8-34.52-3.1L76,495.59,69.59,495,92.35,294.54l.16-1.37,10.1-89c1.7-26.62,23.12-33.46,39.64-45.65,3.7,3.08,8.17,6.87,12,10.12,6.54,4.44,2.48,5.24-1.77,8.55A12.35,12.35,0,0,0,150,179h0v0s0,0,0,.05h0c.89.73,14.29,12.17,31,32.23h0c24.76,31.48,50,67.32,58.15,107.15a37.65,37.65,0,0,1,.79,8.27v0l95.28,6.75S331.61,364.18,342.12,385.44Z"/><path class="cls-31" d="M147.35,435a61.68,61.68,0,0,0,15.77-2.81,50.58,50.58,0,0,0,11.39-5.27,42.69,42.69,0,0,0,13.07-12.77,37.43,37.43,0,0,0,4.34-9.26,52,52,0,0,1-5.09,7.07c-7.42,8.76-16.92,14.44-24.72,18A77.41,77.41,0,0,1,147.35,435Z"/><path class="cls-31" d="M102.79,267.36l49.54,101.12a11.1,11.1,0,0,0,9,5.4l67.31,3.44-66.76-9.44a7.74,7.74,0,0,1-4.81-3.1Z"/><path class="cls-31" d="M197,292.62,204,312.09a14.41,14.41,0,0,0,9.1,9.06c.33.1.66.19,1,.26l16.84,3.8-17.35-8.4q-.37-.13-.75-.3a10.73,10.73,0,0,1-5-4.67Z"/><circle class="cls-31" cx="225.91" cy="201.62" r="1.89"/><circle class="cls-31" cx="244.06" cy="250.32" r="1.89"/><circle class="cls-31" cx="256.8" cy="300.55" r="1.89"/><circle class="cls-31" cx="260.59" cy="407.51" r="1.89"/><polygon class="cls-31" points="198.58 689.72 194.72 781.46 192.12 783.18 195.98 691.45 198.58 689.72"/><polygon class="cls-31" points="124.81 827.88 122.12 829.73 114.96 745.35 117.45 743.71 124.81 827.88"/><path class="cls-47" d="M938.05,311.23s-12,18.07-4.1,45.07l21.55-2.9,4.58-28Z"/><path class="cls-48" d="M971.05,346.87l-24.87,5.07-9.19-.88a31.16,31.16,0,0,0-5,0,133.58,133.58,0,0,1-15.23.54c-8.59-.31-16.11-.73-22.21-.71A155.17,155.17,0,0,0,870.39,353a2.1,2.1,0,0,1-.5.09,3.8,3.8,0,0,1-3.08-6.31l0,0a2.8,2.8,0,0,1,.65-.57c.19-.12.38-.24.58-.34l-.57.35c22-4.45,38-1.73,38.15-1.69l.25-1.16c-.15,0-16.24-2.79-38.27,1.57a3.54,3.54,0,0,1-1.38-1,3.69,3.69,0,0,1-.89-2.22,3.8,3.8,0,0,1,.79-2.58l.18-.23a2.21,2.21,0,0,1,.55-.55c22-4.45,38.11-1.72,38.27-1.7l.23-1.16c-.15,0-16.24-2.76-38.27,1.6a3.79,3.79,0,0,1-1.36-1,4,4,0,0,1-.92-2.24,3.81,3.81,0,0,1,.79-2.58l.19-.23a3.49,3.49,0,0,1,.53-.55h0c22-4.46,38.11-1.73,38.26-1.7l.25-1.16c-.15,0-16.24-2.78-38.23,1.6h0v0a3.25,3.25,0,0,1-.9-.52,3.78,3.78,0,0,1-1.39-2.69,3.85,3.85,0,0,1,.8-2.58l.18-.24a3.73,3.73,0,0,1,2.25-1.39,142,142,0,0,1,35.06-2.07l2.73.22a1.73,1.73,0,0,0,1.08-.24l.31-.18a1.81,1.81,0,0,0,.22-3,1.47,1.47,0,0,0-.83-.4,153.35,153.35,0,0,0-23.54-1.9,3.79,3.79,0,0,1-3.72-3,4,4,0,0,1,1.37-3.79l.06-.05a3.73,3.73,0,0,1,2.49-.94,145.74,145.74,0,0,1,28,2.6.24.24,0,0,1,.15,0l11,2.86,3.88,1,1.45.44,2,.56a18.47,18.47,0,0,0,6.08.65h1.41l36.73.23Z"/><path class="cls-49" d="M905.9,343.38l-.25,1.16c-.14,0-16.19-2.76-38.15,1.69l.57-.35c.21-.1.42-.21.62-.29h0a4.31,4.31,0,0,1,.63-.22l.28-.09.17,0a3.54,3.54,0,0,1-.79,0,3,3,0,0,1-.81-.13,3.14,3.14,0,0,1-.56-.2C889.66,340.59,905.75,343.34,905.9,343.38Z"/><path class="cls-50" d="M905.38,335.53l-.23,1.16c-.16,0-16.23-2.75-38.27,1.7a4.2,4.2,0,0,1,.78-.48l.44-.21.47-.17.8-.17a.48.48,0,0,1-.24,0,3.12,3.12,0,0,1-1.14,0,2.89,2.89,0,0,1-.88-.26C889.14,332.77,905.23,335.5,905.38,335.53Z"/><path class="cls-51" d="M904.87,327.69l-.25,1.16c-.15,0-16.23-2.76-38.26,1.7a3.44,3.44,0,0,1,.92-.59l.38-.16.41-.11.88-.18a4,4,0,0,1-2.31-.22C888.63,324.91,904.72,327.65,904.87,327.69Z"/><path class="cls-37" d="M904.87,327.69l-.25,1.16c-.15,0-16.23-2.76-38.26,1.7a3.44,3.44,0,0,1,.92-.59l.38-.16.41-.1.88-.19a4,4,0,0,1-2.31-.22C888.63,324.91,904.72,327.65,904.87,327.69Z"/><path class="cls-37" d="M905.38,335.53l-.23,1.16c-.16,0-16.23-2.75-38.27,1.7a4.2,4.2,0,0,1,.78-.48l.44-.21c.17-.06.33-.12.49-.16l.78-.18a.48.48,0,0,1-.24,0,3.12,3.12,0,0,1-1.14,0,2.89,2.89,0,0,1-.88-.26C889.14,332.77,905.23,335.5,905.38,335.53Z"/><path class="cls-37" d="M905.9,343.38l-.25,1.16c-.14,0-16.19-2.76-38.15,1.69l.57-.35c.21-.1.42-.21.62-.29h0a4.31,4.31,0,0,1,.63-.22l.28-.09.26,0h-.09a3,3,0,0,1-.79,0,3,3,0,0,1-.81-.13,3.14,3.14,0,0,1-.56-.2C889.66,340.59,905.75,343.34,905.9,343.38Z"/><path class="cls-52" d="M1085.3,177.26c-.1.64-.22,1.31-.34,2,0,.24-.09.48-.13.73h0l-.43,2.32-1.9,10.11-.06.33L1080.52,203l-.82,4.4v0l-1.73,9.21h0l-4,21.18c-6.91,37-14,75-20.42,109.29h0l-.8,4.31-36.11,193.33L1030.4,372l7.46-87.59v0a30,30,0,0,0,.58-4.18l1-14.26.43-6.15.1-1.41,2.66-38.1a44.61,44.61,0,0,1,22.7-35.32c1.76-1,3.56-1.9,5.39-2.74l0,0a29,29,0,0,0,15-25.56A69.89,69.89,0,0,1,1085.3,177.26Z"/><path class="cls-53" d="M1085.34,177.24c-.13.66-.26,1.33-.38,2,.12-.67.24-1.34.34-2C1085.31,177.24,1085.32,177.24,1085.34,177.24Z"/><path class="cls-54" d="M888,103.9a24.53,24.53,0,1,0,24.53,24.52A24.52,24.52,0,0,0,888,103.9Zm-10.82,15.26h21.65a1.27,1.27,0,0,1,0,2.53H877.17a1.27,1.27,0,0,1,0-2.53Zm-5,9.26a1.27,1.27,0,0,1,1.26-1.27H895a1.27,1.27,0,0,1,0,2.53H873.38A1.26,1.26,0,0,1,872.12,128.42Zm30.49,9.27H881a1.27,1.27,0,0,1,0-2.53h21.65a1.27,1.27,0,0,1,0,2.53Z"/><path class="cls-55" d="M1085,556.91v-6.46c-24.38,5.66-48.88,7.27-68.32-5.69-5.65,18.09-15.64,55-22.91,119-9.53,83.8-31,218.23-34.1,257.94a18.13,18.13,0,0,1,10.2,5.78,7.35,7.35,0,0,0,6.95,2.51l27.9-5.47h0c39.3-106,56.12-175.31,62.93-218.88A408.87,408.87,0,0,1,1097,604a29.24,29.24,0,0,0,2.63-9.22Z"/><path class="cls-56" d="M1013.62,975.62l-1.5.36h-134s0-.2,0-.53.05-.45.06-.74a21.65,21.65,0,0,1,.59-4.31c.16-.58.32-1.15.52-1.7a26.74,26.74,0,0,1,3.16-6.38l.16-.24a25.84,25.84,0,0,1,4.56-5.27c.28-.26.6-.53.93-.78a32,32,0,0,1,12.5-6.07,71.57,71.57,0,0,0,10.18-3.52c.86-.36,1.72-.74,2.56-1.14s1.86-.87,2.76-1.31l.27-.14c1.58-.78,3.12-1.6,4.65-2.42,0,0,0,0,0,0h0c1-.56,2-1.12,3-1.7,2.36-1.38,4.66-2.83,6.85-4.24.45-.27.89-.56,1.32-.85s.87-.57,1.29-.86c2.21-1.45,4.27-2.92,6.1-4.23h0c.82-.61,1.6-1.16,2.34-1.71h0c2.42-1.81,4.39-3.37,5.76-4.47a9.81,9.81,0,0,1,5.86-2.16,24.84,24.84,0,0,1,6,.48c.24.05.5.1.76.18a5.12,5.12,0,0,1,.77.2,7.22,7.22,0,0,1,1.09.34c.3.1.61.22.91.34s.35.13.53.22c.38.18.77.35,1.16.55l.41.23c.27.15.56.32.83.49l.81.55.44.33c.25.18.5.4.74.6s.59.53.88.81.58.61.87.94h0a7.37,7.37,0,0,0,6.93,2.51l15.32-3,1.24-.25.22,0,11.15-2.19h0a3.69,3.69,0,0,1,4.37,3.23c.92,7.78,1.63,13.78,2.2,18.9a5.82,5.82,0,0,1,.05.6c0,.37.09.75.13,1.1.39,3.61.69,6.78,1,9.81.25,2.75.46,5.38.64,8.2,0,.57.08,1.16.11,1.76a6,6,0,0,1,0,.62l.11,1.7.06,1.39,0,.34Z"/><path class="cls-52" d="M1013.34,970.4H878.84a16.8,16.8,0,0,1,.51-1.71h73.31a25.69,25.69,0,0,0-1.43-2.37c-.36-.56-.73-1.11-1.13-1.64a39.59,39.59,0,0,0-6.73-7.2c-.26-.23-.53-.44-.8-.65-1.11-.88-2.22-1.7-3.37-2.44a3.77,3.77,0,0,0-.39-.26c-9.53-6.1-20.13-8.15-25.4-8.82.93-.42,1.85-.88,2.75-1.32a63.52,63.52,0,0,1,23.51,8.69h10.64a49.82,49.82,0,0,0,9.44-.9c.92-.16,1.84-.36,2.74-.59l1-.24,11-2.79c.32-.08.62-.16.93-.22A51.32,51.32,0,0,1,987,946.61h24.26a3.93,3.93,0,0,1,.06.6c0,.37.09.75.13,1.1H987a49.69,49.69,0,0,0-10.87,1.22c-.43.09-.84.2-1.27.3l-12,3a48.77,48.77,0,0,1-10.18,1.49c-.79.06-1.59.08-2.4.08h-8.12c.58.41,1.16.85,1.71,1.31l.31.25a7.33,7.33,0,0,1,.73.63,1.71,1.71,0,0,1,.26.21,9,9,0,0,1,.79.72,35,35,0,0,1,3.24,3.31c.38.41.74.86,1.08,1.31a3.74,3.74,0,0,1,.41.5,16,16,0,0,1,1,1.32c.17.22.31.42.46.65.38.56.76,1.13,1.1,1.72.47.75.93,1.56,1.35,2.37h58.64Z"/><path class="cls-56" d="M1246.25,274.64l-.09,0s0,0,0,0Z"/><polygon class="cls-38" points="1092.91 236.8 1092.87 236.86 1092.89 236.8 1092.91 236.8"/><path class="cls-56" d="M1176.58,556.89s0,0,0,.06l0,0s0,0,0-.06Z"/><path class="cls-57" d="M1136,150.62l-43.06,86.18h0c-5.48,1.82-10.78,2.14-18.88,1l6.5-34.84,1.91-10.24.06-.33,1.9-10.11.43-2.32h0v-.05c0-.23.09-.45.12-.68.12-.67.24-1.34.34-2a69.89,69.89,0,0,0,.47-20.6c-2-14.1-8.74-19.09-8.74-19.09-.88-.07-1.78-.19-2.64-.31-22.08-3.16-38.08-22.79-38.08-45.09V63.71c.22.73.48,1.45.73,2.16a58.33,58.33,0,0,0,5.78,11.53c.37.57.75,1.14,1.13,1.68.57.82,1.13,1.62,1.72,2.39.45.6.92,1.2,1.38,1.77l1,1.26c.43.5.86,1,1.29,1.48.63.69,1.25,1.36,1.85,2a.17.17,0,0,0,.06.06c.63.66,1.25,1.28,1.85,1.86a.53.53,0,0,0,.12.1c.32.32.65.63,1,.93.64.6,1.26,1.14,1.86,1.66.29.27.58.51.87.75l.14.12.67.56c1.25,1,2.31,1.82,3.09,2.37.2.16.39.29.55.4l.23.16.6.4s0,0,.06,0h0a.53.53,0,0,1,0-.18V97a8.81,8.81,0,0,1,8.82-8.82,9,9,0,0,1,8.62,7.06.13.13,0,0,1,0,.1,7.85,7.85,0,0,1,.11.81,6.06,6.06,0,0,1,0,.85v0c0,.16,0,.34,0,.5a.62.62,0,0,1,0,.18,1.62,1.62,0,0,1,0,.31c0,.22,0,.43-.1.64v0c0,.25-.12.52-.19.76,0,0,0,0,0,.06-.06.2-.12.41-.2.61s-.07.19-.11.28-.15.35-.24.51l-.08.16-.22.41c-.08.13-.14.24-.23.36l-.28.4-.14.16a6.06,6.06,0,0,1-.47.56,6.82,6.82,0,0,1-1.18,1.09l-.66.45c-.23.14-.47.27-.71.39a9.5,9.5,0,0,1-1.51.6h0a7.46,7.46,0,0,1-1.62.3c1.89,1.77,3.76,3.57,5.62,5.38s3.7,3.62,5.54,5.44c.83.82,1.68,1.58,2.51,2.25.29.24.6.48.89.7l1,.72a.41.41,0,0,1,.13.08c.38.27.76.51,1.14.74s.81.48,1.21.7.71.4,1.06.56.76.37,1.13.53c.64.29,1.27.54,1.92.77l.35.13c.37.14.73.25,1.1.36h0a11,11,0,0,0,1.12.33c.37.12.75.2,1.11.29s.75.18,1.11.25l.24.06c.67.13,1.33.26,2,.36l1.16.19c.6.09,1.21.18,1.82.25l2.08.27,1.38.18c1.08.12,2.14.27,3.19.46l.84.15.19,0,.93.19a27.55,27.55,0,0,1,4,1.21c.32.13.63.26,1,.41h0l.86.42a19.46,19.46,0,0,1,8.51,9.47c.06.12.11.26.18.39a1.17,1.17,0,0,0,0,.11c.14.33.33.75.57,1.23l0,0,.27.49c.06.11.12.23.19.34A28.07,28.07,0,0,0,1136,150.62Z"/><path class="cls-37" d="M1130.75,379.25a50.92,50.92,0,0,0,3.41,7.77l27.44-21.09a189.06,189.06,0,0,1,11.64,32l-19.58,12.11s-.33-.22-.94-.68a73.09,73.09,0,0,0,14,8.95S1134.08,410.72,1130.75,379.25Z"/><path class="cls-58" d="M1179.61,546.73c-1.58,6-2.93,9.88-3,10.26h0l0,0a.59.59,0,0,0-.06-.14c-3-6.85-8.73-10.93-15.84-13.06-12.14-3.67-28.42-1.71-42.81,1.74a.13.13,0,0,0-.08,0,191.27,191.27,0,0,0-27.13,8.68l-1.44.61-1,.42-1,.44c-.15.08-.29.14-.43.2l-.76.38a9.09,9.09,0,0,0-.87.47l-.2.11h0v-6.46c-24.72,5.73-48.72,7.88-68.32-5.69l4.61-24.74L1037,435.76l15.75-84.33,0-.06c12.18,1.49,26.61-.33,41.23-3.86.93,1.82,1.92,3.67,3,5.5,14,24.72,46.26,74.94,73.55,117a70.19,70.19,0,0,1,10.6,27.45A142.26,142.26,0,0,1,1179.61,546.73Z"/><path class="cls-52" d="M1179.62,546.73a142.27,142.27,0,0,0,1.52-49.25,70.62,70.62,0,0,0-10.6-27.45c-27.29-42.09-59.58-92.31-73.56-117-1-1.84-2-3.67-2.94-5.49-1-2.09-2-4.16-3-6.23a139,139,0,0,1-6.39-17.3c-8.59-28.95-5.32-60.12,8.2-87.14v0h0l43-86.18c6.68,5.09,15,5.95,23.83,4.79a74.13,74.13,0,0,0,20.74,9.62l19.64,5.61a21.55,21.55,0,0,1,7.32,3.59l0,0h0c.35.26.71.54,1,.83l0,0c6.24,5.21,10.79,13.14,12.8,20.81s6.16,27.93,10.09,47c.14.68.28,1.36.43,2,4.15,20.26,7.84,38.69,7.84,38.69l1.11,5.59c6.31,33.7,20.39,50.18-25.7,82.28l77.3,124Z"/><path class="cls-59" d="M1190,387.55l-29.78,17a25.17,25.17,0,0,0-6.6,5.49c-6.7-5.17-14.53-12.8-19.66-22.93a31.17,31.17,0,0,1,8-8l25.93-18Z"/><path class="cls-47" d="M1164.69,245.92l27.86,68.93a11.13,11.13,0,0,1-1.14,10.45l-25.06,33.83,19.94-37a7.74,7.74,0,0,0,.43-5.71Z"/><polyline class="cls-1" points="1151.55 440.74 1143.34 427.84 1128.53 404.62 1124.11 397.68"/><path class="cls-47" d="M1166.69,418.33a61.13,61.13,0,0,1-14.53-6.32,49.9,49.9,0,0,1-9.74-7.67,42,42,0,0,1-9.64-15.28,36.45,36.45,0,0,1-2-9.89,51.09,51.09,0,0,0,3.27,8c5.13,10.13,13,17.76,19.66,22.93A76.89,76.89,0,0,0,1166.69,418.33Z"/><path class="cls-38" d="M1094,347.52c-19.6,4.65-33,4.8-41.26,3.9l.8-4.31h0l12.31-65.87,8.11-43.43c8.1,1.13,13.4.81,18.87-1l0,.06c-13.51,27-16.78,58.18-8.19,87.13a140.25,140.25,0,0,0,6.39,17.31C1092,343.36,1093,345.43,1094,347.52Z"/><polygon class="cls-38" points="1053.58 347.11 1065.91 281.24 1053.6 347.11 1053.58 347.11"/><path class="cls-37" d="M1338.62,137.24c-21.85,30.32-66.63,37.68-99.21,21.3-3.23-1.53-6.2-2.91-9-4.17a74.72,74.72,0,0,0-53.63-3.1c-18.94,6.14-40,9.51-49.75-12.56a19.17,19.17,0,0,0-9.37-9.89c-10.12-4.59-22.56-.28-34.61-12.17-3.7-3.64-7.39-7.29-11.18-10.83a8.82,8.82,0,1,0-9.59-8.79,2.11,2.11,0,0,0,0,.36h0s0,0-.06,0c-1.83-1.19-33.91-22.61-27.48-58.41a60.91,60.91,0,0,1,2.57-9.59c10.9-27.41,50.08-40.77,98.5-11.2,58.83,35.94,84.47-17,120.7,2.87,19.29,13.88,2.22,20.37,12.4,40.17C1283.7,100.67,1370.78,76,1338.62,137.24Z"/><path class="cls-60" d="M1039,112.83s7,3.46,15.47-6.85"/><path class="cls-61" d="M1016.82,544.76v.09a.75.75,0,0,1-.15-.09Z"/><path class="cls-52" d="M921.09,941.42h23.29v-1.71H924.11C923.12,940.29,922.12,940.85,921.09,941.42Z"/><path class="cls-52" d="M931,935.48H953.3v-1.71H933.59Z"/><path class="cls-52" d="M939.7,929.52h22.55v-1.71H942Z"/><path class="cls-56" d="M1210.92,976H1075.45s0-.2,0-.53,0-.46.07-.75a20.94,20.94,0,0,1,.59-4.3,16.85,16.85,0,0,1,.52-1.71,26.92,26.92,0,0,1,3.15-6.38,2.07,2.07,0,0,0,.17-.24,25.19,25.19,0,0,1,4.56-5.26l0,0a11.18,11.18,0,0,1,.87-.74A32.14,32.14,0,0,1,1098,950a72.4,72.4,0,0,0,10.18-3.52c.86-.37,1.72-.75,2.57-1.14s1.85-.87,2.75-1.31l.28-.14c1.58-.78,3.12-1.61,4.65-2.43h0c1-.57,2-1.12,3-1.7,2.36-1.38,4.66-2.83,6.86-4.25.44-.26.88-.55,1.31-.84s.87-.57,1.29-.86c2.21-1.46,4.27-2.92,6.1-4.23h0c.82-.61,1.61-1.17,2.34-1.71h0c2.43-1.82,4.4-3.37,5.76-4.47a9.79,9.79,0,0,1,5.86-2.16,23.93,23.93,0,0,1,6,.48c.24.05.49.1.76.18a5.83,5.83,0,0,1,.77.2,6.41,6.41,0,0,1,1.08.34c.31.1.61.21.91.34s.36.13.53.21l1.17.56.4.23a8.61,8.61,0,0,1,.83.49c.27.18.53.34.81.54l.44.33c.26.19.51.41.75.61s.58.53.87.81.58.6.87.93h0a7.37,7.37,0,0,0,6.94,2.52l13-2.55,2.33-.46,1.24-.25.21,0,8.59-1.69h.08l2.48-.5h0a3.71,3.71,0,0,1,4.37,3.24c.92,7.78,1.63,13.78,2.19,18.89a4,4,0,0,1,.05.61c0,.36.09.74.13,1.1.39,3.61.7,6.78,1,9.81.25,2.74.47,5.38.64,8.2.06.57.08,1.16.12,1.75,0,.21,0,.41,0,.62l.1,1.71.06,1.39,0,.34Z"/><path class="cls-52" d="M1210.63,970.4h-134.5a16.85,16.85,0,0,1,.52-1.71H1150c-.45-.81-.92-1.62-1.44-2.37-.35-.56-.73-1.11-1.13-1.64a39.59,39.59,0,0,0-6.73-7.2c-.26-.23-.53-.44-.8-.65a40.45,40.45,0,0,0-3.37-2.44,3.62,3.62,0,0,0-.38-.26c-9.54-6.1-20.14-8.15-25.41-8.82.93-.42,1.85-.88,2.75-1.32a63.5,63.5,0,0,1,23.52,8.69h10.64a49.72,49.72,0,0,0,9.43-.9c.92-.16,1.84-.36,2.74-.59l1-.24,11-2.79c.32-.08.62-.16.93-.22a51.47,51.47,0,0,1,11.65-1.33h24.26a3.94,3.94,0,0,1,.05.6c0,.37.09.75.13,1.1h-24.44a49.55,49.55,0,0,0-10.87,1.22c-.43.09-.85.2-1.28.3l-12,3a48.68,48.68,0,0,1-10.18,1.49c-.79.06-1.59.08-2.39.08h-8.12c.57.41,1.16.85,1.7,1.31.1.09.22.17.32.25a8.67,8.67,0,0,1,.73.63,2.32,2.32,0,0,1,.25.21,7.76,7.76,0,0,1,.79.72,35,35,0,0,1,3.24,3.31c.39.41.74.86,1.09,1.31a4.61,4.61,0,0,1,.4.5,16,16,0,0,1,1,1.32,7,7,0,0,1,.46.65c.39.56.76,1.13,1.1,1.72.48.75.93,1.56,1.35,2.37h58.64Z"/><path class="cls-52" d="M1118.39,941.42h23.28v-1.71h-20.26C1120.42,940.29,1119.41,940.85,1118.39,941.42Z"/><path class="cls-52" d="M1128.27,935.48h22.33v-1.71h-19.72C1130,934.33,1129.16,934.91,1128.27,935.48Z"/><path class="cls-52" d="M1137,929.52h22.55v-1.71h-20.21C1138.6,928.36,1137.81,928.92,1137,929.52Z"/><path class="cls-61" d="M1087.79,555.5c.49-.23,1.07-.48,1.68-.73C1088.86,555,1088.28,555.27,1087.79,555.5Z"/><path class="cls-61" d="M1089.47,554.77c.73-.32,1.53-.65,2.39-1C1091,554.12,1090.2,554.46,1089.47,554.77Z"/><path class="cls-62" d="M1030.27,472h0"/><path class="cls-62" d="M1178.32,486h0"/><path class="cls-38" d="M1208.61,175.1c-33.3,21.65-71.91,93.66-72.29,94.37l-1.11-.58c.38-.73,38.82-72.65,72.34-94.62h0C1207.91,174.53,1208.27,174.81,1208.61,175.1Z"/><path class="cls-38" d="M1175.77,281.37l.37,1.19a163.05,163.05,0,0,1-21.91,5.63l-.2-1.25A165.2,165.2,0,0,0,1175.77,281.37Z"/><path class="cls-38" d="M1232,245c-11.6,19.07-34.8,30.39-52.85,36.61l-.48-1.16c18.05-6.21,41.29-17.53,52.58-36.69a7.62,7.62,0,0,0,.32-.79C1231.66,243.61,1231.8,244.29,1232,245Z"/><path class="cls-38" d="M1136.14,309.15,1091.41,342c-.11-.26-.23-.5-.34-.75s-.13-.29-.19-.44l44.51-32.71Z"/><path class="cls-38" d="M1250.38,427.94c-15.54,44.37-59.8,62.66-69.84,66.29-.07-.41-.16-.83-.26-1.23,10.25-3.76,54.24-22.11,69.24-66.44l.49.78v0l.34.54Z"/><path class="cls-38" d="M1219.05,377.7c-9.44,7.92-41.61,36.24-62.23,71.13-.26-.39-.51-.79-.77-1.19,20.83-35,53.06-63.27,62.33-71l.07.1h0Z"/><polygon class="cls-38" points="1259.86 499.17 1259.86 510.31 1258.6 510.89 1258.6 499.17 1259.86 499.17"/><path class="cls-38" d="M1079.7,207.42l-1.73,9.21h0c-4.82,13-12.1,25.39-23.06,34.37a53.45,53.45,0,0,1-15,8.81l.1-1.41a53.28,53.28,0,0,0,14.22-8.44C1067.36,239.13,1075.13,223.17,1079.7,207.42Z"/><polygon class="cls-38" points="1048.68 373.36 1048.29 375.43 1028.7 393.4 1028.84 391.55 1048.68 373.36"/><path class="cls-37" d="M1036.31,63.71A58,58,0,0,0,1044,79.08,57.06,57.06,0,0,1,1036.31,63.71Z"/><path class="cls-37" d="M1044,79.08c1,1.48,2,2.86,3.11,4.16Q1045.46,81.29,1044,79.08Z"/><path class="cls-37" d="M1051.29,88c.63.66,1.25,1.27,1.85,1.86C1052.54,89.3,1051.93,88.7,1051.29,88Z"/><path class="cls-37" d="M1071.87,105.81a8.7,8.7,0,0,0,3.17-.88,8.42,8.42,0,0,1-3.15.89Z"/><path class="cls-37" d="M1077.59,103a6.45,6.45,0,0,1-1.18,1.09A7.63,7.63,0,0,0,1077.59,103Z"/><path class="cls-37" d="M1079.89,97.75a5.17,5.17,0,0,0,0-.68c0,.16,0,.34,0,.5A.52.52,0,0,1,1079.89,97.75Z"/><path class="cls-63" d="M961.57,201.92v36.67a1.42,1.42,0,0,1-2.45,1l-3.48-3.71a4,4,0,0,0-2.94-1.28H908.51a4,4,0,0,1-4-4V201.92a3.83,3.83,0,0,1,.54-2l27.22,21.28a1.21,1.21,0,0,0,1.55,0L961,199.92A3.78,3.78,0,0,1,961.57,201.92Z"/><path class="cls-64" d="M933,218.62l-26.08-20.4a4.09,4.09,0,0,1,1.6-.33h49a4.12,4.12,0,0,1,1.55.32Z"/><path class="cls-65" d="M948.81,126a10.67,10.67,0,0,1-3.69-3.08,11,11,0,0,1-1.82-3.85,4.14,4.14,0,0,1,.64-3.45,27.65,27.65,0,0,0,5.46-19.06,27.83,27.83,0,1,0-30.54,30.08A27.66,27.66,0,0,0,933,124.35a4.09,4.09,0,0,1,3.2,0,37.94,37.94,0,0,0,12.29,2.78A.63.63,0,0,0,948.81,126Zm-11.26-16.57a.2.2,0,0,1-.21,0,84.73,84.73,0,0,1-9.35-7.17c-1.46-1.31-2.93-2.59-4.31-4-.4-.39-.79-.78-1.16-1.19-.11,2.65-.21,5.31-.31,8v.1a1.25,1.25,0,0,1-1.29,1.19,1.2,1.2,0,0,1-.86-.41c-2.56-2.78-5.17-5.54-7.69-8.36s-5.11-5.61-7.61-8.45a.18.18,0,0,1,0-.26.17.17,0,0,1,.25,0c2.84,2.5,5.63,5.06,8.45,7.6,2,1.83,4.07,3.71,6.09,5.58-.12-3.09-.24-6.19-.42-9.28a1.74,1.74,0,0,1,1.65-1.84,1.67,1.67,0,0,1,1.25.43l.17.13c1.46,1.31,2.89,2.63,4.26,4s2.66,2.84,3.95,4.31a80.9,80.9,0,0,1,7.19,9.34A.21.21,0,0,1,937.55,109.41Z"/><path class="cls-66" d="M1199.53,925c-1.15.22-9.22,1.79-10.12,2-5.09.2-18.44,6.2-22.25.49a18.06,18.06,0,0,0-10.21-5.78c-15.06-56.09-34.17-132.3-48-194.16-12.57-55.63-25.15-115.69-24-170.61l.2-.11a9.09,9.09,0,0,1,.87-.47l.76-.38.51-.24c.32-.17.66-.3,1-.44s.56-.24.85-.38l1.44-.61a191.27,191.27,0,0,1,27.13-8.68.13.13,0,0,1,.08,0c14.39-3.45,30.67-5.41,42.81-1.74,7.11,2.13,12.8,6.21,15.84,13.06a.59.59,0,0,1,.06.14v0a582,582,0,0,0,5.42,143.4C1188.94,743.21,1195.92,812.6,1199.53,925Z"/><path class="cls-67" d="M1176.57,557h0l0,0a.59.59,0,0,0-.06-.14l0,.08s0,0,0,0Z"/><path class="cls-52" d="M1039.84,260.35l-1,14.87L1032,351.85l-98,4.46s.72-2.13,1.66-5.52c2.12-7.7,5.35-22,3.91-33.25a29.72,29.72,0,0,0-1.46-6.31l45.2-4.76,1.54-.17,22.31-2.35C1024.65,302.1,1038.39,277.92,1039.84,260.35Z"/><path class="cls-47" d="M1038.44,280.23,1032,351.85l-20.52.93S1032.79,343.07,1038.44,280.23Z"/><polygon class="cls-38" points="1001.31 324.91 1000.37 325.74 983.26 306.47 984.8 306.3 1001.31 324.91"/><path class="cls-47" d="M1085,550.45c-.25-6.55-.4-13.1-.5-19.65s-.15-13.11-.1-19.67.15-13.12.42-19.68.63-13.13,1.29-19.71l3.37.42c-.93,6.43-1.57,12.93-2.12,19.44s-.93,13-1.26,19.58-.57,13.08-.75,19.62S1085,543.9,1085,550.45Z"/></g></svg>