<svg class="mt-1 mr-2" width="20px" height="20px" viewBox="0 0 16 16" version="1.1" xmlns="http://www.w3.org/2000/svg" xmlns:xlink="http://www.w3.org/1999/xlink">
    <g id="Molecules/Icons/16px/All-&amp;-Divers/Box/Check" stroke="none" stroke-width="1" fill="none" fill-rule="evenodd">
        <path d="M11.6657714,4.26383724 C11.8378593,4.04611078 12.1538663,4.00911346 12.3715928,4.18120139 C12.5695259,4.33764496 12.6180961,4.61302991 12.4959991,4.82538808 L12.4542286,4.88702276 L7.20532325,11.5278131 C6.96973404,11.8379296 6.59882187,12.0151059 6.2095414,12.0034754 C5.85565007,11.9929022 5.52622769,11.8274749 5.31158922,11.5617739 L5.25073151,11.47911 L3.60923151,9.14951998 C3.44937823,8.9226588 3.50369885,8.6091648 3.73056002,8.44931151 C3.93679745,8.30399034 4.21463227,8.33567241 4.38354338,8.51307794 L4.43076849,8.57064002 L6.07906694,10.9101273 C6.11507572,10.9639155 6.17485462,10.9969906 6.23955437,10.9989236 C6.28807919,11.0003734 6.33488676,10.9841717 6.3742676,10.9510213 L6.41096139,10.9122472 L11.6657714,4.26383724 Z" id="Shape" fill="#006DFF"></path>
    </g>
</svg>