<svg xmlns="http://www.w3.org/2000/svg" xmlns:xlink="http://www.w3.org/1999/xlink" viewBox="0 0 498.71 1122.23"><defs><style>.cls-1{fill:#fe6a28;}.cls-2{fill:#f14b01;}.cls-3{fill:url(#Dégradé_sans_nom_25);}.cls-4{fill:#27292f;}.cls-5{fill:#ff9865;}.cls-6{fill:#6c63ff;}.cls-7{fill:#444053;}.cls-8{opacity:0.1;isolation:isolate;}.cls-9{fill:#ffaf0d;}.cls-10{fill:#ed9f00;}.cls-11{fill:url(#Dégradé_sans_nom_25-2);}.cls-12{fill:url(#Dégradé_sans_nom_8);}.cls-13{fill:url(#Dégradé_sans_nom_8-2);}.cls-14{fill:#f8f7f6;}.cls-15{fill:url(#Dégradé_sans_nom_8-3);}.cls-16{fill:url(#Dégradé_sans_nom_8-4);}.cls-17{fill:#dc0010;}.cls-18{fill:#f7f6f5;}.cls-19{fill:none;}.cls-19,.cls-21,.cls-22,.cls-23,.cls-24,.cls-25{stroke:#27292f;stroke-miterlimit:10;}.cls-20{fill:#fff;}.cls-21,.cls-22,.cls-23,.cls-24,.cls-25{stroke-width:0.75px;}.cls-21{fill:url(#Dégradé_sans_nom_25-3);}.cls-22{fill:url(#Dégradé_sans_nom_25-4);}.cls-23{fill:url(#Dégradé_sans_nom_25-5);}.cls-24{fill:url(#Dégradé_sans_nom_25-6);}.cls-25{fill:url(#Dégradé_sans_nom_25-7);}</style><linearGradient id="Dégradé_sans_nom_25" x1="295.18" y1="449.98" x2="319.51" y2="449.98" gradientUnits="userSpaceOnUse"><stop offset="0" stop-color="#f8f7f6"/><stop offset="0" stop-color="#ff2738"/><stop offset="0.3" stop-color="#fc2738"/><stop offset="0.53" stop-color="#f22738"/><stop offset="0.75" stop-color="#e12738"/><stop offset="0.95" stop-color="#ca2738"/><stop offset="1" stop-color="#c22738"/></linearGradient><linearGradient id="Dégradé_sans_nom_25-2" x1="409.21" y1="564.4" x2="466.73" y2="564.4" xlink:href="#Dégradé_sans_nom_25"/><linearGradient id="Dégradé_sans_nom_8" x1="54.03" y1="884.14" x2="200.19" y2="884.14" gradientUnits="userSpaceOnUse"><stop offset="0" stop-color="#f7f6f5"/><stop offset="0" stop-color="#ff2738"/><stop offset="0.3" stop-color="#fb2738"/><stop offset="0.53" stop-color="#f12738"/><stop offset="0.75" stop-color="#e02738"/><stop offset="0.95" stop-color="#c92738"/><stop offset="1" stop-color="#c12738"/></linearGradient><linearGradient id="Dégradé_sans_nom_8-2" x1="-163.35" y1="738.61" x2="-17.19" y2="738.61" gradientTransform="matrix(-0.36, -0.93, -0.93, 0.36, 944.07, 645.65)" xlink:href="#Dégradé_sans_nom_8"/><linearGradient id="Dégradé_sans_nom_8-3" x1="363.34" y1="621.91" x2="406.71" y2="621.91" xlink:href="#Dégradé_sans_nom_8"/><linearGradient id="Dégradé_sans_nom_8-4" x1="357.46" y1="584.57" x2="415.35" y2="584.57" xlink:href="#Dégradé_sans_nom_8"/><linearGradient id="Dégradé_sans_nom_25-3" x1="326.06" y1="420.05" x2="348.05" y2="420.05" gradientTransform="translate(13.76 19.4) scale(0.85 1)" xlink:href="#Dégradé_sans_nom_25"/><linearGradient id="Dégradé_sans_nom_25-4" x1="326.21" y1="395.84" x2="339.37" y2="395.84" gradientTransform="translate(347.58 -93.41) rotate(43.52)" xlink:href="#Dégradé_sans_nom_25"/><linearGradient id="Dégradé_sans_nom_25-5" x1="318.39" y1="413.98" x2="340.38" y2="413.98" gradientTransform="translate(-27.99 19.62)" xlink:href="#Dégradé_sans_nom_25"/><linearGradient id="Dégradé_sans_nom_25-6" x1="317.99" y1="407.91" x2="339.98" y2="407.91" gradientTransform="translate(-23.7 21.02)" xlink:href="#Dégradé_sans_nom_25"/><linearGradient id="Dégradé_sans_nom_25-7" x1="317.59" y1="401.83" x2="339.58" y2="401.83" gradientTransform="translate(-19.41 22.41)" xlink:href="#Dégradé_sans_nom_25"/></defs><g id="Part._Fusée" data-name="Part. Fusée"><path class="cls-1" d="M266.17,339.48c-39.07,16.89-92.52-4.35-119.71-34.11-28.14-30.79-31.72-82.38-1.58-113.28,1.08-1.11,2.18-2.18,3.35-3.26a69.25,69.25,0,0,1,17.87-11.59c31-13.86,67.36-3,90.24,24.31a84.65,84.65,0,0,1,5.68,7.52c.86,1.25,1.69,2.55,2.49,3.88a92.22,92.22,0,0,1,5.54,10.5c.89,2,1.8,4.05,2.64,6.14.1.16.13.35.22.53A251.53,251.53,0,0,1,286,268.85c1,4.1,1.81,8.13,2.4,12.15.44,2.77.78,5.53,1,8.25,1.05,12.19-.13,23.43-4.63,32.58-.45.91-.95,1.76-1.45,2.66l-.25.4a35,35,0,0,1-8,9.12A40.2,40.2,0,0,1,266.17,339.48Z"/><path class="cls-2" d="M292.05,214.13a35.43,35.43,0,0,1-9.67,12.16,40.5,40.5,0,0,1-8.95,5.54c-.56.24-1.14.48-1.72.74a59.94,59.94,0,0,1-14.14,3.54c-.45.06-.93.13-1.4.17-1.08.16-2.19.27-3.26.32-39.14,2-82.53-13.86-106.16-46.37l2-1.66,98.07,30.15,29.48-38.54L265.29,96c.13.16.26.31.38.47a93.58,93.58,0,0,1,11.6,19.3c6.41,14.26,12.36,30.05,16,45.38.77,3.23,1.44,6.44,2,9.61.15.85.27,1.7.39,2.54.25,1.55.44,3.11.63,4.64.16,1.23.26,2.42.37,3.62C297.73,193.74,296.55,205,292.05,214.13Z"/><path class="cls-1" d="M100.11,1044.35s-.31,46.08-32.13,38.54c0,0-5.76.69-8-4.63,0,0,2.39.08,1.9-4.6a21.53,21.53,0,0,1,.09-5,10.52,10.52,0,0,1,2.93-5.94h0s6.19-12.54,27.62-16.19c0,0,4.86-3.41,6-3.18l-3.82,7.53s-5.42-3-10.2-1.26c0,0,10,.92,9.67,2.41,0,.29-2.2,3.86-2.2,3.86s-9.43-5.21-16.74-2.24c0,0,12.06-.51,15.94,3.62l-3.55,5.3s-9.71-6-18.15-2.93c0,0,12.65-.08,17.3,4l-4.2,4.73S73,1062.74,66,1065.27c0,0,14.62,1.38,15.56,4,0,0-4.1,4.07-5.71,4.63,0,0-7-3.91-10.89-2,0,0,9.68,2,9.65,3,0,0-6.76,3.88-11.22,4,0,0,6.61.25,11.77-2.94,0,0-1,4.11-3.86,6.37,0,0,4.62-.37,5.5-7.33,0,0,5.15-3.24,5.51-4.16,0,0,.12,7-2,11.07,0,0,4.56-3.42,3.19-12.28l4.31-4.61s.65,9.23-1,13c0,0,4.11-4.21,2-14.28l3.53-5.1s1.16,7.92.24,12.53c0,0,3-4.74.72-14l2-3.72s.74,5.79.8,7.48.52,1.79.52,1.79a19.87,19.87,0,0,0-.47-10.81S99.61,1044.15,100.11,1044.35Z"/><path class="cls-1" d="M43.69,784.21s-23.7-10.67-27.3,7.41a4.45,4.45,0,0,0,.49,5.19s.48-1.26,2.81.11A11.93,11.93,0,0,0,22.28,798a5.81,5.81,0,0,0,3.73-.1h0s7.88-.22,14.77-10.37c0,0,2.88-1.69,3-2.34l-4.76.19s.27,3.48-1.76,5.52c0,0,1.88-5.35,1-5.53-.16-.06-2.52.22-2.52.22s.45,6-2.78,9.1c0,0,3.1-6.07,1.88-9l-3.51.59s.78,6.37-2.73,10c0,0,3-6.47,2-9.82l-3.38,1s.66,6.24-2.32,9.22c0,0,2.73-7.82,1.56-8.94a16.85,16.85,0,0,0-3.69,1.81s.36,4.48-1.52,6.07c0,0,1.27-5.42.71-5.66,0,0-3.57,2.55-4.69,4.8a13.18,13.18,0,0,1,4.27-5.34,7.27,7.27,0,0,0-4.17.49s1.26-2.29,5-1.1c0,0,2.85-1.88,3.43-1.85,0,0-3.55-1.69-6.16-1.55,0,0,2.83-1.54,7,1.24l3.38-1.13s-4.58-2.5-6.9-2.54c0,0,3.12-1.12,7.78,2.33l3.44-.62a27.17,27.17,0,0,0-6.33-3s3.12-.41,7.36,2.93l2.36-.18s-2.8-1.74-3.64-2.17-.81-.69-.81-.69a11.18,11.18,0,0,1,5.44,2.79S43.67,784.47,43.69,784.21Z"/><path class="cls-1" d="M68.63,729.61S55.15,701.27,37.71,715.1a5.36,5.36,0,0,0-3.6,5.15s1.46-.73,2.5,2.3a14,14,0,0,0,1.49,3.06,7,7,0,0,0,3.52,2.82h0s7.44,6,21.66,2c0,0,4,.71,4.68.2l-4.53-3.54s-2.46,3.43-5.94,3.72c0,0,5.9-3.46,5.27-4.27-.1-.18-2.48-1.77-2.48-1.77S56,730.73,50.6,731c0,0,7.6-3.17,8.8-6.83L55.71,722s-4.27,6.5-10.36,7c0,0,7.83-3.59,9.51-7.47l-3.93-1.68s-4.28,6.26-9.35,6.67c0,0,8.63-5.07,8.42-7,0,0-3.7-1.33-4.86-1.2,0,0-3.17,4.42-6.13,4.4,0,0,5.4-4,5.07-4.65,0,0-5.28-.45-8.08.75a16.06,16.06,0,0,1,8.12-1.59,8.72,8.72,0,0,0-4.21-2.81s3-1.11,5.5,2.94c0,0,4.1.5,4.6,1,0,0-1.95-4.35-4.45-6.25,0,0,3.8.8,5.5,6.65L55,720.38s-2.26-5.88-4.37-7.74c0,0,3.76,1.41,5.35,8.23L59.62,723s-1.57-5.22-3.46-7.8c0,0,3.19,2.07,4.48,8.45l2.27,1.71s-1.21-3.79-1.64-4.81-.19-1.28-.19-1.28a13.66,13.66,0,0,1,2.82,6.82S68.36,729.86,68.63,729.61Z"/><polygon class="cls-3" points="295.18 466.31 295.18 440.68 319.51 421.64 319.51 465.7 310.76 478.32 295.18 466.31"/><path class="cls-4" d="M181.93,472.61l.29-1a45.21,45.21,0,0,0,39.18-6.41,91.2,91.2,0,0,0,12-11c5.29-5.44,10.76-11.06,17.74-14.37,8.36-4,17.86-4.14,27-4.32,2,0,3.91-.07,5.85-.14,7.27-.28,16.6-1.2,24.26-6,9.34-5.87,14.68-16.79,19-25.56a14.14,14.14,0,0,0,1.51-4.06c.45-3-1.17-6-2.74-8.85l-.43-.8c-2.21-4-6.75-14.17-1.21-21.5a23.25,23.25,0,0,1,4.22-4c.66-.54,1.32-1.07,1.95-1.63a25.27,25.27,0,0,0,8.3-16.79c.45-5.91-1.24-11.81-2.88-17.52-1.31-4.57-2.67-9.29-3-14.09a33.72,33.72,0,0,1,8.52-24.3A20.44,20.44,0,0,1,350,284.5c8.37-2.69,16.8,2.41,24.66,8.33l-.6.8c-7.64-5.76-15.81-10.73-23.73-8.18a19.33,19.33,0,0,0-8,5.56A32.74,32.74,0,0,0,334,314.59c.29,4.69,1.63,9.36,2.93,13.88,1.66,5.79,3.38,11.78,2.91,17.87a26.22,26.22,0,0,1-8.62,17.46c-.65.57-1.32,1.11-2,1.66a23,23,0,0,0-4.05,3.84c-5.32,7.06-.36,17.42,1.29,20.42l.44.8c1.65,3,3.35,6.1,2.84,9.5a15.05,15.05,0,0,1-1.6,4.35c-4.34,8.87-9.75,19.93-19.33,25.95-7.86,4.89-17.36,5.83-24.75,6.11-1.95.07-3.91.11-5.87.14-9.08.18-18.47.36-26.63,4.22-6.82,3.23-12.23,8.79-17.45,14.17A93.46,93.46,0,0,1,222,466.06,46.25,46.25,0,0,1,181.93,472.61Z"/><path class="cls-1" d="M285,347.16a8.2,8.2,0,0,1-.63-1.67,17.57,17.57,0,0,0-2.78-5.45,16.75,16.75,0,0,0-1.41-1.74,27.24,27.24,0,0,0-5-4.32,25.48,25.48,0,0,0-2.73-1.66l8.2-11.19.13-.16,3.56-4.84a37.24,37.24,0,0,0,.52,5.67c.44,2.61,1.23,5.34,2.79,6.08a2.21,2.21,0,0,0,1.5.08,4,4,0,0,0,1.3-.67c.49-.3.91-.62,1.32-.88,4.8-2.81,5.41.61,5.41.61,2.73,2.67,2.31,7.17,1,11.33-.21.62-.42,1.22-.63,1.79a50.57,50.57,0,0,1-4.09,8.24S287.78,353.25,285,347.16Z"/><path class="cls-4" d="M281.57,340.08a16.75,16.75,0,0,0-1.41-1.74c1.87-2.34,4.47-6.07,6.46-9,.15-.2.28-.4.43-.59s.41-.62.62-.89a2.18,2.18,0,0,0,1.51.08L288,329.8l-.46.72Z"/><path class="cls-2" d="M285,347.16a22.28,22.28,0,0,0,5.84-6.43,17.7,17.7,0,0,0,1.6-5,13.77,13.77,0,0,0,.21-1.57,15.5,15.5,0,0,0-.83-7.72c4.79-2.82,5.4.61,5.4.61,2.73,2.67,2.31,7.17,1,11.32-.2.62-.41,1.23-.63,1.79a48.62,48.62,0,0,1-3,6.45,7,7,0,0,1-4.26,3.46C288.5,350.52,286.37,350.21,285,347.16Z"/><path class="cls-5" d="M144.71,209.46s-16.49,15.44-9.15,29.89c0,0,2.4-4.12,5.57-5.81a11.44,11.44,0,0,0,4.15-3.38S141.14,222.16,144.71,209.46Z"/><path class="cls-1" d="M274.43,228.82l-1.72.74a60.37,60.37,0,0,1-14.13,3.55c-.46.06-.93.13-1.4.17-1.08.15-2.19.27-3.26.32-40.15,2-84.75-14.68-107.93-48.88-15.67-23.12-19.05-53.6-8.1-79.39,5.86-13.82,15.71-26.07,28.48-33.95,32.2-19.9,74.72-8.3,98.2,19.48.71.85,1.41,1.71,2.1,2.59a93.47,93.47,0,0,1,11.6,19.31c6.41,14.25,12.37,30.05,16,45.37.77,3.24,1.43,6.44,2,9.62.16.84.28,1.7.4,2.53.24,1.56.44,3.12.62,4.65.16,1.22.27,2.42.38,3.62,1.05,12.19-.13,23.42-4.63,32.57a35.49,35.49,0,0,1-9.68,12.17A39.86,39.86,0,0,1,274.43,228.82Z"/><path class="cls-6" d="M293.23,236.51a8.92,8.92,0,0,1-.63-1.68,17.71,17.71,0,0,0-2.77-5.44,18.26,18.26,0,0,0-1.42-1.74,27.07,27.07,0,0,0-5-4.34,29.11,29.11,0,0,0-2.73-1.65l11.89-16.18a38.3,38.3,0,0,0,.52,5.66c.44,2.61,1.23,5.34,2.78,6.08a2.27,2.27,0,0,0,1.52.08,4.07,4.07,0,0,0,1.29-.67l1.35-.84c4.79-2.81,5.4.61,5.4.61,6.17,6-3.7,21.35-3.7,21.35S296.07,242.58,293.23,236.51Z"/><path class="cls-7" d="M289.83,229.39a18.26,18.26,0,0,0-1.42-1.74c2.19-2.82,5.43-7.46,7.49-10.43a2.27,2.27,0,0,0,1.52.08Z"/><path class="cls-6" d="M293.23,236.51a22.6,22.6,0,0,0,5.84-6.44c1.93-3.55,2.74-10.61,1-14.31,4.8-2.81,5.4.6,5.4.6,6.18,6-3.69,21.36-3.69,21.36S296.07,242.58,293.23,236.51Z"/><path class="cls-8" d="M293.23,236.51a22.6,22.6,0,0,0,5.84-6.44c1.93-3.55,2.74-10.61,1-14.31,4.8-2.81,5.4.6,5.4.6,6.18,6-3.69,21.36-3.69,21.36S296.07,242.58,293.23,236.51Z"/><path class="cls-5" d="M153,98.8s-16.49,15.44-9.15,29.89c0,0,2.4-4.12,5.54-5.85a11.44,11.44,0,0,0,4.15-3.38S149.4,111.5,153,98.8Z"/><path class="cls-2" d="M296.75,170.3c.43,2.79.77,5.55,1,8.27a69.73,69.73,0,0,1-6.4-7c-15.86-19.85-26.21-51.46-26.72-80.62a93,93,0,0,1,13.71,21.89c6.4,14.26,12.36,30.05,16,45.38C295.31,162.26,296.16,166.3,296.75,170.3Z"/><path class="cls-1" d="M334,189.94a35.84,35.84,0,0,1-15.51-1.11,39.63,39.63,0,0,1-9.62-4.33A55.55,55.55,0,0,1,297.38,175c-1.41-1.48-2.72-3-4.08-4.67a1.07,1.07,0,0,0-.25-.32C278,151,268,121.41,266.73,93.49c-.78-16.56,1.12-34.49,9.71-49C284.7,30.57,295.65,18.87,309.91,11S342.68-1.95,359,.74a72,72,0,0,1,41.43,21.79A75.88,75.88,0,0,1,420.26,70.6c1.46,34.75-19.63,65.73-41.89,90.45-1,1.07-1.91,2.1-2.88,3.11C362.6,177.74,348.44,187.88,334,189.94Z"/><path class="cls-7" d="M331.33,197l-14.25.55a21.52,21.52,0,0,0,.62-2.12c3.56.2,9.24.26,12.83.28A2.13,2.13,0,0,0,331.33,197Z"/><path class="cls-5" d="M347.67,10.84s-22.06-4.9-29.85,9.32c0,0,4.76-.35,8,1.28A11.62,11.62,0,0,0,330.91,23S335.16,15.07,347.67,10.84Z"/><path class="cls-2" d="M363.48,171.22l-82.29,46,17.06,121c-14.78-10-24.54-25.6-30.53-42.21a124.68,124.68,0,0,1-6.85-27.48c-1.23-10.62-3.1-20.92-2.33-31.74a91.3,91.3,0,0,1,7.8-31.24c15.66-34.41,55.27-55,92.44-46.83a67.69,67.69,0,0,1,16.34,5.87Z"/><path class="cls-1" d="M332,358.41a1.9,1.9,0,0,1-.13,1.16.25.25,0,0,1,0,.07,2.18,2.18,0,0,1-.42.63,6.81,6.81,0,0,1-.31,1.14h0a7,7,0,0,1-1.42,2.21c-.16.18-.33.35-.5.51a6.81,6.81,0,0,1-.79.65l-.34.25a11.29,11.29,0,0,1-1.1.69c-.4.22-.81.42-1.22.61l-.12.05-.61.26c-.45.19-.9.37-1.36.54-.73.25-1.46.48-2.21.67s-1.49.36-2.21.51c-1.08.22-2.18.39-3.27.53l-.73.09-1.33.14c-.53.05-1,.08-1.35.1a8.14,8.14,0,0,1-.85-.08,5.36,5.36,0,0,1-1.3-.37h0a7.79,7.79,0,0,1-1.72-1.06,4.36,4.36,0,0,1-.46-.41c-.1-.11-.2-.21-.29-.33a2.47,2.47,0,0,1-.21-.27l0-.06c-.79-1.13-1.07-2.68,0-4.73a3.9,3.9,0,0,1,.19-.35,13.25,13.25,0,0,1,1-1.45,18,18,0,0,0,2.95-5.37,17.17,17.17,0,0,0,.62-2.12,28.48,28.48,0,0,0,.59-9.78l20.1.68s-8.43,5.83-7.85,9.37a2,2,0,0,0,.8,1.28,4,4,0,0,0,1.26.7q.83.3,1.47.6c.27.13.52.25.75.39l.15.08a3.79,3.79,0,0,1,.34.2l0,0a3.9,3.9,0,0,1,1.81,2A1.6,1.6,0,0,1,332,358.41Z"/><path class="cls-4" d="M326.11,354.2l-14.25.54a19.81,19.81,0,0,0,.63-2.12c3.54.15,9.25.26,12.83.27A2.09,2.09,0,0,0,326.11,354.2Z"/><path class="cls-2" d="M332,358.87a2.42,2.42,0,0,1-.14.7.25.25,0,0,1,0,.07c-.07.21-.15.43-.24.64-.16.38-.32.76-.49,1.13h0a9.24,9.24,0,0,1-1,1.72,7.21,7.21,0,0,1-.91,1,6.81,6.81,0,0,1-.79.65l-.34.25a11.29,11.29,0,0,1-1.1.69c-.4.22-.81.42-1.22.61-.69.32-1.38.6-2.09.85s-1.46.48-2.21.67-1.47.36-2.21.51c-1.08.22-2.18.39-3.27.53l-.73.09-1.33.14-.68.07c-.22,0-.45,0-.67,0a8.14,8.14,0,0,1-.85-.08,5.36,5.36,0,0,1-1.3-.37h0a5.93,5.93,0,0,1-1.72-1.06,4.36,4.36,0,0,1-.46-.41c-.1-.11-.2-.21-.29-.33a2.47,2.47,0,0,1-.21-.27l0-.06a4.52,4.52,0,0,1,0-4.73,3.9,3.9,0,0,1,.19-.35,22.48,22.48,0,0,0,8.61,1.21c4-.43,10.31-3.73,12.36-7.29l.76.38.15.08a3.79,3.79,0,0,1,.34.2l0,0,.4.27a4,4,0,0,1,1.21,1.28,2.45,2.45,0,0,1,.2.48,1.6,1.6,0,0,1,.05.21A2.34,2.34,0,0,1,332,358.87Z"/><path class="cls-4" d="M188,628.69a67.33,67.33,0,0,0,18.31-49.45c-.5-9-2.88-18-5.17-26.62-1.08-4-2.19-8.24-3.1-12.39-3.62-16.52-2.67-29.4,2.89-39.37,4.09-7.31,10.56-12.83,17.39-18.3,8.61-6.9,17.9-14,28.6-18.06a120.16,120.16,0,0,1,13.9-4.05A125.84,125.84,0,0,0,274,456.66a62.71,62.71,0,0,0,37.05-37.77c3.63-10.45,3.6-20.43-.09-28.09a60.5,60.5,0,0,0-5.18-8.26c-3.86-5.49-7.85-11.17-6.94-17.82a13.2,13.2,0,0,1,5.34-9.16,13.85,13.85,0,0,1,10.88-2l-.2,1a12.77,12.77,0,0,0-10.1,1.86,12.21,12.21,0,0,0-4.93,8.48c-.86,6.25,2.85,11.52,6.77,17.1a61.27,61.27,0,0,1,5.26,8.4c3.8,7.91,3.85,18.16.13,28.86a63.73,63.73,0,0,1-37.64,38.38,125.2,125.2,0,0,1-13.29,3.82,119.09,119.09,0,0,0-13.79,4c-10.56,4-19.78,11.05-28.33,17.9-6.75,5.41-13.14,10.86-17.13,18-5.44,9.75-6.35,22.4-2.79,38.67.9,4.13,2,8.3,3.08,12.34,2.31,8.7,4.7,17.7,5.21,26.83a68.3,68.3,0,0,1-18.56,50.16"/><path class="cls-4" d="M281.32,477.91c-2.84-4.56-2.49-10.57-.64-15,2.45-5.91,7.39-10.41,11.42-13.68.91-.74,1.84-1.47,2.77-2.2,3.65-2.88,7.43-5.86,10.41-9.49,4.92-6,8-14,9.45-24.47,1.33-9.61-.25-16.51-4.68-20.51a26.73,26.73,0,0,0-6.83-4c-2.71-1.24-5.52-2.52-7.64-4.71a17.31,17.31,0,0,1-3.91-7,15.5,15.5,0,0,1-.85-6.63,20.13,20.13,0,0,1,1.67-5.34c.29-.71.59-1.43.85-2.15,1.07-3,1.09-5.36.05-7.13-1.19-2.06-3.56-3-6.07-3.88-.95-.36-1.94-.72-2.85-1.16a10.29,10.29,0,0,1-5.79-6.75c-.57-2.66,1-4.52,2.68-6.48.33-.38.66-.77,1-1.18l.78.63-1,1.2c-1.64,1.92-2.93,3.44-2.47,5.59a9.25,9.25,0,0,0,5.24,6.08c.88.43,1.84.78,2.78,1.13,2.56.94,5.19,1.88,6.59,4.32,1.19,2,1.19,4.72,0,8-.27.74-.57,1.47-.87,2.19a19.74,19.74,0,0,0-1.6,5.07,14.5,14.5,0,0,0,.81,6.22,16.54,16.54,0,0,0,3.68,6.63c2,2,4.59,3.23,7.34,4.49a27.09,27.09,0,0,1,7.08,4.15c4.69,4.24,6.38,11.43,5,21.39-1.47,10.68-4.63,18.85-9.68,25a67.27,67.27,0,0,1-10.56,9.63c-.93.73-1.85,1.46-2.76,2.2-3.94,3.19-8.76,7.58-11.13,13.28-2,4.87-2.16,11.73,2.11,16.07l-.71.7A12.17,12.17,0,0,1,281.32,477.91Z"/><path class="cls-9" d="M330,637.42l-23-45.86c-9.84-19.67-16.65-41.48-16-63.47l1.9-62.54s12.61,5.61,29.08-.76v56c0,21.57,3.25,42.81,13.3,61.89l18.7,35.49"/><path class="cls-10" d="M451.19,587.72a41.25,41.25,0,0,1,14.32-22.25l.64,13.13Z"/><path class="cls-11" d="M431,562.47,453.74,587l13-17.11-20.36-20.25s-16.16-17.57-37.16,0"/><polyline class="cls-12" points="54.03 912.59 58.43 939.73 77.3 936.56 200.19 861.79 182.96 828.56 60.58 908.31"/><polyline class="cls-13" points="288.46 1076.06 261.58 1081.8 257.69 1063.06 282.8 921.42 322.69 932.3 290.07 1068.4"/><path class="cls-10" d="M437.93,730.41s-17.67,8.34-34,6.93l1.66-5.55Z"/><path class="cls-14" d="M322.64,722.91c1.05-2.78,20-35,12.48-44.25-7.82-9.59-3.26-35.11-3.26-35.11s15.31-15.82,18.46-19.66,22.07-6,22.07-6q-1.53,1.8-2.73,3.47a35.4,35.4,0,0,0-5.13,9.53S355.4,657.55,387.85,656a23.78,23.78,0,0,0,2.41-.57L404,656.66l8.6.76s-7.62,67.75-7,73.25a8.1,8.1,0,0,1-.41,3.05c-1.72,6.3-9.34,20.48-9.34,20.48l-40.08,3.24"/><path class="cls-9" d="M355.62,684.72c5.35,4.47,10.91,8.7,16.61,12.72L364,733.92l-44.43-11.75s16.71-30.82,12.2-46.13C315,655.93,330,637.42,330,637.42l-22.79-32.83,36.69-1.37.94.17h0c.57.37,19.56,13,23.87,11.71s6.18-6.13,6.18-6.13c.3,7.94-5,18.26-13.88,21.23-9.93,3.33-18.33,6.51-23.25,16.62a22.84,22.84,0,0,0-2.44,12.31,24.15,24.15,0,0,0,6.1,12.8C345.57,676.69,350.83,680.71,355.62,684.72Z"/><path class="cls-1" d="M397.76,754.6l-81.1,280.5c-52.25,1.33-67.11-18.67-67.11-18.67l57-201.59L127.11,926.41c-32.6-25.52-35.63-55.21-35.63-55.21L322.64,722.91"/><path class="cls-2" d="M329.16,748.51a15.26,15.26,0,0,1-6.42,2.72,16.82,16.82,0,0,1-6.78-.18l-1.62-.47a16.33,16.33,0,0,1-1.56-.62,21.34,21.34,0,0,1-3-1.55c-.94-.57-1.8-1.27-2.7-1.9l-2.46-2.2,2.61,2c.94.56,1.84,1.18,2.8,1.68a21.06,21.06,0,0,0,3,1.28c.51.15,1,.38,1.53.48l1.57.33a15.73,15.73,0,0,0,6.27-.3,14.4,14.4,0,0,0,2.91-1.1,12.71,12.71,0,0,0,2.51-1.66Z"/><path class="cls-2" d="M367.44,763.07a12.87,12.87,0,0,0,.17,3,15,15,0,0,0,.86,3,15.57,15.57,0,0,0,3.51,5.2l1.2,1.06a13.52,13.52,0,0,0,1.3.95,22.28,22.28,0,0,0,2.81,1.62c1,.47,2,.82,3,1.24l3.16.91-3.23-.67c-1-.34-2.12-.61-3.14-1a22.51,22.51,0,0,1-3-1.45,14.08,14.08,0,0,1-1.43-.88l-1.34-1a16.75,16.75,0,0,1-4.21-5.33,15.2,15.2,0,0,1-1.65-6.76Z"/><path class="cls-9" d="M498.71,609.23c.07,8.43-5.51,13.47-11.8,17.58-1.81,1.18-3.68,2.28-5.49,3.37l-20.75,12.43-19.86,11.91c-.73.44-9.09,4.62-9,5.41l3.27,37.43.09,1.1,2.79,31.95c-9.58,2.89-46.21,1.8-46.21,1.8l-26.9-1.83-1-.07-2.43-.17,1.8-34.73s1.22-1,3.09-2.34l.82-.57c2.76-1.91,6.49-4.6,10-5.2,7.05-1.2,13.87-8.13,12.51-26.65-.75-10.44,2.81-17.61,6.06-21.88a43.24,43.24,0,0,0,7.09-14.12l4-16.65,11.35,2.61a20.63,20.63,0,0,1,8.1,3.85,20.41,20.41,0,0,0,7.4,3.68c.33.09.65.17,1,.24,5.57,1.19,11.28-.36,16.41-3.43l9.22-5.52c4.59-2.75,5.35-8.17,1.34-12.29l-10.32-9.41s12.64-12.67,14.32-22.26l10.74,11.64c2.82,3,5.74,6,8.47,9.18,3.16,3.61,6.86,6.79,9.64,10.76A21.92,21.92,0,0,1,498.71,609.23Z"/><path class="cls-10" d="M373.09,696.84l-8.25,33.54-.87,3.54-1-.22.84-3.39,8.14-33-5.72-4.15,0,0,.81-.57Z"/><path class="cls-15" d="M406.71,608l-4,16.65a43.24,43.24,0,0,1-7.09,14.12,30.48,30.48,0,0,0-6.08,16.89c-.41.11-1,.24-1.71.38-32.46,1.51-23.32-25.12-23.32-25.12a35.2,35.2,0,0,1,5.13-9.52c.3-.42.62-.84,1-1.28a12.81,12.81,0,0,0,2.48-3.24,15.36,15.36,0,0,0,1.63-5.18,20,20,0,0,0,.17-4.16q-.06-1.21-.21-2.4a43.12,43.12,0,0,0-3.8-12.36s33.89-9.56,30.89-2.39c-1.2,2.9,0,7.29,1.82,11.49A61.25,61.25,0,0,0,406.71,608Z"/><path class="cls-16" d="M414.86,583.9a28.94,28.94,0,0,1-57-10.17,12,12,0,0,0,4-.41c6.83-1.9,10.91-9.44,17.73-11.29,4.79-1.3,9.85.51,14.28,2.73,1.75.88,3.58,1.85,5.54,1.7,2.56-.2,8-3,10.6-4.57A28.8,28.8,0,0,1,414.86,583.9Z"/><path class="cls-17" d="M403.6,601.88a38.51,38.51,0,0,1-3.64,3.33l-1.65,1.09-.83.54c-.28.18-.58.31-.87.46l-1.77.9c-.61.28-1.24.48-1.86.72l-.94.34-1,.24c-.65.14-1.3.35-2,.43a22.39,22.39,0,0,1-14.2-2.39c0-.81-.11-1.61-.22-2.4v0a20.25,20.25,0,0,0,6.72,3.19,20.87,20.87,0,0,0,7.56.63c.64,0,1.26-.2,1.9-.29l.95-.17.92-.28c.61-.19,1.24-.35,1.85-.57l1.78-.77c.29-.14.61-.25.89-.4l.85-.48,1.7-1C400.9,604.29,402.53,602.64,403.6,601.88Z"/><path class="cls-4" d="M307.24,632.77a15.89,15.89,0,0,0,6.75-1.5,3,3,0,0,1,3.22.4,5.84,5.84,0,0,0,7.67-.22,23.41,23.41,0,0,1,5.54-4,66.4,66.4,0,0,1,6.17-2.62,42.05,42.05,0,0,1,9.73-2.49c26.3-3.42,28.53-13,28.62-13.4h0c0-.48,0-1,0-1.44,0-.83-.11-1.66-.22-2.47a28.89,28.89,0,0,1-16.8-31.34,12,12,0,0,0,4-.41c6.83-1.9,10.91-9.44,17.73-11.29,4.79-1.3,9.85.51,14.28,2.73,1.75.88,3.58,1.85,5.54,1.7,1.78-.14,4.93-1.55,7.57-2.92a3.72,3.72,0,0,1,5,1.53,28.92,28.92,0,0,1-8.38,36.81,61.25,61.25,0,0,0,3.11,6.12l8.22,1.89a19.39,19.39,0,0,1,3.51-2.87c4-2.77,8.52-4.76,12.58-7.48a27.2,27.2,0,0,0,4.26-3.46c6-6.19,7.05-18.37,7.05-18.37a25,25,0,0,0-4.63-15.63,46,46,0,0,1-3.8-5.35c-3.63-7-.16-16.46-4.8-22.82-3.24-4.44-9.37-5.72-13.35-9.52-1.46-1.39-2.59-3.09-3.94-4.57-4.83-5.23-6.77-10.15-17.57-9.12a12.51,12.51,0,0,0-12.5,12.52,5.38,5.38,0,0,1-5.39,5.38H346.6c-6.83,0-12.64,5.47-12.53,12.29a12.49,12.49,0,0,1-12.56,12.71,12.29,12.29,0,0,0-11,6.57,11.61,11.61,0,0,1-10.35,5.91,8.84,8.84,0,0,0-8.16,5.55,7.41,7.41,0,0,1-4.07,4A8.84,8.84,0,0,0,283,586.55a9.72,9.72,0,0,1-2.39,10.29,15.85,15.85,0,0,0,9.85,27.44,5.65,5.65,0,0,1,2.73.78l0,0a3.25,3.25,0,0,1,1.25,1.64C295.12,628.44,297.69,632.77,307.24,632.77Z"/><path class="cls-4" d="M64.39,922.11a5.37,5.37,0,0,1-.88-5.29h0c.1-.3.2-.59.28-.89s.15-.56.2-.84.09-.46.12-.69,0-.27,0-.39,0-.48,0-.71a5.45,5.45,0,0,0,0-.7c0-.12,0-.22,0-.34,0-.32,0-.63-.06-.93s0-.29,0-.42-.07-.47-.11-.69a5,5,0,0,0-.18-.81,4.58,4.58,0,0,0-.14-.56c0-.2-.11-.38-.16-.55a17.92,17.92,0,0,0-1.84-4,7.13,7.13,0,0,0-3.46-2.93c-1.19-.47-2.87-1.16-4.89-2h0l-1.91-.87h0c-1.48-.69-3.15-1.47-4.86-2.35-.33-.16-.67-.33-1-.51s-.68-.34-1-.53c-1.69-.88-3.43-1.82-5.14-2.82L37.24,891h0c-1.06-.68-2.13-1.36-3.19-2.08l-.19-.12c-.6-.41-1.22-.84-1.82-1.28s-1.1-.8-1.63-1.21a51.35,51.35,0,0,1-5.87-5.19,23.32,23.32,0,0,0-8.31-5.74c-.28-.12-.56-.22-.83-.31a18.75,18.75,0,0,0-5-1l-.21,0a19.75,19.75,0,0,0-5.17.29c-.42.07-.84.17-1.26.28a15.2,15.2,0,0,0-2.94,1.16,4.91,4.91,0,0,1-.5.23l-.34.17,48.34,85.56,30.55-17.26c1.29-.92,0-5.41-1-6.6h0Z"/><path class="cls-18" d="M51.88,959.7,3.78,874.57c.41-.11.84-.21,1.26-.28l26.22,46.39a19.05,19.05,0,0,0,1-1.75c.23-.43.44-.86.63-1.3A28.64,28.64,0,0,0,35,910.79a6,6,0,0,0,.12-.74,28.45,28.45,0,0,0,.35-3c0-.11,0-.23,0-.34A46.1,46.1,0,0,0,32,887.48c.6.44,1.22.85,1.82,1.27a46.2,46.2,0,0,1,2.91,18l3.8,6.73a36.23,36.23,0,0,0,4,5.65c.43.53.88,1,1.35,1.52l.5.52,5.7,6c.16.18.32.34.47.52a37.22,37.22,0,0,1,5,6.89l9.4,16.65a2,2,0,0,1-.38.21c-.22.16-.48.24-.69.4l-9.41-16.65a36.49,36.49,0,0,0-4.66-6.45c-.21-.24-.43-.46-.65-.69L45,921.48a35.45,35.45,0,0,1-4.59-5.91c-.31-.48-.61-1-.9-1.49l-2.9-5.14c-.06.51-.13,1-.22,1.55,0,.1,0,.2-.05.29a5.58,5.58,0,0,1-.13.69c0,.07,0,.16-.05.24a5.06,5.06,0,0,1-.17.75,26.66,26.66,0,0,1-.93,3.23c-.13.39-.28.78-.45,1.16a2.41,2.41,0,0,1-.17.43,10.66,10.66,0,0,1-.49,1.09,4.12,4.12,0,0,1-.24.52c-.22.45-.45.89-.7,1.31q-.47.87-1,1.71l21,37.18Z"/><path class="cls-18" d="M37.23,891l8.33,14.73,1.08-.61-7.25-12.82C38.67,891.83,38,891.4,37.23,891Z"/><path class="cls-18" d="M44.53,895.08l8,14.13,1.08-.61-7.05-12.48C45.88,895.79,45.2,895.44,44.53,895.08Z"/><path class="cls-18" d="M51.42,898.47l8.06,14.27,1.08-.61-7.23-12.79Z"/><path class="cls-4" d="M279.92,1070.66a5.33,5.33,0,0,0,5.34-.4h0c.27-.18.53-.33.8-.49s.51-.27.77-.39.42-.2.64-.28l.37-.14c.24-.09.45-.15.67-.22s.46-.13.68-.18l.33-.08c.32-.07.62-.12.92-.16a3.41,3.41,0,0,1,.42,0c.23,0,.47,0,.7-.06a5.86,5.86,0,0,1,.83,0,5.61,5.61,0,0,1,.58,0c.2,0,.38,0,.56,0a17.51,17.51,0,0,1,4.29.84,7.08,7.08,0,0,1,3.67,2.66c.74,1,1.82,2.51,3.16,4.26h0c.4.53.84,1.07,1.3,1.65h0c1,1.28,2.17,2.71,3.43,4.16.24.28.48.57.74.85s.49.58.75.85c1.26,1.42,2.59,2.89,4,4.32.59.6,1.17,1.18,1.78,1.78h0c.91.87,1.83,1.75,2.78,2.61l.17.15c.54.48,1.09,1,1.66,1.46s1.05.87,1.58,1.3a52,52,0,0,0,6.43,4.46,23.36,23.36,0,0,1,7.56,6.7,7.76,7.76,0,0,1,.49.73,18.72,18.72,0,0,1,2.16,4.58l.07.2a19.69,19.69,0,0,1,.95,5.09,11,11,0,0,1,0,1.29,15.27,15.27,0,0,1-.43,3.13c-.05.21-.08.4-.1.54s-.09.37-.09.37l-94.62-26.54,9.48-33.79c.59-1.46,5.26-1.27,6.66-.57h0Z"/><path class="cls-18" d="M246.4,1091.78l94.14,26.41a11.29,11.29,0,0,0,0-1.3L289.2,1102.5c.48-.48,1-1,1.47-1.38.36-.32.73-.63,1.12-.92a28.07,28.07,0,0,1,6.12-3.72q.34-.17.69-.3c.94-.4,1.89-.75,2.84-1a2.42,2.42,0,0,1,.32-.1,46.16,46.16,0,0,1,19.51-1.19c-.57-.47-1.12-1-1.67-1.46a46.13,46.13,0,0,0-18.16,1.46l-7.45-2.09a36.35,36.35,0,0,1-6.43-2.48c-.61-.29-1.21-.61-1.8-1l-.62-.36-7.16-4.11-.61-.34a37,37,0,0,0-7.89-3.21l-18.41-5.17a2.9,2.9,0,0,0-.12.42c-.09.26-.11.53-.21.77l18.41,5.17a36.82,36.82,0,0,1,7.37,3l.83.47,7.81,4.45a36.38,36.38,0,0,0,6.84,3c.54.19,1.1.36,1.66.52l5.68,1.59c-.48.18-1,.38-1.45.59l-.27.11a4.55,4.55,0,0,0-.63.3,1.15,1.15,0,0,0-.23.1,6.3,6.3,0,0,0-.69.34,25.13,25.13,0,0,0-2.91,1.68,12.34,12.34,0,0,0-1,.71,1.84,1.84,0,0,0-.38.27,11.22,11.22,0,0,0-.94.73,4.17,4.17,0,0,0-.45.36q-.57.48-1.11,1c-.48.44-1,.91-1.41,1.4l-41.12-11.53Z"/><path class="cls-18" d="M316.66,1089.61l-16.3-4.57.33-1.2,14.19,4C315.45,1088.42,316.05,1089,316.66,1089.61Z"/><path class="cls-18" d="M310.9,1083.51l-15.62-4.38.33-1.2,13.8,3.87C309.89,1082.36,310.39,1082.94,310.9,1083.51Z"/><path class="cls-18" d="M306,1077.63l-15.78-4.43.33-1.19,14.15,4C305.07,1076.5,305.51,1077.05,306,1077.63Z"/><path class="cls-19" d="M385,603.22s10.33.17,14.43-7.91"/><path class="cls-20" d="M435.15,698.46a66.43,66.43,0,0,1-9.07-4.11c-9.05-5-15.27-12.56-17.07-20.77-2-8.93.84-18.88,8.56-30.42,1.52-2.27,3.19-4.53,5-6.91,4.29-5.78,8.67-11.69,11-18.11.33.09.65.17,1,.24-2.39,6.57-6.85,12.59-11.21,18.47-1.76,2.37-3.42,4.61-4.93,6.87-7.56,11.3-10.31,21-8.41,29.65,1.73,7.93,7.77,15.26,16.57,20.11a64.37,64.37,0,0,0,8.5,3.88Z"/><rect class="cls-21" x="289.44" y="436.43" width="18.6" height="6.04" rx="3.02" transform="translate(384.69 -84.93) rotate(43.52)"/><path class="cls-22" d="M316.84,427.44l-5.14-4.93a3,3,0,0,1-.11-4.26h0a3,3,0,0,1,4.27-.11l5.14,4.93a3,3,0,0,1,.11,4.26h0A3,3,0,0,1,316.84,427.44Z"/><rect class="cls-23" x="290.4" y="430.58" width="22" height="6.04" rx="3.02" transform="translate(381.39 -88.37) rotate(43.52)"/><rect class="cls-24" x="294.29" y="425.9" width="22" height="6.04" rx="3.02" transform="translate(379.24 -92.33) rotate(43.52)"/><rect class="cls-25" x="298.18" y="421.23" width="22" height="6.04" rx="3.02" transform="translate(377.09 -96.3) rotate(43.52)"/><path class="cls-1" d="M401.4,279.34c-1.22,2.43-2.5,4.81-3.84,7.12-16.24,28-57,77.92-93.92,55.27C287.53,331.84,277,315.45,270.73,298a124.4,124.4,0,0,1-6.85-27.48c-1.23-10.62-3.1-20.92-2.33-31.75a91.06,91.06,0,0,1,7.79-31.24c15.66-34.4,55.27-55,92.45-46.83a65.65,65.65,0,0,1,31.75,16.93q1.79,1.77,3.45,3.66,1.44,1.63,2.77,3.36C421,212.13,416.17,249.79,401.4,279.34Z"/><path class="cls-5" d="M342.44,168.07s-22.05-4.91-29.84,9.32c0,0,4.75-.35,8,1.27a11.54,11.54,0,0,0,5.13,1.52S329.94,172.3,342.44,168.07Z"/><path class="cls-2" d="M298.26,338.18v0Z"/></g></svg>