<svg xmlns="http://www.w3.org/2000/svg" xmlns:xlink="http://www.w3.org/1999/xlink" viewBox="0 0 1164.1 904.06"><defs><style>.cls-1,.cls-53,.cls-62{fill:none;}.cls-2{clip-path:url(#clip-path);}.cls-3{clip-path:url(#clip-path-2);}.cls-4{clip-path:url(#clip-path-3);}.cls-5{clip-path:url(#clip-path-4);}.cls-6{clip-path:url(#clip-path-5);}.cls-7{clip-path:url(#clip-path-6);}.cls-8{clip-path:url(#clip-path-7);}.cls-9{clip-path:url(#clip-path-8);}.cls-10{clip-path:url(#clip-path-9);}.cls-11{clip-path:url(#clip-path-10);}.cls-12{clip-path:url(#clip-path-11);}.cls-13{clip-path:url(#clip-path-12);}.cls-14{fill:url(#Dégradé_sans_nom_112);}.cls-15{fill:url(#Dégradé_sans_nom_86);}.cls-16{fill:#65a4ff;}.cls-17{fill:#b1d0ff;}.cls-18{fill:#f0f6ff;}.cls-19{fill:url(#Dégradé_sans_nom_127);}.cls-20,.cls-54{fill:#016dff;}.cls-21{fill:url(#Dégradé_sans_nom_124);}.cls-22{fill:url(#Dégradé_sans_nom_98);}.cls-23{fill:url(#Dégradé_sans_nom_98-2);}.cls-24{fill:url(#Dégradé_sans_nom_98-3);}.cls-25{fill:#fff;}.cls-26{fill:url(#Dégradé_sans_nom_96);}.cls-27{fill:url(#Dégradé_sans_nom_98-4);}.cls-28{fill:url(#Dégradé_sans_nom_98-5);}.cls-29{fill:url(#Dégradé_sans_nom_131);}.cls-30{fill:url(#Dégradé_sans_nom_101);}.cls-31{fill:url(#Dégradé_sans_nom_101-2);}.cls-32{fill:url(#Dégradé_sans_nom_131-2);}.cls-33{fill:url(#Dégradé_sans_nom_100);}.cls-34{fill:url(#Dégradé_sans_nom_101-3);}.cls-35{fill:url(#Dégradé_sans_nom_100-2);}.cls-36{fill:#b2d1ff;}.cls-37{fill:#006dff;}.cls-38{fill:url(#Dégradé_sans_nom_95);}.cls-39{opacity:0.2;isolation:isolate;}.cls-40{fill:#0044a6;}.cls-41{fill:url(#Dégradé_sans_nom_21);}.cls-42{fill:#ed9f00;}.cls-43{fill:url(#Dégradé_sans_nom_21-2);}.cls-44{fill:url(#Dégradé_sans_nom_21-3);}.cls-45{fill:#ff2838;}.cls-46{fill:url(#Dégradé_sans_nom_21-4);}.cls-47{fill:url(#Dégradé_sans_nom_21-5);}.cls-48{fill:#dd0010;}.cls-49{fill:#fd6a28;}.cls-50{fill:#27292f;}.cls-51{fill:url(#Dégradé_sans_nom_55);}.cls-52{fill:url(#Dégradé_sans_nom_29);}.cls-53{stroke:#27292f;}.cls-53,.cls-62{stroke-miterlimit:10;}.cls-54{fill-rule:evenodd;}.cls-55{fill:url(#Dégradé_sans_nom_21-6);}.cls-56{fill:#ffcfd0;}.cls-57{fill:url(#Dégradé_sans_nom_21-7);}.cls-58{fill:#f8f7f6;}.cls-59{fill:url(#Dégradé_sans_nom_21-8);}.cls-60{fill:url(#Dégradé_sans_nom_21-9);}.cls-61{fill:#ff2738;}.cls-62{stroke:#9fa0a3;stroke-width:1.13px;stroke-dasharray:4.53;}.cls-63{fill:#e6e6e6;}.cls-64{fill:url(#Dégradé_sans_nom_21-10);}.cls-65{fill:url(#Dégradé_sans_nom_21-11);}.cls-66{fill:#f14b01;}.cls-67{fill:#ffeee6;}.cls-68{fill:url(#Dégradé_sans_nom_21-12);}.cls-69{fill:url(#Dégradé_sans_nom_21-13);}.cls-70{fill:#ff9865;}.cls-71{fill:url(#Dégradé_sans_nom_21-14);}.cls-72{fill:#fe6a28;}.cls-73{fill:url(#Dégradé_sans_nom_21-15);}.cls-74{fill:url(#Dégradé_sans_nom_21-16);}.cls-75{fill:url(#Dégradé_sans_nom_123);}.cls-76{fill:url(#Dégradé_sans_nom_123-2);}.cls-77{fill:url(#Dégradé_sans_nom_123-3);}.cls-78{fill:url(#Dégradé_sans_nom_123-4);}.cls-79{fill:url(#Dégradé_sans_nom_123-5);}</style><clipPath id="clip-path"><rect class="cls-1" x="-2364.94" y="988.24" width="74" height="74" rx="5"/></clipPath><clipPath id="clip-path-2"><rect class="cls-1" x="-2364.94" y="1079.24" width="74" height="74" rx="5"/></clipPath><clipPath id="clip-path-3"><rect class="cls-1" x="-2364.94" y="83.24" width="74" height="74" rx="5"/></clipPath><clipPath id="clip-path-4"><rect class="cls-1" x="-2364.94" y="174.24" width="74" height="74" rx="5"/></clipPath><clipPath id="clip-path-5"><rect class="cls-1" x="-2364.94" y="265.24" width="74" height="74" rx="5"/></clipPath><clipPath id="clip-path-6"><rect class="cls-1" x="-2364.94" y="355.24" width="74" height="74" rx="5"/></clipPath><clipPath id="clip-path-7"><rect class="cls-1" x="-2364.94" y="446.24" width="74" height="74" rx="5"/></clipPath><clipPath id="clip-path-8"><rect class="cls-1" x="-2364.94" y="536.24" width="74" height="74" rx="5"/></clipPath><clipPath id="clip-path-9"><rect class="cls-1" x="-2364.94" y="626.24" width="74" height="74" rx="5"/></clipPath><clipPath id="clip-path-10"><rect class="cls-1" x="-2364.94" y="717.24" width="74" height="74" rx="5"/></clipPath><clipPath id="clip-path-11"><rect class="cls-1" x="-2364.94" y="807.24" width="74" height="74" rx="5"/></clipPath><clipPath id="clip-path-12"><rect class="cls-1" x="-2364.94" y="898.24" width="74" height="74" rx="5"/></clipPath><linearGradient id="Dégradé_sans_nom_112" x1="711.59" x2="711.59" y2="904" gradientUnits="userSpaceOnUse"><stop offset="0.25" stop-color="#fff"/><stop offset="0.4" stop-color="#fcfdff"/><stop offset="0.52" stop-color="#f2f7ff"/><stop offset="0.63" stop-color="#e1edff"/><stop offset="0.74" stop-color="#c9dfff"/><stop offset="0.84" stop-color="#aacdff"/><stop offset="0.93" stop-color="#85b7ff"/><stop offset="1" stop-color="#65a4ff"/></linearGradient><linearGradient id="Dégradé_sans_nom_86" x1="1012.68" y1="671.12" x2="1156.05" y2="550.83" gradientUnits="userSpaceOnUse"><stop offset="0" stop-color="#b2d1ff"/><stop offset="0.27" stop-color="#bed8ff"/><stop offset="0.76" stop-color="#deebff"/><stop offset="1" stop-color="#f0f6ff"/></linearGradient><linearGradient id="Dégradé_sans_nom_127" x1="1124.34" y1="662.83" x2="1124.34" y2="362.17" gradientUnits="userSpaceOnUse"><stop offset="0" stop-color="#f0f6ff"/><stop offset="0.07" stop-color="#e0edff"/><stop offset="0.28" stop-color="#b4d3ff"/><stop offset="0.49" stop-color="#92beff"/><stop offset="0.68" stop-color="#79b0ff"/><stop offset="0.86" stop-color="#6aa7ff"/><stop offset="1" stop-color="#65a4ff"/></linearGradient><linearGradient id="Dégradé_sans_nom_124" x1="510.7" y1="6627.19" x2="510.7" y2="6479.75" gradientTransform="matrix(1, 0, 0, -1, 32.54, 7324.68)" gradientUnits="userSpaceOnUse"><stop offset="0" stop-color="#fe6a28"/><stop offset="0.69" stop-color="#ffccb2"/><stop offset="0.77" stop-color="#ffcfb7"/><stop offset="0.87" stop-color="#ffd9c6"/><stop offset="0.97" stop-color="#ffe9de"/><stop offset="1" stop-color="#ffeee6"/></linearGradient><linearGradient id="Dégradé_sans_nom_98" x1="463.96" y1="667.88" x2="501.85" y2="667.88" gradientUnits="userSpaceOnUse"><stop offset="0" stop-color="#ffccb2"/><stop offset="0.25" stop-color="#ffaf88"/><stop offset="0.6" stop-color="#fe8a55"/><stop offset="0.86" stop-color="#fe7334"/><stop offset="1" stop-color="#fe6a28"/></linearGradient><linearGradient id="Dégradé_sans_nom_98-2" x1="570.82" y1="667.78" x2="608.71" y2="667.78" xlink:href="#Dégradé_sans_nom_98"/><linearGradient id="Dégradé_sans_nom_98-3" x1="499" y1="661.91" x2="573.6" y2="661.91" xlink:href="#Dégradé_sans_nom_98"/><linearGradient id="Dégradé_sans_nom_96" x1="516.71" y1="557.71" x2="555.72" y2="557.71" gradientUnits="userSpaceOnUse"><stop offset="0" stop-color="#ffeee6"/><stop offset="0.21" stop-color="#ffd8c5"/><stop offset="0.57" stop-color="#ffb691"/><stop offset="0.85" stop-color="#ffa071"/><stop offset="1" stop-color="#ff9865"/></linearGradient><linearGradient id="Dégradé_sans_nom_98-4" x1="508.71" y1="557.7" x2="563.72" y2="557.7" xlink:href="#Dégradé_sans_nom_98"/><linearGradient id="Dégradé_sans_nom_98-5" x1="504.48" y1="480.09" x2="567.82" y2="480.09" xlink:href="#Dégradé_sans_nom_98"/><radialGradient id="Dégradé_sans_nom_131" cx="449.22" cy="778.08" r="16.17" gradientUnits="userSpaceOnUse"><stop offset="0" stop-color="#e6e6e6"/><stop offset="0.18" stop-color="#e3e3e3"/><stop offset="0.33" stop-color="#d9d9d9"/><stop offset="0.46" stop-color="#c8c8c9"/><stop offset="0.59" stop-color="#b0b1b2"/><stop offset="0.71" stop-color="#919295"/><stop offset="0.83" stop-color="#6b6d71"/><stop offset="0.94" stop-color="#404147"/><stop offset="1" stop-color="#27292f"/></radialGradient><linearGradient id="Dégradé_sans_nom_101" x1="611.56" y1="804.04" x2="611.56" y2="771.69" gradientUnits="userSpaceOnUse"><stop offset="0" stop-color="#ffeee6"/><stop offset="0.22" stop-color="#ffece3"/><stop offset="0.39" stop-color="#ffe5d9"/><stop offset="0.55" stop-color="#ffdac8"/><stop offset="0.7" stop-color="#ffcab0"/><stop offset="0.84" stop-color="#ffb691"/><stop offset="0.98" stop-color="#ff9d6c"/><stop offset="1" stop-color="#ff9865"/></linearGradient><linearGradient id="Dégradé_sans_nom_101-2" x1="-2322.77" y1="810.26" x2="-2237.56" y2="810.26" gradientTransform="matrix(-1, 0, 0, 1, -1639.26, 0)" xlink:href="#Dégradé_sans_nom_101"/><radialGradient id="Dégradé_sans_nom_131-2" cx="431.58" cy="800.26" r="34.09" xlink:href="#Dégradé_sans_nom_131"/><radialGradient id="Dégradé_sans_nom_100" cx="536.24" cy="794.25" r="64.28" xlink:href="#Dégradé_sans_nom_101"/><linearGradient id="Dégradé_sans_nom_101-3" x1="536.24" y1="789.29" x2="536.24" y2="756.62" xlink:href="#Dégradé_sans_nom_101"/><radialGradient id="Dégradé_sans_nom_100-2" cx="536.24" cy="798.14" r="37.67" xlink:href="#Dégradé_sans_nom_101"/><linearGradient id="Dégradé_sans_nom_95" x1="2897.4" y1="104.22" x2="2685.36" y2="356.91" gradientTransform="translate(-2086.92)" gradientUnits="userSpaceOnUse"><stop offset="0" stop-color="#f0f6ff"/><stop offset="0.19" stop-color="#edf4ff"/><stop offset="0.36" stop-color="#e2eeff"/><stop offset="0.52" stop-color="#d0e3ff"/><stop offset="0.67" stop-color="#b7d4ff"/><stop offset="0.82" stop-color="#96c1ff"/><stop offset="0.97" stop-color="#6faaff"/><stop offset="1" stop-color="#65a4ff"/></linearGradient><linearGradient id="Dégradé_sans_nom_21" x1="745.17" y1="255.49" x2="776.83" y2="255.49" gradientUnits="userSpaceOnUse"><stop offset="0" stop-color="#f8f7f6"/><stop offset="0" stop-color="#ff2738"/><stop offset="0.3" stop-color="#fc2738"/><stop offset="0.53" stop-color="#f22738"/><stop offset="0.74" stop-color="#e22738"/><stop offset="0.94" stop-color="#ca2738"/><stop offset="1" stop-color="#c22738"/></linearGradient><linearGradient id="Dégradé_sans_nom_21-2" x1="767.73" y1="240.96" x2="774.23" y2="240.96" xlink:href="#Dégradé_sans_nom_21"/><linearGradient id="Dégradé_sans_nom_21-3" x1="767.58" y1="260.34" x2="771.19" y2="260.34" xlink:href="#Dégradé_sans_nom_21"/><linearGradient id="Dégradé_sans_nom_21-4" x1="764.95" y1="248.41" x2="768.65" y2="248.41" xlink:href="#Dégradé_sans_nom_21"/><linearGradient id="Dégradé_sans_nom_21-5" x1="731.66" y1="156.46" x2="777.06" y2="182.68" xlink:href="#Dégradé_sans_nom_21"/><linearGradient id="Dégradé_sans_nom_55" x1="841.96" y1="178.38" x2="871.11" y2="178.38" gradientUnits="userSpaceOnUse"><stop offset="0" stop-color="#016dff"/><stop offset="0.17" stop-color="#0770ff"/><stop offset="0.39" stop-color="#1879ff"/><stop offset="0.65" stop-color="#3389ff"/><stop offset="0.93" stop-color="#5a9eff"/><stop offset="1" stop-color="#65a4ff"/></linearGradient><linearGradient id="Dégradé_sans_nom_29" x1="537.82" y1="902.82" x2="537.82" y2="903.94" gradientUnits="userSpaceOnUse"><stop offset="0.32" stop-color="#fff"/><stop offset="0.4" stop-color="#fff7e7"/><stop offset="0.59" stop-color="#ffe3a8"/><stop offset="0.86" stop-color="#ffc244"/><stop offset="1" stop-color="#ffb00d"/></linearGradient><linearGradient id="Dégradé_sans_nom_21-6" x1="805.74" y1="584.13" x2="859.78" y2="584.13" xlink:href="#Dégradé_sans_nom_21"/><linearGradient id="Dégradé_sans_nom_21-7" x1="922.26" y1="785.94" x2="852.95" y2="785.94" xlink:href="#Dégradé_sans_nom_21"/><linearGradient id="Dégradé_sans_nom_21-8" x1="900.16" y1="448.99" x2="930.99" y2="533.67" xlink:href="#Dégradé_sans_nom_21"/><linearGradient id="Dégradé_sans_nom_21-9" x1="939.27" y1="611.72" x2="967.02" y2="611.72" xlink:href="#Dégradé_sans_nom_21"/><linearGradient id="Dégradé_sans_nom_21-10" x1="987.56" y1="771.41" x2="920.97" y2="795.65" xlink:href="#Dégradé_sans_nom_21"/><linearGradient id="Dégradé_sans_nom_21-11" x1="960.31" y1="696.58" x2="960.35" y2="696.58" xlink:href="#Dégradé_sans_nom_21"/><linearGradient id="Dégradé_sans_nom_21-12" x1="673.11" y1="813.69" x2="652.53" y2="838.21" xlink:href="#Dégradé_sans_nom_21"/><linearGradient id="Dégradé_sans_nom_21-13" x1="705.81" y1="859.06" x2="705.81" y2="878.31" xlink:href="#Dégradé_sans_nom_21"/><linearGradient id="Dégradé_sans_nom_21-14" x1="-3233.4" y1="474.89" x2="-3226.13" y2="476.17" gradientTransform="matrix(-1, -0.05, -0.05, 1, -2422.82, -23.77)" xlink:href="#Dégradé_sans_nom_21"/><linearGradient id="Dégradé_sans_nom_21-15" x1="1938.46" y1="587.89" x2="1977.96" y2="587.89" gradientTransform="translate(-1145.99)" xlink:href="#Dégradé_sans_nom_21"/><linearGradient id="Dégradé_sans_nom_21-16" x1="745.64" y1="427.77" x2="722.87" y2="490.34" xlink:href="#Dégradé_sans_nom_21"/><linearGradient id="Dégradé_sans_nom_123" x1="48.99" y1="839.6" x2="130.4" y2="714.24" gradientUnits="userSpaceOnUse"><stop offset="0" stop-color="#f0f6ff"/><stop offset="0.24" stop-color="#deebff"/><stop offset="0.73" stop-color="#bed8ff"/><stop offset="1" stop-color="#b2d1ff"/></linearGradient><linearGradient id="Dégradé_sans_nom_123-2" x1="507.87" y1="612.12" x2="124.89" y2="679.65" xlink:href="#Dégradé_sans_nom_123"/><linearGradient id="Dégradé_sans_nom_123-3" x1="271.62" y1="591.23" x2="268.84" y2="591.72" xlink:href="#Dégradé_sans_nom_123"/><linearGradient id="Dégradé_sans_nom_123-4" x1="287.6" y1="611.33" x2="284.67" y2="611.84" xlink:href="#Dégradé_sans_nom_123"/><linearGradient id="Dégradé_sans_nom_123-5" x1="82.36" y1="396.6" x2="265.29" y2="614.61" xlink:href="#Dégradé_sans_nom_123"/></defs><g id="Landing_Illu_1" data-name="Landing Illu 1"><path class="cls-14" d="M1164.47,612.56V904H258.71V452.88q0-12.51.68-24.82a449.8,449.8,0,0,1,5.11-47.66C299.17,164.75,486.13,0,711.58,0c219,0,402.34,155.53,444.46,362.17l-71.83,142h32.41V662.83q4.68-3.62,9.12-7.56c.62-.56,1.23-1.11,1.83-1.67l.2-.18a273.38,273.38,0,0,0,22.42-24C1155,623.81,1159.66,618.13,1164.47,612.56Z"/><path class="cls-15" d="M1116.88,504.15V715.07c-2.05.9-4.13,1.69-6.23,2.4a78.32,78.32,0,0,1-19.74,4c-1.22.09-2.43.15-3.64.17H1055.1V504.15Z"/><rect class="cls-16" x="1064.44" y="519.11" width="18.24" height="17.32"/><rect class="cls-16" x="1089.27" y="519.11" width="18.24" height="17.32"/><rect class="cls-16" x="1064.44" y="545.09" width="18.24" height="17.32"/><rect class="cls-16" x="1089.27" y="545.09" width="18.24" height="17.32"/><rect class="cls-16" x="1064.44" y="571.07" width="18.24" height="17.32"/><rect class="cls-16" x="1089.27" y="571.07" width="18.24" height="17.32"/><rect class="cls-16" x="1064.44" y="597.05" width="18.24" height="17.32"/><rect class="cls-16" x="1089.27" y="597.05" width="18.24" height="17.32"/><rect class="cls-16" x="1064.44" y="623.02" width="18.24" height="17.32"/><rect class="cls-16" x="1089.27" y="623.02" width="18.24" height="17.32"/><rect class="cls-16" x="1064.44" y="649" width="18.24" height="17.32"/><rect class="cls-16" x="1089.27" y="649" width="18.24" height="17.32"/><rect class="cls-17" x="1024.72" y="717.56" width="31.97" height="21.64"/><rect class="cls-17" x="1068.23" y="717.56" width="31.97" height="21.64"/><path class="cls-18" d="M1164.47,612.56V904H603.11c.25-4.91.65-9.79,1.23-14.63,1.85-15.51,5.49-30.6,11.79-44.75a119.82,119.82,0,0,1,5.68-11.26A124.46,124.46,0,0,1,632.26,818a140.24,140.24,0,0,1,11-12.23A165.79,165.79,0,0,1,660,791.36c2.81-2.13,5.7-4.2,8.64-6.19l.54-.36c1.2-.81,2.41-1.6,3.63-2.39a297.14,297.14,0,0,1,44.72-23.13l3.46-1.44.9-.37c1.63-.68,3.26-1.33,4.89-2l.65-.26Q740.62,750,754,745.46q22.77-7.68,46.17-13.19,5.82-1.38,11.68-2.61,5.67-1.21,11.37-2.28,12.62-2.4,25.32-4.16c.88-.12,1.75-.24,2.63-.34l5.54-.73,1-.12c1.59-.2,3.19-.38,4.79-.56,6.53-.75,13.07-1.39,19.61-2a2.17,2.17,0,0,0,.76-.09h.06q10.39-.89,20.8-1.64l4.86-.36,4-.28,23.76-1.68c6.42-.49,12.83-1,19.24-1.57,1.09-.09,2.17-.18,3.26-.29l2.21-.21q.3,0,.6-.06H962l3.71-.37h.22c1.07-.1,2.12-.21,3.18-.33,8.5-.88,17-1.92,25.44-3.19l2.58-.38q5.65-.87,11.27-1.91,16.22-3,32.1-7.47,4.89-1.39,9.7-2.94,5.53-1.8,11-3.8l1.54-.57,7.56-3c3.64-1.5,7.24-3.11,10.78-4.8l.46-.21q6.33-3,12.4-6.44c1.88-1.06,3.75-2.16,5.59-3.29a175.59,175.59,0,0,0,17.14-11.76q4.68-3.62,9.12-7.56c.62-.56,1.23-1.11,1.83-1.67l.2-.18a273.38,273.38,0,0,0,22.42-24C1155,623.81,1159.66,618.13,1164.47,612.56Z"/><path class="cls-19" d="M1164.47,433.43V612.56c-4.81,5.57-9.51,11.25-14.28,16.86a273.38,273.38,0,0,1-22.42,24l-.2.18c-.6.56-1.21,1.11-1.83,1.67q-4.44,3.94-9.12,7.56V504.15h-32.41s-.06-4.74.66-12.63c.21-2.29.48-4.85.84-7.63.39-3,.87-6.28,1.49-9.77q.65-3.67,1.48-7.64c.67-3.14,1.44-6.41,2.32-9.77.66-2.49,1.38-5,2.17-7.63q1.45-4.81,3.25-9.77c.92-2.52,1.9-5.07,3-7.63,1.34-3.24,2.79-6.51,4.38-9.77,1.24-2.55,2.55-5.09,4-7.63,10.6-19.26,26-38,48.33-52.11a453,453,0,0,1,7.48,52.11c.21,2.53.41,5.08.58,7.63V422C1164.36,425.79,1164.47,429.61,1164.47,433.43Z"/><rect class="cls-20" x="1128.57" y="414.28" width="14.03" height="7.63"/><rect class="cls-20" x="1128.57" y="431.68" width="14.03" height="7.63"/><rect class="cls-20" x="1128.57" y="449.08" width="14.03" height="7.63"/><rect class="cls-20" x="1128.57" y="466.48" width="14.03" height="7.63"/><rect class="cls-20" x="1128.57" y="483.89" width="14.03" height="7.63"/><path class="cls-20" d="M1119.5,414.28v7.63h-15.74c1.24-2.55,2.55-5.09,4-7.63Z"/><path class="cls-20" d="M1119.5,431.68v7.63h-23.08c.92-2.52,1.9-5.07,3-7.63Z"/><path class="cls-20" d="M1119.5,449.08v7.63H1091c.66-2.49,1.38-5,2.17-7.63Z"/><path class="cls-20" d="M1119.5,466.48v7.64h-32.3q.65-3.67,1.48-7.64Z"/><path class="cls-20" d="M1119.5,483.89v7.63h-34.63c.21-2.29.48-4.85.84-7.63Z"/><rect class="cls-20" x="1128.57" y="501.29" width="14.03" height="7.63"/><rect class="cls-20" x="1128.57" y="518.69" width="14.03" height="7.63"/><rect class="cls-20" x="1128.57" y="536.1" width="14.03" height="7.63"/><rect class="cls-20" x="1128.57" y="553.5" width="14.03" height="7.63"/><rect class="cls-20" x="1128.57" y="570.9" width="14.03" height="7.63"/><rect class="cls-20" x="1128.57" y="588.31" width="14.03" height="7.63"/><rect class="cls-20" x="1128.57" y="605.71" width="14.03" height="7.63"/><rect class="cls-20" x="1128.57" y="623.11" width="14.03" height="7.63"/><path class="cls-20" d="M1164.1,421.91h-13.66v-7.63h13.08C1163.73,416.81,1163.93,419.36,1164.1,421.91Z"/><rect class="cls-20" x="1150.44" y="431.68" width="14.03" height="7.63"/><rect class="cls-20" x="1150.44" y="449.08" width="14.03" height="7.63"/><rect class="cls-20" x="1150.44" y="466.48" width="14.03" height="7.63"/><rect class="cls-20" x="1150.44" y="483.89" width="14.03" height="7.63"/><rect class="cls-20" x="1150.44" y="501.29" width="14.03" height="7.63"/><rect class="cls-20" x="1150.44" y="518.69" width="14.03" height="7.63"/><rect class="cls-20" x="1150.44" y="536.1" width="14.03" height="7.63"/><rect class="cls-20" x="1150.44" y="553.5" width="14.03" height="7.63"/><rect class="cls-20" x="1150.44" y="570.9" width="14.03" height="7.63"/><rect class="cls-20" x="1150.44" y="588.31" width="14.03" height="7.63"/><path class="cls-20" d="M1164.47,605.71v6.85l-.67.78h-13.36v-7.63Z"/><path class="cls-20" d="M1155.52,623.11q-2.54,3-5.08,6v-6Z"/><path class="cls-21" d="M511.07,697l50.55,0-4.54,126.43c0,11.6-8.47,21-19,21h-3.26c-10.48,0-19-9.38-19-21Z"/><path class="cls-22" d="M501.85,664.1c-21.43,7.59-20.07,63.06-20.08,63.07l-6.1.1c-2.24-42.08-34.11-76.23,17.87-118.78A430.07,430.07,0,0,0,501.85,664.1Z"/><path class="cls-23" d="M570.82,664c21.44,7.54,20.2,63,20.21,63l6.1.1c2.16-42.09,34-76.31-18.11-118.75A431.92,431.92,0,0,1,570.82,664Z"/><path class="cls-24" d="M573.6,649.59c-.3,1.67-.61,3.35-.92,5q-1.48,7.8-3.31,15.92l-13.89,2.17a124.77,124.77,0,0,1-38.24,0l-14-2.15v0q-1.83-8.11-3.34-15.92c-.33-1.69-.65-3.36-.93-5l2.85.44,15.36,2.38a125.46,125.46,0,0,0,38.25,0l15.29-2.4Z"/><path class="cls-25" d="M555.48,672.73l13.89-2.17c-.11.53-.24,1.06-.35,1.58a240,240,0,0,1-7.4,24.8c-3.28.74-7.45,1.56-12.16,2.21a96.33,96.33,0,0,1-26.22,0c-4.71-.63-8.89-1.44-12.17-2.18a237.46,237.46,0,0,1-7.45-24.78c-.13-.54-.24-1.07-.35-1.59l14,2.15A124.77,124.77,0,0,0,555.48,672.73Z"/><path class="cls-25" d="M576.92,544.07a234.67,234.67,0,0,0-9.1-37.3c-9.68,4.62-20.21,8.13-31.65,8.14s-22-3.46-31.69-8.08a234.59,234.59,0,0,0-9.76,42.38,282.29,282.29,0,0,0-1.17,59.28v.19l0,.19c0,.45.07.89.11,1.34s.07.89.11,1.34c0,.24,0,.49.07.73v.1c0,.47.09,1,.14,1.43s.06.72.1,1.08.08.73.11,1.1,0,.49.07.73.05.49.08.73,0,.42.06.64,0,.42.07.63l.06.6c0,.29.06.59.1.88l.09.87c.05.37.09.75.13,1.11l.15,1.24c0,.13,0,.26,0,.4s0,.06,0,.09c0,.3.07.6.11.9l.06.52s0,0,0,.07v0c0,.08,0,.17,0,.26s0,.14,0,.22,0,.24.05.36l.09.76c0,.19.05.38.08.56s.07.51.1.76a.31.31,0,0,0,0,.1l0,.27a1.85,1.85,0,0,1,0,.23l0,.23c0,.17,0,.33.06.49s.05.33.08.5c.11.84.23,1.69.35,2.54,0,.31.09.62.13.93s.1.62.14.93l.12.83c0,.27.08.55.13.83a2.19,2.19,0,0,0,0,.27l.06.42.06.43c.09.54.17,1.07.25,1.61l.27,1.61v.05s0,0,0,0h0l.42,2.61c.09.54.19,1.09.28,1.63s.19,1.08.29,1.62c.18,1,.37,2.08.55,3.14h0l2.85.43,15.36,2.37.83.13,1.86.26,1,.12.95.12,1.37.15c.79.08,1.59.16,2.38.22h0c.8.07,1.59.13,2.39.18h0c.8.06,1.6.1,2.4.14l2.39.09,1.2,0,1.2,0h2.4l1.19,0,1.2,0,2.4-.1,2.39-.13,2.39-.19,2.39-.23,1.19-.13,2.38-.31,1.19-.16,1.19-.18,15.29-2.4,1.31-.2.37-.06.28,0,.89-.14h0c.56-3,1.06-6.05,1.53-9h0C580.93,604.24,581.38,572.64,576.92,544.07Zm-51.35,17h0l5.6-8.19h0l1.62,1.16h0l-5,10.55-2,4.13-.66,1.37-1.31,2.75h0a19.85,19.85,0,0,1-3.61-3.94Z"/><path class="cls-26" d="M555.72,557.68a19.52,19.52,0,0,1-19.5,19.54h-.61l-.65,0h-.14l-.73-.06-.59-.07L533,577l-.22,0c-.48-.08-1-.2-1.45-.32a.11.11,0,0,1-.08,0l-.79-.23h0l-.27-.09-.37-.12-.39-.14-.75-.29-.45-.2a4,4,0,0,1-.42-.2l-.3-.14-.54-.28-.16-.09-.27-.16-.35-.2c-.46-.27-.9-.56-1.34-.88l0,0c-.32-.22-.63-.45-.93-.7l0,0h0l3.93-8.25,5-10.55-1.62-1.16L525.58,561h0l-5.35,7.83h0c-.23-.33-.46-.67-.67-1s-.41-.7-.61-1.05a19.4,19.4,0,0,1-2.21-9v-.46a.49.49,0,0,1,0-.12c0-.11,0-.23,0-.34v0c0-.16,0-.31,0-.47s0-.32,0-.47,0,0,0,0l.06-.62s0-.06,0-.08c0-.2.05-.4.09-.61s0-.26.07-.38,0-.26.07-.38a6.4,6.4,0,0,1,.14-.63c0-.1.06-.2.08-.31s.07-.29.11-.44.09-.28.13-.43l0-.07c0-.16.09-.3.15-.46l.06-.17.07-.18.25-.69c.1-.22.19-.44.29-.67,0,0,0,0,0,0h0c.06-.11.11-.23.17-.35s.12-.23.17-.35l.29-.55.06-.12.39-.66.4-.64.52-.74a3.18,3.18,0,0,1,.26-.35l.39-.51.07-.08c.3-.37.63-.72,1-1.09l.09-.1.11-.11a20.24,20.24,0,0,1,2.26-2h0c.41-.3.83-.58,1.27-.86s.88-.52,1.34-.76h0c.22-.12.45-.24.69-.35l.71-.31h0l.54-.22.33-.12.6-.21.17,0,.6-.19a20.27,20.27,0,0,1,4.7-.73h.59a19.53,19.53,0,0,1,5.8.87c.31.09.61.19.91.3a20.18,20.18,0,0,1,4.19,2.14h0c.51.35,1,.72,1.49,1.11a19.64,19.64,0,0,1,3.78,4.15,18.31,18.31,0,0,1,1,1.59,18.52,18.52,0,0,1,.92,2,16.13,16.13,0,0,1,.77,2.25A19.83,19.83,0,0,1,555.72,557.68Z"/><path class="cls-27" d="M558.82,542a27.56,27.56,0,0,0-47,3,29,29,0,0,0-1.77,4.26,27.53,27.53,0,0,0,26.22,35.89,27,27,0,0,0,4.24-.33A27.5,27.5,0,0,0,558.82,542Zm-42.09,15v-.22c0-.09,0-.18,0-.26a5.8,5.8,0,0,1,0-.48c0-.05,0-.09,0-.13a.22.22,0,0,0,0-.08v0h0a1.15,1.15,0,0,1,0-.19.86.86,0,0,1,0-.17v-.15s0-.07,0-.11v-.06h0a.13.13,0,0,0,0-.06v0h0v0a0,0,0,0,0,0,0h0v0l0-.2c0-.07,0-.14,0-.19l0-.2c0-.12,0-.23.07-.35v0h0c0-.06,0-.13,0-.2s.06-.33.1-.5c0,0,0,0,0,0h0l0-.06s0,0,0,0l0-.11c0-.05,0-.1,0-.16s0,0,0,0l0,0a.06.06,0,0,0,0,0s0-.1,0-.16a1.31,1.31,0,0,1,0-.15s0,0,0,0a.43.43,0,0,0,0,0h0l0-.1.06-.22h0s0,0,0-.07h0a4.11,4.11,0,0,1,.15-.46,1.34,1.34,0,0,1,.07-.18,0,0,0,0,1,0,0h0v-.07s0,0,0,0h0a0,0,0,0,0,0,0l.09-.22c0-.05,0-.09,0-.14s.09-.23.13-.34l.29-.67s0,0,0,0h0c0-.12.1-.23.15-.35l.09-.18c.06-.12.11-.24.18-.36h0l0,0,0,0s0,0,0,0l0,0a1.74,1.74,0,0,1,.1-.19l0-.06h0l0-.05.19-.34.2-.33.4-.64.11-.15a1.43,1.43,0,0,1,.15-.22c.08-.13.17-.24.26-.38h0l.07-.09v0l0,0s0,0,0,0h0a.57.57,0,0,1,.12-.15h0l.19-.25a2.32,2.32,0,0,1,.21-.25l0,0h0l0,0,.21-.23,0-.06.06-.06.29-.33,0,0,.35-.38.1-.1,0-.06.05,0h0c.08-.09.17-.17.25-.25l.25-.24.3-.28.26-.23,0,0,.28-.24.26-.23.49-.37,0,0,.09-.06h0c.21-.16.42-.3.63-.44l.64-.43.33-.19,1-.56h0l.17-.07h.05l0,0c.14-.07.28-.15.43-.21l.7-.31h0l.08,0,.23-.1a2.18,2.18,0,0,0,.23-.09l.16-.06.17-.07.21-.07.07,0h0l.1,0,.1,0h.1l.08,0,.09,0,.3-.1.14,0,.13,0L528,542.65l-7.69,9.91h0l-3.54,4.57h0A.49.49,0,0,1,516.73,557Zm39,.9a2,2,0,0,1,0,.25,4.1,4.1,0,0,1,0,.5l0,.5c0,.34,0,.66-.1,1,0,.16,0,.32-.07.49s0,.3-.07.46a0,0,0,0,1,0,0,3.4,3.4,0,0,1-.09.46c0,.16-.06.32-.1.48s-.07.31-.11.47h0c-.08.31-.17.62-.26.92l-.15.46c-.1.31-.21.6-.33.9-.06.15-.11.29-.18.44s-.11.26-.17.4-.14.31-.22.47l-.21.42c-.21.42-.44.84-.69,1.24s-.33.53-.5.79-.36.51-.55.76l-.28.38-.6.72c-.16.19-.33.38-.5.56l-.34.36c-.32.32-.65.63-1,.93l-.36.31-.41.34-.39.3-.33.24-.44.31-.45.3c-.3.2-.61.39-.93.56a5.05,5.05,0,0,1-.45.25c-.22.13-.46.24-.69.36h0l-.69.31-.48.2-.28.11,0,0h-.05l-.21.08c-.12,0-.23.09-.35.12l-.33.11-.69.21h0l-.52.14-.51.12-.39.08-.31.07-.35.06-.35,0-.31,0-.2,0-.39,0h-.08l-.41,0-.5,0-1,0h-1.69l-.45,0-.59-.07h-.19l-.16,0-.15,0-.23,0-.17,0h-.07l-.12,0h-.06a3.87,3.87,0,0,1-.59-.13l-.22-.05-.22-.06h-.08c-.13,0-.24-.06-.36-.09l-.17-.05-.26-.08h0l-.26-.08h0l-.07,0-.23-.07-.07,0a.8.8,0,0,0-.2-.07l-.19-.08-.37-.14-.13-.05-.09,0-.15-.06-.22-.1h0l-.23-.1-.16-.07,0,0-.17-.09a0,0,0,0,1,0,0h0a0,0,0,0,1,0,0l-.27-.13-.27-.14-.1,0h0l-.14-.08-.15-.07,0,0-.24-.14a244407047917.14,244407047917.14,0,0,0-.26-.16h0l-.07,0-.09-.06-.06,0,0,0-.07,0-.08,0c-.31-.2-.64-.41-.94-.64h0l0,0,0,0,0,0s0,0,0,0c-.3-.21-.6-.43-.88-.67h0l1.31-2.75.66-1.37,2-4.13,5-10.55h0l-1.62-1.16h0l-5.6,8.19h0l-5.34,7.83h0c-.12-.17-.23-.33-.34-.51s-.22-.33-.33-.51-.21-.34-.31-.52-.09-.17-.14-.26a2.1,2.1,0,0,1-.13-.26l4.92-8.47h0l9.39-16.12,2.32-4h.59c.21,0,.41,0,.62,0h.14c.26,0,.5,0,.74,0h0l.73.07.73.1.5.08.07,0,.26.05h0a1.73,1.73,0,0,1,.31.07h0l.06,0h.21l0,0h.07a5.54,5.54,0,0,1,.55.14l.34.1.12,0,.07,0,.16.05.46.14.45.16c.37.14.74.28,1.1.45.18.07.36.16.54.24l.31.15.08,0,.13.06.09,0c.15.07.29.15.43.23l.51.28h0a10.23,10.23,0,0,1,1,.62h0l.2.14h0l.34.24.16.12.11.08.14.11c.19.13.36.27.54.42h0l.53.46c.16.14.32.28.47.43l0,0,0,0c.16.15.31.3.46.46h0l.36.38,0,0,.48.54.22.27c.1.11.19.23.28.34q.44.55.84,1.14c.17.25.34.52.5.78l.36.61a.11.11,0,0,0,0,.06h0l0,.06,0,.07.22.41c.07.13.13.27.2.4s.21.44.3.66a5.16,5.16,0,0,1,.21.49c.16.37.3.74.43,1.11s.24.77.34,1.16c.05.2.11.4.16.61s.07.31.1.46l.09.47c.06.31.11.62.16.94s.06.43.08.64,0,.43,0,.64c0,.43.05.87.05,1.32Z"/><path class="cls-28" d="M567.82,506.77a64.24,64.24,0,0,1-46.9,6.59h0a63,63,0,0,1-16.43-6.53c.28-.85.57-1.7.87-2.56h0v0A237.06,237.06,0,0,1,529,455.69c.31-.48.61-1,.91-1.44,2-3.1,4.06-6.18,6.18-9.25,13.16,18.88,23.52,38.32,30.84,59.19v0a0,0,0,0,1,0,0h0C567.24,505.07,567.54,505.92,567.82,506.77Z"/><circle class="cls-29" cx="449.22" cy="778.08" r="16.17"/><circle class="cls-30" cx="611.56" cy="787.86" r="16.17"/><path class="cls-31" d="M598.29,817.41a29.54,29.54,0,0,0,4.3,15.4h78.29a18.18,18.18,0,0,0-24.78-25.08,29.72,29.72,0,0,0-57.81,9.68Z"/><path class="cls-32" d="M474.19,807.41a29.63,29.63,0,0,1-4.29,15.4H391.61a18.18,18.18,0,0,1,24.78-25.08,29.71,29.71,0,0,1,57.8,9.68Z"/><path class="cls-33" d="M622.55,820c0,.49,0,1,0,1.46-.57.45-1.15.88-1.73,1.31H451.69c-.58-.43-1.16-.86-1.74-1.31,0-.48,0-1,0-1.46a54.35,54.35,0,0,1,86.31-44,54.35,54.35,0,0,1,86.31,44Z"/><path class="cls-34" d="M552.58,773a16.05,16.05,0,0,1-.39,3.56,16.32,16.32,0,0,1-15.94,12.77h0a16.34,16.34,0,0,1-16-12.77,16.67,16.67,0,0,1-.39-3.56,16.34,16.34,0,0,1,16.34-16.34h0A16.34,16.34,0,0,1,552.58,773Z"/><path class="cls-35" d="M583.46,822.81H489a49.81,49.81,0,0,1,31.26-46.23l1.07-.42a42.46,42.46,0,0,1,29.76,0l1.07.42A49.8,49.8,0,0,1,583.46,822.81Z"/><path class="cls-36" d="M823.64,904H258.71V664.63q4.2,3.39,8.18,7c1.31,1.19,2.6,2.39,3.87,3.63,6.9,6.74,13.26,14,19.51,21.32,7.22,8.51,14.28,17.17,21.83,25.34,1.3,1.4,2.57,2.74,3.93,4.15s2.74,2.82,4.15,4.19l2.4,2.3,1.13,1a185.06,185.06,0,0,0,45.1,30.31l1.18.59q4.33,2.12,8.76,4a260,260,0,0,0,27.17,9.87q9.91,3,20,5.36c1.09.26,2.18.51,3.28.75,1.85.41,3.71.82,5.57,1.2l1.15.24q10.51,2.13,21.06,3.7,9.5,1.41,19,2.49c3.28.38,6.57.72,9.85,1.06l3.71.37,1.91.1c7.91.77,15.83,1.4,23.76,2L539,797.33l8.89.64c18.45,1.35,36.89,2.92,55.21,5.44q12.7,1.77,25.32,4.16,7.27,1.41,14.52,3c1.62.36,3.22.71,4.84,1.09l2.83.65c.88.21,1.75.41,2.62.63,2.81.68,5.6,1.38,8.39,2.08a518.39,518.39,0,0,1,69,23c18.07,7.46,36.1,16.32,52.35,27.32A171.57,171.57,0,0,1,810,887.68a135,135,0,0,1,9.43,10.71Q821.63,901.14,823.64,904Z"/><path class="cls-37" d="M865.62,155.32h-1.37q3.46,0,6.9.33A45.88,45.88,0,0,0,865.62,155.32Z"/><path class="cls-38" d="M903.84,219.67c0,19.31-6.32,36.8-16.54,49.47-.41.5-.83,1-1.26,1.5a59.16,59.16,0,0,1-4.84,5c-.53.49-1.07,1-1.62,1.45s-1,.84-1.49,1.24q-1.7,1.38-3.5,2.6a49.93,49.93,0,0,1-4.51,2.76,47.32,47.32,0,0,1-21.18,5.87l-1.51,0H583.11a53.46,53.46,0,0,1-21.7-4.48l-.13-.06a10.37,10.37,0,0,0-8.14,0c-.35.15-.71.3-1.07.43a95.83,95.83,0,0,1-30.21,6.65,1.58,1.58,0,0,1-1.6-1.55,1.59,1.59,0,0,1,.77-1.38,27.47,27.47,0,0,0,9.39-7.84,28.43,28.43,0,0,0,4.62-9.81,10.48,10.48,0,0,0-1.64-8.78,70.75,70.75,0,0,1,49.48-112.7l.24,0c2.3-.22,4.6-.34,6.9-.34H847.39a48.1,48.1,0,0,1,27.2,8.64C892,170.26,903.84,193.25,903.84,219.67Z"/><path class="cls-16" d="M803.27,241.16l-11.72,31.36H785.6l-.17.47H757.29a2.7,2.7,0,0,0-2.68,2.69,2.68,2.68,0,0,0,2.68,2.68H702.62a7.58,7.58,0,0,1-7.37-9.31l3.36-14.23.2-.8,7.68-32.54a16,16,0,0,1,4.91-8h0c.13-.11.26-.22.4-.32h0a8.15,8.15,0,0,1,2.8-1.38L726,208.17l.67-.21,12.22-3.83.64-.2,2.83-.89s14,16.81,23.58-1.18l19.32,6.72a16.13,16.13,0,0,1,8.84,9.29l2.78,7.1.24.61,2.85,7.25Z"/><path class="cls-20" d="M820.59,275.68a2.7,2.7,0,0,1-2.69,2.68H757.29a2.68,2.68,0,0,1-2.68-2.68,2.7,2.7,0,0,1,2.68-2.69H817.9A2.69,2.69,0,0,1,820.59,275.68Z"/><circle class="cls-39" cx="782.68" cy="274.45" r="0.32"/><path class="cls-40" d="M754.69,274.13q-.18.89-.45,1.8a20.36,20.36,0,0,1-.88,2.43h-1a37.78,37.78,0,0,1-5.35-9.82c-.07-.18-.14-.36-.2-.55-.13-.35-.24-.7-.35-1.07-.2-.64-.37-1.3-.53-2l-.12-.48,0-.18c0-.17-.08-.35-.11-.53l-.15-.8c-.14-.87-.24-1.75-.3-2.66,0-.25,0-.5,0-.76a.38.38,0,0,0,0-.1c0-.28,0-.55,0-.83s0-.38,0-.57c0-.35,0-.7,0-1.05,0,0,0-.05,0-.07,0-.19,0-.39,0-.58a24.4,24.4,0,0,1,1.5-6.56,35.08,35.08,0,0,1,3.55,5,33.38,33.38,0,0,1,4.42,11.44A22.27,22.27,0,0,1,754.69,274.13Z"/><path class="cls-41" d="M775.94,242.63a1.69,1.69,0,0,0-1.05-.17l-2.32.37-5.21.84-1.17.2a5.9,5.9,0,0,0-2.53,1.06,35.59,35.59,0,0,0-4.52,3.61,32.45,32.45,0,0,1-8.83,6.22,17.79,17.79,0,0,1-5,1.58A28.45,28.45,0,0,0,747,268.55a25.59,25.59,0,0,0,11.72-4.76c.63-.49,3.92-1.07,3.92-1.07l1-.12-.07-3.06-1.14.1a1.1,1.1,0,0,1-.58-.12,1.08,1.08,0,0,1-.38-.33,1,1,0,0,1-.16-.58l-6.72,5.93-.22-.26,7.23-6.39,0,0a1,1,0,0,1,1.07-.21l.53.18a1,1,0,0,1,.64.73.52.52,0,0,1,0,.21v0l0,.52v.18l.07,3.05h0l0,1.91a1.65,1.65,0,0,0,1.71,1.62,1.62,1.62,0,0,0,1.43-.88,1.78,1.78,0,0,0,.2-.83l-.05-2.21-.08-3.37,0-1.46a.85.85,0,0,0-.46-.74l-3.18-1.72c-.51-.26-.27-1.1.26-1.2l2.2-.42a.9.9,0,0,1,.56.09l2.82,1.51a.88.88,0,0,1,.35.34l2,3.51a1.66,1.66,0,0,0,2.28.62,1.92,1.92,0,0,0,.65-.65,1.71,1.71,0,0,0,0-1.63l-1.44-2.55a7.86,7.86,0,0,0-3.1-3l-2.57-1.38a2.88,2.88,0,0,0-1.16-.33,3.51,3.51,0,0,0-.56,0l-1.22.19h0l-.33.05-.19,0-3.56.55-.06-.33,4-.62,1.68-1.91a1.88,1.88,0,0,1,1-.58l.2-.06h.09l0,0,1.63-.27,6.41-1.06a1.67,1.67,0,0,0,1.39-1.91A1.71,1.71,0,0,0,775.94,242.63Z"/><path class="cls-42" d="M761.71,258.29a.32.32,0,0,0,0,.09.36.36,0,0,0,0-.09h0Z"/><path class="cls-43" d="M774,241.11a1.4,1.4,0,0,1-.22.32l-.88,1-5.2.85,3.58-4.06a1.67,1.67,0,0,1,2.36-.16A1.68,1.68,0,0,1,774,241.11Z"/><path class="cls-44" d="M771.18,260a1.6,1.6,0,0,1-.19,1,1.64,1.64,0,0,1-1.27.86l-2.07.24-.07-3.36,1.75-.2A1.67,1.67,0,0,1,771.18,260Z"/><polygon class="cls-45" points="767.38 247.09 769.01 246.82 769.01 246.82 767.38 247.09"/><path class="cls-46" d="M768.65,247.23l-1.85,2.07-1.85.29,1.4-1.61a1.52,1.52,0,0,1,1-.53Z"/><path class="cls-47" d="M769.31,187.44a34.56,34.56,0,0,1-6.31,4,67.63,67.63,0,0,0,2.16,7.65c.3.91.57,1.83.8,2.75h0c-5.15,9.7-11.6,9.28-16.45,6.84l-.77-.41-.64-.38-.08,0-.71-.46-.19-.13-.92-.66c-.48-.37-.92-.73-1.32-1.09-.17-.14-.33-.29-.49-.44l-.24-.21c-.16-.15-.32-.31-.48-.45a2.13,2.13,0,0,0-.26-.26c-.66-.68-1-1.12-1-1.12v-15.7A24.84,24.84,0,0,1,739,182c-.13-.26-.25-.51-.37-.77-.28-.64-.56-1.29-.8-1.94-.32-.88-.61-1.77-.87-2.66-.1-.34-.2-.69-.29-1v0a33.2,33.2,0,0,1-.69-3.35,49,49,0,0,1-.48-9.49,4,4,0,0,1-3.73-3.42,4.08,4.08,0,0,1,3.39-4.68,4.32,4.32,0,0,1,1.19,0c2.68-15.63,11.48-30.75,28.52-21a25.56,25.56,0,0,1,10.51,12C782,160.31,777.86,181,769.31,187.44Z"/><path class="cls-48" d="M763,191.46a22.35,22.35,0,0,1-8,3.24,14.07,14.07,0,0,1-8-1,8.22,8.22,0,0,1-4-4.4,9,9,0,0,1-.49-1.94,16.65,16.65,0,0,0,8.06,5.42A18.21,18.21,0,0,0,763,191.46Z"/><polygon class="cls-40" points="787.53 272.52 785.55 273.15 778.64 234.54 786.76 269.25 787.53 272.52"/><path class="cls-49" d="M742.8,203.51l-.26-.29Z"/><path class="cls-50" d="M778.19,153.41a13.63,13.63,0,0,1-1.54,1.58c-6.12,5.29-15.79,1.58-16.23,1.37h0s-2.69-.85-2.69-.88h0a3.75,3.75,0,0,0-4.23,1.55,4.64,4.64,0,0,0-.68,2.48,4.64,4.64,0,0,1-4.66,4.57h-.39a4.26,4.26,0,0,0-4.23,4.54,4.64,4.64,0,0,1-4.65,4.75s-3,0-1.91,3.29c.29.89.54,1.78.88,2.65.23.66.51,1.31.8,2,.11.26.23.52.35.77a25.6,25.6,0,0,0,3.42,5.34V203l-27.74,8.71a8.15,8.15,0,0,0-2.8,1.38h0c-.14.1-.27.21-.4.32h0a16,16,0,0,0-4.91,8c-.35,1.38-.88,3.78-1.51,6.7-13.53.64-20.7-3.4-26.64-14.4a22.14,22.14,0,0,1-1-18.84c3.09-7.55,9.53-11.4,17-11.89a7.77,7.77,0,0,0,3.48-1.09,13.15,13.15,0,0,0,5.24-16.22l-.12-.29a6.8,6.8,0,0,0-.39-.76c-.8-1.35-.94-2.85.11-5.66,3.4-6.57,11.33-3.69,17.7-9.3a14.92,14.92,0,0,0,4.34-7.2,16.14,16.14,0,0,1,2.14-4.63,18.43,18.43,0,0,1,5.92-5.2c9.25-5.32,23.86-5.25,33.61.15l.18.1c.2.12.41.23.62.34C778.39,139.21,782.2,148.21,778.19,153.41Z"/><polygon class="cls-40" points="746.77 249.78 723.36 254.78 723.83 255.23 727.27 238.77 725.97 238.52 723.07 255.08 722.97 255.68 723.54 255.54 746.77 249.78"/><path class="cls-36" d="M876.92,235.78a5,5,0,0,0-5-5H803.66a4.18,4.18,0,0,0-3.66,2,11.61,11.61,0,0,0-1.33,2.95l-5.95,16.74-6,16.73-1.16,3.27-.17.47H757.29a2.7,2.7,0,0,0-2.68,2.69,2.68,2.68,0,0,0,2.68,2.68H862.52Z"/><circle class="cls-40" cx="832.45" cy="254.58" r="4.6"/><path class="cls-40" d="M878.09,278.36q-1.7,1.38-3.5,2.6a49.93,49.93,0,0,1-4.51,2.76,47.32,47.32,0,0,1-21.18,5.87l-1.51,0H598.18V278.36Z"/><path class="cls-20" d="M655.45,254.58H635.6a1.53,1.53,0,0,0-1.53,1.52v4h-.83a5.31,5.31,0,0,0-5.3,5.68,5.46,5.46,0,0,0,5.53,4.95H634s0,0,0,0v7.64s0,0,0,0h22.83s0,0,0,0V256.1A1.53,1.53,0,0,0,655.45,254.58ZM634.07,269s0,0,0,0c-2.32-.1-4.16-1.7-4.16-3.65a3.35,3.35,0,0,1,1.29-2.59,4.81,4.81,0,0,1,2.87-1.07s0,0,0,0Z"/><path class="cls-20" d="M642.76,252.23l-2-3.53a5,5,0,0,1,1.89-6.84A3.56,3.56,0,0,0,644,237l-2-3.57,1.26-.72,2,3.57a5,5,0,0,1-1.89,6.84A3.58,3.58,0,0,0,642,248l2,3.52Z"/><path class="cls-20" d="M649.09,252.23l-2-3.53a5,5,0,0,1,1.89-6.84,3.55,3.55,0,0,0,1.35-4.86l-2-3.57,1.26-.72,2,3.57a5,5,0,0,1-1.89,6.84,3.58,3.58,0,0,0-1.35,4.87l2,3.52Z"/><path class="cls-51" d="M855.05,163.77A14.64,14.64,0,0,0,842,177a14.49,14.49,0,0,0,2.86,10,2.17,2.17,0,0,1,.34,1.8,6,6,0,0,1-1,2,5.61,5.61,0,0,1-1.94,1.61.33.33,0,0,0,.18.62,19.79,19.79,0,0,0,6.43-1.46,2.18,2.18,0,0,1,1.68,0,14.51,14.51,0,0,0,7.4,1.19,14.27,14.27,0,0,0,3.65-.84A14.66,14.66,0,0,0,871,179.86c0-.14,0-.27,0-.41A14.58,14.58,0,0,0,855.05,163.77Zm9.14,19.46H852.85a.66.66,0,0,1-.66-.66.67.67,0,0,1,.66-.67h11.34a.67.67,0,0,1,.66.67A.66.66,0,0,1,864.19,183.23Zm-13.33-9.7h11.35a.66.66,0,0,1,0,1.32H850.86a.66.66,0,1,1,0-1.32Zm-2,4.19h11.34a.66.66,0,0,1,0,1.32H848.88a.66.66,0,1,1,0-1.32Z"/><path class="cls-52" d="M563.36,902.82q-12.63,1.11-25.54,1.12t-25.54-1.12Z"/><path class="cls-16" d="M1164.47,741.74V904H398.21q2.34-2.38,4.86-4.52a91.47,91.47,0,0,1,22.13-13.91l.86-.38c15.14-6.71,32.11-10,48.84-10.61,1.56-.07,3.11-.13,4.66-.13a239.83,239.83,0,0,1,29.35,1.62c3.1.35,6.19.73,9.29,1.16,8.11,1.1,16.21,2.42,24.31,3.77l3.12.53c7.62,1.29,15.25,2.58,22.88,3.71l1.82.26q13.23,1.92,26.54,3.21c115.88,11.17,228.33-15.28,331.48-68.3,34.63-17.8,68-38.11,103.68-53.76,22.56-9.91,46.14-17.94,70.5-21.95C1110,743.47,1135.58,739.19,1164.47,741.74Z"/><path class="cls-20" d="M487.16,212.43l-.11-1c.83-.09,1.67-.16,2.51-.21l.07,1C488.8,212.27,488,212.34,487.16,212.43Z"/><path class="cls-20" d="M516.15,413.05c-1.69,0-3.39-.13-5-.28l.09-1c1.62.14,3.29.24,5,.27Zm5-.06-.05-1c1.64-.07,3.31-.19,5-.37l.1,1C524.53,412.79,522.84,412.92,521.19,413Zm-15.08-.85c-1.66-.27-3.32-.61-4.94-1l.24-1c1.59.39,3.23.72,4.86,1ZM531.2,412l-.16-1c1.61-.25,3.26-.56,4.9-.91l.21,1C534.49,411.39,532.82,411.7,531.2,412Zm9.84-2.08-.25-1c1.58-.41,3.2-.87,4.8-1.36l.29.95C544.27,409,542.64,409.46,541,409.88Zm-44.72-.13c-1.59-.52-3.18-1.1-4.74-1.74l.38-.92c1.53.62,3.1,1.2,4.67,1.71Zm54.34-2.82-.34-.95c1.55-.54,3.12-1.12,4.68-1.74l.37.93C553.8,405.79,552.21,406.38,550.66,406.93ZM487,406c-1.5-.74-3-1.55-4.44-2.39l.51-.87c1.42.84,2.9,1.63,4.38,2.36Zm73-2.7-.39-.92c1.5-.65,3-1.34,4.55-2.05l.42.9C563.07,401.9,561.53,402.6,560,403.25Zm-81.73-2.38c-1.39-.94-2.76-1.94-4.07-3l.61-.78c1.3,1,2.65,2,4,2.93Zm90.83-1.9-.46-.89c1.47-.75,3-1.53,4.42-2.33l.48.88C572.08,397.43,570.58,398.22,569.11,399Zm-98.76-4.32c-1.24-1.13-2.46-2.31-3.62-3.51l.72-.69c1.14,1.18,2.34,2.34,3.57,3.45Zm107.58-.48-.5-.86,2-1.15,2.33-1.4.52.85L579.91,393Zm8.59-5.18-.52-.85c1.41-.88,2.82-1.76,4.23-2.66l.54.84Q588.66,387.67,586.52,389Zm-123.17-1.6c-1.08-1.29-2.12-2.62-3.1-4l.81-.59c1,1.33,2,2.65,3.06,3.92ZM595,383.61l-.54-.83,4.19-2.74.55.83C597.78,381.79,596.39,382.71,595,383.61Zm-137.53-4.38c-.89-1.44-1.73-2.91-2.49-4.39l.88-.46c.76,1.45,1.59,2.91,2.46,4.32Zm145.91-1.12-.55-.83L607,374.5l.56.83Zm194.77-.83c-1-1.31-2-2.64-3-4l.78-.63c1.07,1.34,2.09,2.69,3.05,4Zm-186.44-4.74-.56-.83,4.17-2.78.55.83Zm-158.88-2.26c-.66-1.55-1.26-3.14-1.8-4.72l.95-.32c.52,1.56,1.12,3.12,1.77,4.64Zm339.09-.79c-1.07-1.22-2.2-2.46-3.36-3.68l.72-.69c1.17,1.23,2.31,2.48,3.39,3.71ZM620,367l-.56-.83c1.4-.93,2.79-1.85,4.19-2.76l.54.83Zm165-4.74c-1.17-1.14-2.38-2.3-3.62-3.44l.68-.73c1.24,1.14,2.47,2.31,3.64,3.46Zm-156.65-.75-.55-.84c1.41-.91,2.81-1.81,4.23-2.7l.53.84Q630.49,360.13,628.39,361.49Zm-178.78-.78c-.32-1.31-.6-2.65-.84-4-.94-.24-1.85-.51-2.73-.82l.33-.94c.82.29,1.67.54,2.54.76l.69-.11c0,.1,0,.19,0,.29.49.11,1,.21,1.48.3l-.17,1-1.13-.22c.22,1.18.47,2.36.75,3.51Zm8.31-2.95c-.64,0-1.28,0-1.92,0l0-1a45.63,45.63,0,0,0,4.95-.06l.07,1C460,357.73,458.94,357.76,457.92,357.76Zm8.16-.64-.15-1c1.62-.25,3.27-.56,4.88-.92l.22,1C469.39,356.55,467.73,356.87,466.08,357.12Zm170.76-1-.53-.85q2.13-1.32,4.28-2.61l.52.86Q639,354.82,636.84,356.13Zm140.86-.66c-1.24-1.07-2.52-2.16-3.81-3.22l.63-.77c1.3,1.07,2.59,2.16,3.84,3.24Zm-301.79-.57-.29-1c1.58-.48,3.16-1,4.71-1.61l.35.94C479.11,353.86,477.51,354.41,475.91,354.9Zm-34.5-1.12a32,32,0,0,1-4.2-2.85l.62-.78a30.28,30.28,0,0,0,4.07,2.75Zm43.92-2.47-.42-.91c1.49-.69,3-1.45,4.43-2.25l.48.87C488.36,349.84,486.84,350.6,485.33,351.31ZM645.41,351l-.5-.86c1.44-.84,2.9-1.67,4.35-2.49l.49.87C648.3,349.32,646.85,350.14,645.41,351ZM448,350.75c-.13-1.59-.19-3.2-.19-4.8v-.24h1V346c0,1.57.06,3.16.18,4.72Zm322-1.62q-2-1.56-4-3l.6-.81c1.32,1,2.65,2,4,3ZM433.5,347.46a36.89,36.89,0,0,1-3.17-4l.82-.57a35.89,35.89,0,0,0,3.09,3.85Zm60.65-1-.55-.84c1.39-.9,2.76-1.86,4.07-2.86l.6.8C496.94,344.54,495.55,345.52,494.15,346.43Zm160-.33-.48-.88q2.22-1.19,4.45-2.32l.45.89C657.08,344.54,655.6,345.32,654.14,346.1ZM762,343.21c-1.38-.95-2.79-1.87-4.18-2.73l.53-.85c1.4.87,2.82,1.8,4.22,2.75ZM663,341.57l-.44-.9c1.51-.73,3-1.43,4.55-2.13l.41.92C666,340.14,664.53,340.85,663,341.57Zm-214-.82-1-.09c.14-1.68.35-3.37.64-5l1,.17C449.42,337.44,449.2,339.09,449.06,340.75Zm53.1-.46-.68-.73a45.9,45.9,0,0,0,3.45-3.55l.76.66A47.92,47.92,0,0,1,502.16,340.29Zm-74.48-1.1c-.77-1.44-1.5-3-2.17-4.57l.92-.38c.66,1.56,1.38,3.07,2.13,4.47ZM753.47,338c-1.46-.81-3-1.59-4.41-2.31l.44-.89c1.48.72,3,1.51,4.46,2.33Zm-81.33-.51-.39-.92c1.57-.67,3.13-1.3,4.65-1.9l.36.93C675.26,336.15,673.7,336.79,672.14,337.45Zm9.3-3.63-.34-.94c1.61-.57,3.21-1.11,4.77-1.6l.3,1C684.63,332.72,683,333.25,681.44,333.82Zm63.09-.24c-1.53-.65-3.09-1.26-4.64-1.81l.34-.95c1.56.56,3.14,1.18,4.69,1.84Zm-235.77-.95-.84-.55a29.64,29.64,0,0,0,2.36-4.32l.91.4A30.65,30.65,0,0,1,508.76,332.63Zm-58-1.66-1-.25c.43-1.64.93-3.27,1.49-4.83l.94.34C451.65,327.77,451.16,329.36,450.73,331ZM691,330.82l-.26-1c1.64-.45,3.28-.86,4.88-1.22l.22,1C694.21,330,692.58,330.38,691,330.82Zm44.21-.59c-1.6-.46-3.22-.87-4.82-1.23l.21-1c1.62.35,3.27.77,4.89,1.24Zm-311.39-.34c-.51-1.56-1-3.19-1.38-4.86l1-.24c.41,1.65.86,3.26,1.36,4.79Zm276.91-1.25-.17-1c1.67-.29,3.35-.54,5-.73l.12,1C704,328.11,702.34,328.36,700.68,328.64Zm24.77-.54c-.91-.13-1.82-.25-2.74-.35l-2.2-.2.07-1c.75.05,1.49.12,2.24.2.93.1,1.85.22,2.78.36Zm-14.88-.62-.06-1c1.53-.09,3.06-.14,4.56-.14h.48v1h-.47C713.59,327.35,712.08,327.4,710.57,327.48ZM512.75,323.3l-1-.2a19.68,19.68,0,0,0,.42-4c0-.28,0-.56,0-.84l1,0c0,.3,0,.59,0,.88A21.58,21.58,0,0,1,512.75,323.3Zm-58.64-1.65-.91-.42a50,50,0,0,1,2.39-4.46l.86.52A45.51,45.51,0,0,0,454.11,321.65Zm-32.76-1.55c-.29-1.61-.54-3.28-.75-5l1-.12c.21,1.68.46,3.33.75,4.92Zm90-6.64a20.52,20.52,0,0,0-2-4.43l.85-.52a20.7,20.7,0,0,1,2.13,4.65Zm-52.08-.27-.79-.6a44.82,44.82,0,0,1,3.29-3.85l.72.69A44.34,44.34,0,0,0,459.23,313.19Zm-39.12-3.08c-.12-1.64-.2-3.33-.25-5l1,0c.05,1.69.13,3.36.25,5Zm46-4-.64-.77.24-.2a41.9,41.9,0,0,1,3.86-2.78l.54.85a39.81,39.81,0,0,0-3.77,2.7Zm40.2-.91a24.28,24.28,0,0,0-3.73-3.18l.58-.82a26.19,26.19,0,0,1,3.88,3.31Zm-31.87-4.37-.42-.9a36,36,0,0,1,4.73-1.83l.29.95A37.58,37.58,0,0,0,474.41,300.79Zm-53.57-.72-1,0c0-1.65.09-3.34.19-5l1,.06C420.93,296.75,420.87,298.43,420.84,300.07Zm77.43-.48a24.23,24.23,0,0,0-4.66-1.48l.2-1a25.38,25.38,0,0,1,4.86,1.54Zm-14.45-1.68-.15-1a30.49,30.49,0,0,1,4.55-.34h.52v1h-.52A29.79,29.79,0,0,0,483.82,297.91Zm-62.39-7.79-1-.1c.17-1.68.38-3.36.62-5l1,.14C421.81,286.79,421.6,288.46,421.43,290.12Zm1.46-9.86-1-.2c.33-1.68.7-3.33,1.1-4.91l1,.25C423.58,277,423.21,278.59,422.89,280.26Zm2.46-9.65-1-.3c.51-1.59,1.06-3.19,1.65-4.76l.94.36C426.41,267.45,425.86,269,425.35,270.61Zm3.51-9.32-.91-.4c.66-1.52,1.38-3.06,2.12-4.57l.9.45C430.23,258.26,429.52,259.78,428.86,261.29Zm4.44-8.93-.88-.49c.83-1.46,1.69-2.92,2.58-4.33l.84.54C435,249.47,434.11,250.91,433.3,252.36Zm5.31-8.43-.82-.58c1-1.37,2-2.72,3-4l.79.62C440.56,241.23,439.56,242.57,438.61,243.93Zm6.15-7.83-.75-.66c1.12-1.27,2.27-2.51,3.43-3.68l.71.7C447,233.62,445.86,234.85,444.76,236.1Zm7-7.07-.67-.75c1.25-1.12,2.55-2.21,3.86-3.24l.61.79C454.28,226.84,453,227.92,451.76,229Zm7.81-6.14-.56-.83c1.4-.95,2.83-1.85,4.27-2.68l.5.86C462.37,221.06,461,222,459.57,222.89Zm8.6-5-.44-.91c1.53-.73,3.09-1.4,4.64-2l.36.93C471.21,216.53,469.67,217.19,468.17,217.92Zm9.26-3.56-.28-1c1.62-.47,3.27-.88,4.9-1.2l.2,1C480.64,213.5,479,213.89,477.43,214.36Z"/><path class="cls-20" d="M802.3,383.64c-.42-.71-.85-1.41-1.3-2.11l.84-.54c.46.71.89,1.43,1.32,2.14Z"/><polygon class="cls-20" points="797.47 382.78 797.72 381.81 802.49 383.08 803.41 378.24 804.39 378.42 803.27 384.32 797.47 382.78"/><path class="cls-53" d="M749.21,180s.72,6.9,8.4,6.42"/><g id="HD---Formulaires"><g id="Formulaire-_-Onboarding-Incubateur-v.1-_4" data-name="Formulaire-—-Onboarding-Incubateur-v.1-#4"><g id="Group-2"><g id="Group"><path id="Combined-Shape" class="cls-54" d="M823.46,517.26a3.45,3.45,0,0,1,2.68,1.28h0l2.18,2.72a1.26,1.26,0,0,0,1.12.46h0l3.46-.37a3.41,3.41,0,0,1,2.81,1,3.45,3.45,0,0,1,1,2.81h0l-.38,3.46a1.29,1.29,0,0,0,.47,1.13h0l2.71,2.18a3.43,3.43,0,0,1,0,5.36h0l-2.72,2.17a1.3,1.3,0,0,0-.47,1.13h0l.38,3.46a3.44,3.44,0,0,1-3.79,3.8h0l-3.47-.38a1.27,1.27,0,0,0-1.12.47h0l-2.17,2.71a3.45,3.45,0,0,1-5.36,0h0l-2.18-2.72a1.28,1.28,0,0,0-1.13-.46h0l-3.46.37a3.42,3.42,0,0,1-3.79-3.79h0l.37-3.47a1.26,1.26,0,0,0-.46-1.12h0l-2.72-2.19a3.44,3.44,0,0,1,0-5.35h0l2.72-2.19a1.26,1.26,0,0,0,.46-1.12h0l-.37-3.46a3.42,3.42,0,0,1,3.79-3.8h0l3.46.37a1.24,1.24,0,0,0,1.13-.47h0l2.18-2.69A3.44,3.44,0,0,1,823.46,517.26Zm0,2.16a1.27,1.27,0,0,0-1,.48h0l-2.18,2.7a3.44,3.44,0,0,1-3,1.26h0l-3.47-.38a1.27,1.27,0,0,0-1.4,1.41h0l.38,3.46a3.43,3.43,0,0,1-1.27,3h0l-2.71,2.19a1.27,1.27,0,0,0,0,2h0l2.71,2.19a3.43,3.43,0,0,1,1.27,3h0l-.38,3.47a1.27,1.27,0,0,0,.36,1,1.28,1.28,0,0,0,1,.37h0l3.46-.38a3.42,3.42,0,0,1,3,1.27h0l2.18,2.71a1.26,1.26,0,0,0,1,.47,1.27,1.27,0,0,0,1-.47h0l2.17-2.71a3.43,3.43,0,0,1,3-1.26h0l3.47.38a1.28,1.28,0,0,0,1.4-1.41h0l-.38-3.46a3.44,3.44,0,0,1,1.27-3.06h0l2.72-2.17a1.26,1.26,0,0,0,.47-1,1.27,1.27,0,0,0-.47-1h0l-2.72-2.18a3.43,3.43,0,0,1-1.26-3h0l.37-3.47a1.26,1.26,0,0,0-1.4-1.4h0l-3.46.38a3.43,3.43,0,0,1-3-1.27h0l-2.18-2.71A1.28,1.28,0,0,0,823.46,519.42Zm6.23,11.05a1.1,1.1,0,0,1,.24,1.5l0,0-5.75,7.71a2.15,2.15,0,0,1-3.23.27l0,0-3.45-3.47a1.1,1.1,0,0,1,0-1.54,1.08,1.08,0,0,1,1.51,0l0,0,3.45,3.47,5.74-7.71A1.09,1.09,0,0,1,829.69,530.47Z"/></g></g></g></g><path class="cls-40" d="M842.25,574.92s-5.93,9-2,22.31l10.67-1.43L853.16,582Z"/><path class="cls-55" d="M858.59,592.57l-12.31,2.5-4.55-.43a14.79,14.79,0,0,0-2.49,0,65.44,65.44,0,0,1-7.54.26c-4.25-.15-8-.36-11-.35a77.4,77.4,0,0,0-12,1.08,1,1,0,0,1-.24,0,1.88,1.88,0,0,1-1.53-3.12v0a1.78,1.78,0,0,1,.32-.28l.29-.17-.28.18a55.93,55.93,0,0,1,18.89-.84l.12-.57a56.86,56.86,0,0,0-18.94.77,1.7,1.7,0,0,1-.69-.48,1.81,1.81,0,0,1-.44-1.1,1.9,1.9,0,0,1,.39-1.28l.09-.12a1.14,1.14,0,0,1,.28-.26,56.74,56.74,0,0,1,18.94-.85l.12-.57a57,57,0,0,0-19,.79,1.82,1.82,0,0,1-.67-.49,1.91,1.91,0,0,1-.46-1.1,1.87,1.87,0,0,1,.39-1.28l.1-.12a1.34,1.34,0,0,1,.26-.27h0a56.6,56.6,0,0,1,19-.84l.12-.57a56.21,56.21,0,0,0-18.93.79h0a1.59,1.59,0,0,1-.45-.26,1.94,1.94,0,0,1-.69-1.33,1.91,1.91,0,0,1,.4-1.28l.09-.12a1.92,1.92,0,0,1,1.11-.69,70.65,70.65,0,0,1,17.36-1l1.35.11a.83.83,0,0,0,.54-.12l.16-.09a.9.9,0,0,0,.1-1.49.68.68,0,0,0-.41-.19,75.84,75.84,0,0,0-11.65-.94A1.87,1.87,0,0,1,813,575a2,2,0,0,1,.67-1.87l0,0a1.91,1.91,0,0,1,1.24-.47,73.08,73.08,0,0,1,13.85,1.29.08.08,0,0,1,.07,0l5.47,1.42,1.92.49.71.22,1,.27a9.18,9.18,0,0,0,3,.32h.7l18.18.12Z"/><path class="cls-50" d="M826.33,590.84l-.12.57a55.93,55.93,0,0,0-18.89.84l.28-.18.31-.14h0a2.33,2.33,0,0,1,.31-.11l.14-.05.09,0a1.82,1.82,0,0,1-.4,0,1.34,1.34,0,0,1-.4-.06,1,1,0,0,1-.27-.1A56.86,56.86,0,0,1,826.33,590.84Z"/><path class="cls-50" d="M826.08,587l-.12.57a56.74,56.74,0,0,0-18.94.85,1.52,1.52,0,0,1,.38-.24l.22-.11.23-.08.39-.08a.37.37,0,0,1-.11,0,1.56,1.56,0,0,1-.57,0,1.26,1.26,0,0,1-.43-.13A57,57,0,0,1,826.08,587Z"/><path class="cls-50" d="M825.82,583.07l-.12.57a56.6,56.6,0,0,0-19,.84,2.22,2.22,0,0,1,.46-.29l.19-.08.2-.06L808,584a2.06,2.06,0,0,1-1.15-.11A56.21,56.21,0,0,1,825.82,583.07Z"/><path class="cls-50" d="M825.82,583.07l-.12.57a56.6,56.6,0,0,0-19,.84,2.22,2.22,0,0,1,.46-.29l.19-.08.2-.05L808,584a2.06,2.06,0,0,1-1.15-.11A56.21,56.21,0,0,1,825.82,583.07Z"/><path class="cls-50" d="M826.08,587l-.12.57a56.74,56.74,0,0,0-18.94.85,1.52,1.52,0,0,1,.38-.24l.22-.11.24-.08.38-.08a.37.37,0,0,1-.11,0,1.56,1.56,0,0,1-.57,0,1.26,1.26,0,0,1-.43-.13A57,57,0,0,1,826.08,587Z"/><path class="cls-50" d="M826.33,590.84l-.12.57a55.93,55.93,0,0,0-18.89.84l.28-.18.31-.14h0a2.33,2.33,0,0,1,.31-.11l.14-.05.13,0h0a1.36,1.36,0,0,1-.4,0,1.34,1.34,0,0,1-.4-.06,1,1,0,0,1-.27-.1A56.86,56.86,0,0,1,826.33,590.84Z"/><path class="cls-20" d="M915.16,508.58c0,.32-.11.65-.17,1l-.06.36h0l-.21,1.15-.94,5,0,.16-1,5.07-.4,2.18v0l-.86,4.56h0l-2,10.49c-3.42,18.3-6.93,37.11-10.11,54.11h0l-.4,2.13-17.88,95.73L888,605l3.7-43.37v0a15.63,15.63,0,0,0,.29-2.07l.49-7.06.21-3,.05-.7L894,529.9a22.07,22.07,0,0,1,11.24-17.49c.87-.48,1.77-.94,2.67-1.36h0a14.37,14.37,0,0,0,7.43-12.66A34.59,34.59,0,0,1,915.16,508.58Z"/><path class="cls-56" d="M915.18,508.58c-.07.32-.13.65-.19,1,.06-.34.12-.67.17-1Z"/><path class="cls-57" d="M915,696.56v-3.2c-12.07,2.8-24.2,3.6-33.83-2.82-2.8,9-7.74,27.25-11.34,58.91-4.72,41.49-15.34,108-16.89,127.71a8.92,8.92,0,0,1,5,2.87,3.67,3.67,0,0,0,3.44,1.24l13.82-2.71h0c17.15-46.26,25.65-78.4,29.73-100.14,3.85-20.48,9.77-40.46,16.58-60.15a12.48,12.48,0,0,0,.68-3Z"/><path class="cls-18" d="M879.67,903.87l-.74.18H812.6s0-.1,0-.26,0-.22,0-.37a10.23,10.23,0,0,1,.29-2.13c.08-.29.16-.57.26-.84a13.49,13.49,0,0,1,1.56-3.16l.08-.12a12.84,12.84,0,0,1,2.26-2.61c.14-.13.3-.26.46-.39a15.9,15.9,0,0,1,6.19-3,35.07,35.07,0,0,0,5-1.74c.42-.18.85-.37,1.27-.57s.92-.43,1.36-.65l.14-.07c.78-.38,1.54-.79,2.3-1.2h0l1.5-.85c1.17-.68,2.31-1.4,3.39-2.1.22-.13.44-.27.65-.42s.44-.28.64-.42c1.1-.72,2.12-1.45,3-2.1h0c.4-.3.79-.57,1.16-.84h0c1.2-.9,2.18-1.67,2.85-2.22a4.86,4.86,0,0,1,2.9-1.06,12,12,0,0,1,3,.23l.37.09.39.1a3.62,3.62,0,0,1,.53.17l.45.17.27.1.57.28.2.11c.14.08.28.16.41.25a3.51,3.51,0,0,1,.4.27l.22.16c.13.09.25.2.37.3a5.36,5.36,0,0,1,.43.4l.44.46h0a3.65,3.65,0,0,0,3.44,1.24l7.58-1.49.61-.12.11,0,5.52-1.09h0a1.83,1.83,0,0,1,2.16,1.6c.46,3.85.81,6.83,1.09,9.36a2.83,2.83,0,0,1,0,.3c0,.18.05.37.07.54.19,1.79.34,3.36.47,4.86s.23,2.67.32,4.06c0,.28,0,.58.06.87a3,3,0,0,1,0,.31l0,.84,0,.69,0,.17Z"/><path class="cls-20" d="M879.53,901.29h-66.6c.08-.29.16-.57.26-.85h36.3c-.22-.4-.46-.8-.71-1.17s-.36-.55-.56-.81a20,20,0,0,0-3.33-3.57l-.4-.32c-.55-.44-1.1-.84-1.67-1.21l-.19-.13a31.66,31.66,0,0,0-12.58-4.37c.46-.2.92-.43,1.36-.65a31.44,31.44,0,0,1,11.65,4.31h5.26a24.5,24.5,0,0,0,4.68-.45c.45-.08.9-.18,1.35-.29l.48-.12,5.45-1.38.46-.11a25.47,25.47,0,0,1,5.77-.66h12a2.77,2.77,0,0,1,0,.3c0,.18,0,.37.06.54h-12.1a24.41,24.41,0,0,0-5.39.61l-.63.15-5.94,1.48a24.52,24.52,0,0,1-5,.73c-.39,0-.79,0-1.19,0h-4c.29.21.58.43.85.65l.15.12.37.31.12.11a3.33,3.33,0,0,1,.39.36,17.72,17.72,0,0,1,1.61,1.63c.19.21.36.43.53.66a1.11,1.11,0,0,1,.2.24,8.05,8.05,0,0,1,.49.66,2.57,2.57,0,0,1,.22.32c.19.27.38.56.55.85s.46.77.66,1.17h29Z"/><path class="cls-18" d="M994.85,556.8h0Z"/><polygon class="cls-58" points="918.93 538.06 918.91 538.09 918.92 538.06 918.93 538.06"/><path class="cls-18" d="M960.36,696.55s0,0,0,0h0l0,0Z"/><path class="cls-59" d="M940.25,495.39l-21.32,42.67h0c-2.71.9-5.34,1.07-9.35.51l3.22-17.25,1-5.07,0-.16.94-5,.21-1.15h0v0c0-.11.05-.22.06-.33.06-.34.12-.67.17-1a34.59,34.59,0,0,0,.23-10.2c-1-7-4.33-9.45-4.33-9.45-.43,0-.88-.09-1.3-.15-10.94-1.57-18.86-11.28-18.86-22.33V452.36c.11.37.24.72.36,1.07a28.76,28.76,0,0,0,2.87,5.71l.55.83c.29.41.57.8.86,1.19s.45.59.68.87l.52.63.63.73.92,1,0,0c.31.32.62.63.92.92l0,.05.48.45c.32.3.63.57.92.83l.44.37.06.06.34.28c.62.5,1.14.9,1.53,1.17l.27.19.12.09.29.2,0,0h0a.14.14,0,0,1,0-.09v-.09a4.37,4.37,0,0,1,4.37-4.37,4.48,4.48,0,0,1,4.27,3.5.07.07,0,0,1,0,.05l.06.4c0,.14,0,.28,0,.42v0a2.09,2.09,0,0,1,0,.25.31.31,0,0,1,0,.09.76.76,0,0,1,0,.15,3.06,3.06,0,0,1-.05.32h0l-.09.37a0,0,0,0,1,0,0c0,.1-.06.2-.1.3l-.06.14a1.23,1.23,0,0,1-.12.26l0,.07-.12.21a.62.62,0,0,1-.11.17,1.43,1.43,0,0,1-.14.2.47.47,0,0,1-.06.09,2.91,2.91,0,0,1-.24.27,3,3,0,0,1-.58.54l-.33.22-.35.2a4,4,0,0,1-.75.29h0a3.64,3.64,0,0,1-.8.15c.94.88,1.86,1.77,2.78,2.67l2.75,2.69a15.49,15.49,0,0,0,1.24,1.11l.44.35.49.36.07,0,.56.36c.2.13.4.24.6.35s.35.2.53.28l.56.26c.31.14.63.27,1,.38a1.15,1.15,0,0,0,.17.06l.55.19h0l.55.16.55.14.55.13.12,0,1,.18.57.1.9.12,1,.13.68.09c.54.06,1.07.14,1.59.23l.41.08.09,0,.47.09a12.34,12.34,0,0,1,2,.6l.47.2h0l.42.21a9.65,9.65,0,0,1,4.22,4.69c0,.06,0,.13.08.19l0,.06c.07.16.16.37.28.6v0l.13.25a1,1,0,0,1,.1.17A13.78,13.78,0,0,0,940.25,495.39Z"/><path class="cls-50" d="M937.66,608.6a25.79,25.79,0,0,0,1.69,3.84L952.94,602a94,94,0,0,1,5.76,15.85l-9.69,6-.47-.34a36.28,36.28,0,0,0,6.92,4.44S939.31,624.17,937.66,608.6Z"/><path class="cls-16" d="M961.86,691.52c-.79,3-1.45,4.89-1.52,5.08h0s0,0,0-.07a11.75,11.75,0,0,0-7.85-6.46c-6-1.82-14.07-.85-21.2.86h0a97.15,97.15,0,0,0-13.44,4.3l-.71.3-.47.21-.48.22-.21.1-.38.19c-.15.07-.29.15-.43.23l-.1.06h0v-3.2c-12.23,2.84-24.12,3.9-33.82-2.81l2.28-12.26,7.8-41.71,7.8-41.76v0c6,.74,13.18-.16,20.42-1.91.45.9,1,1.82,1.46,2.72,6.92,12.24,22.9,37.11,36.42,57.95a34.81,34.81,0,0,1,5.24,13.59A70.43,70.43,0,0,1,961.86,691.52Z"/><path class="cls-20" d="M961.86,691.52a70.49,70.49,0,0,0,.75-24.39,35,35,0,0,0-5.25-13.59c-13.51-20.84-29.49-45.7-36.42-57.94-.5-.91-1-1.82-1.45-2.72s-1-2-1.47-3.08a68.74,68.74,0,0,1-3.17-8.57,59.05,59.05,0,0,1,4.06-43.14v0h0l21.32-42.66c3.31,2.52,7.45,2.94,11.8,2.37a36.7,36.7,0,0,0,10.27,4.76l9.72,2.78a10.69,10.69,0,0,1,3.63,1.78h0c.18.13.35.27.52.42h0a20.58,20.58,0,0,1,6.34,10.3c1,3.84,3.05,13.83,5,23.27.06.34.13.67.21,1,2.06,10,3.88,19.16,3.88,19.16l.55,2.77c3.12,16.68,10.1,24.85-12.72,40.74l38.27,61.38Z"/><path class="cls-60" d="M967,612.71l-14.75,8.42a12.62,12.62,0,0,0-3.27,2.72,34.44,34.44,0,0,1-9.73-11.35,15.44,15.44,0,0,1,4-4l12.84-8.94Z"/><path class="cls-40" d="M954.47,542.58l13.79,34.13a5.51,5.51,0,0,1-.56,5.17l-12.41,16.76,9.87-18.33a3.83,3.83,0,0,0,.22-2.82Z"/><polyline class="cls-1" points="947.96 639.04 943.9 632.65 936.56 621.16 934.37 617.72"/><path class="cls-40" d="M955.46,627.94a30.48,30.48,0,0,1-7.2-3.12,24.61,24.61,0,0,1-4.82-3.8,20.79,20.79,0,0,1-4.77-7.57,18.29,18.29,0,0,1-1-4.89,26,26,0,0,0,1.62,3.94A34.44,34.44,0,0,0,949,623.85,38,38,0,0,0,955.46,627.94Z"/><path class="cls-18" d="M919.49,592.88c-9.71,2.31-16.33,2.38-20.43,1.94l.4-2.14h0l6.1-32.61,4-21.5c4,.56,6.63.39,9.34-.51v0a59.07,59.07,0,0,0-4.06,43.15A69.81,69.81,0,0,0,918,589.8C918.47,590.83,919,591.85,919.49,592.88Z"/><polygon class="cls-58" points="899.46 592.68 905.56 560.07 899.47 592.68 899.46 592.68"/><path class="cls-50" d="M1040.59,488.77c-10.82,15-33,18.66-49.13,10.55-1.6-.76-3.07-1.44-4.45-2.07a37,37,0,0,0-26.55-1.53c-9.38,3-19.78,4.71-24.63-6.22a9.53,9.53,0,0,0-4.64-4.9c-5-2.27-11.17-.14-17.14-6-1.83-1.8-3.66-3.61-5.54-5.36a4.38,4.38,0,0,0,4-4.59,4.43,4.43,0,0,0-4.34-4.13,4.37,4.37,0,0,0-4.39,4.37,1.09,1.09,0,0,0,0,.18h0l0,0c-.91-.58-16.79-11.19-13.61-28.92a30.55,30.55,0,0,1,1.27-4.75c5.4-13.56,24.8-20.18,48.77-5.54,29.13,17.8,41.83-8.44,59.77,1.42,9.55,6.87,1.1,10.09,6.14,19.89C1013.39,470.66,1056.51,458.47,1040.59,488.77Z"/><path class="cls-50" d="M893.76,477.47a4.07,4.07,0,0,1-1.73-.34l.44-.9c.13.06,3.18,1.44,7-3.26l.78.64C897.66,476.8,895.28,477.47,893.76,477.47Z"/><path class="cls-61" d="M881.25,690.54v.05s0,0-.07-.05Z"/><path class="cls-20" d="M833.86,886.94h11.52v-.85h-10C834.86,886.38,834.36,886.66,833.86,886.94Z"/><path class="cls-20" d="M838.75,884h11v-.85H840Z"/><path class="cls-20" d="M843.07,881.05h11.16v-.85h-10Z"/><path class="cls-18" d="M977.36,904.05H910.28s0-.1,0-.26a1.9,1.9,0,0,0,0-.37,10.94,10.94,0,0,1,.3-2.13,8.29,8.29,0,0,1,.25-.85,13,13,0,0,1,1.57-3.15.5.5,0,0,1,.08-.12,12.29,12.29,0,0,1,2.26-2.61s0,0,0,0l.43-.36a16,16,0,0,1,6.19-3,36.08,36.08,0,0,0,5.05-1.75c.42-.18.85-.36,1.26-.56s.92-.43,1.37-.65l.14-.07c.78-.38,1.54-.79,2.3-1.2h0l1.49-.85c1.17-.68,2.31-1.4,3.4-2.1.22-.13.44-.27.65-.42l.64-.42c1.09-.72,2.11-1.45,3-2.1h0l1.16-.84h0c1.2-.9,2.17-1.67,2.85-2.22a4.92,4.92,0,0,1,2.9-1.07,12.4,12.4,0,0,1,3,.24l.38.09a2.66,2.66,0,0,1,.38.1,3.74,3.74,0,0,1,.54.17,4.13,4.13,0,0,1,.45.17l.26.1.58.28.2.11.41.24.4.27.22.17.37.3a5.36,5.36,0,0,1,.43.4c.15.15.29.3.43.46h0a3.64,3.64,0,0,0,3.43,1.24l6.44-1.26,1.15-.23.61-.12.11,0,4.25-.84h0l1.23-.24h0a1.83,1.83,0,0,1,2.17,1.6c.45,3.85.8,6.82,1.09,9.36a2.83,2.83,0,0,1,0,.3c0,.18,0,.37.06.54.2,1.79.35,3.36.48,4.86s.23,2.66.32,4.06c0,.28,0,.57,0,.87,0,.1,0,.2,0,.3l.05.85,0,.69,0,.16Z"/><path class="cls-20" d="M977.22,901.29h-66.6c.07-.29.16-.57.25-.85h36.3a12.56,12.56,0,0,0-.71-1.17,9,9,0,0,0-.56-.81,19.6,19.6,0,0,0-3.33-3.57c-.13-.11-.26-.22-.4-.32-.54-.44-1.1-.84-1.66-1.21l-.19-.13a31.71,31.71,0,0,0-12.58-4.37c.46-.2.91-.43,1.36-.65a31.47,31.47,0,0,1,11.64,4.31H946a24.39,24.39,0,0,0,4.67-.45c.46-.08.91-.18,1.36-.29l.47-.12,5.45-1.38.47-.11a25.38,25.38,0,0,1,5.76-.66h12a1.45,1.45,0,0,1,0,.3c0,.18,0,.37.06.54h-12.1a24.32,24.32,0,0,0-5.38.61l-.63.15-5.95,1.48a24.42,24.42,0,0,1-5,.73c-.39,0-.78,0-1.18,0h-4c.28.21.57.43.84.65l.16.12a3.65,3.65,0,0,1,.36.31l.13.11a4.38,4.38,0,0,1,.39.36,17.63,17.63,0,0,1,1.6,1.63q.28.32.54.66a1.5,1.5,0,0,1,.2.24,8,8,0,0,1,.48.66,1.86,1.86,0,0,1,.23.32c.19.27.37.56.54.85s.46.77.67,1.17h29Z"/><path class="cls-20" d="M931.54,886.94h11.53v-.85H933C932.55,886.38,932.05,886.66,931.54,886.94Z"/><path class="cls-20" d="M936.43,884h11.06v-.85h-9.76Z"/><path class="cls-20" d="M940.75,881.05h11.17v-.85h-10Z"/><path class="cls-61" d="M916.39,695.86c.25-.11.53-.24.83-.36Z"/><path class="cls-61" d="M917.22,695.5c.36-.16.76-.32,1.19-.49Z"/><path class="cls-62" d="M887.91,654.5h0"/><path class="cls-62" d="M961.22,661.46h0"/><path class="cls-63" d="M976.21,507.52c-16.48,10.71-35.6,46.37-35.79,46.72l-.55-.28c.19-.37,19.22-36,35.82-46.86h0C975.87,507.23,976,507.37,976.21,507.52Z"/><path class="cls-63" d="M960,560.13l.18.59a81.85,81.85,0,0,1-10.84,2.79l-.1-.62A81.42,81.42,0,0,0,960,560.13Z"/><path class="cls-63" d="M987.77,542.1c-5.74,9.45-17.23,15-26.17,18.13l-.23-.57c8.93-3.08,20.44-8.68,26-18.17a4,4,0,0,0,.16-.39C987.62,541.44,987.69,541.77,987.77,542.1Z"/><path class="cls-63" d="M940.33,573.89l-22.14,16.28c-.06-.13-.12-.24-.17-.37s-.07-.14-.1-.22l22-16.19Z"/><path class="cls-63" d="M996.89,632.7c-7.69,22-29.6,31-34.57,32.83,0-.21-.08-.42-.13-.62C967.26,663.06,989,654,996.47,632l.24.39h0l.17.27Z"/><path class="cls-63" d="M981.38,607.83c-4.67,3.92-20.6,17.94-30.81,35.21l-.38-.58c10.31-17.32,26.27-31.33,30.86-35.17l0,.05h0Z"/><polygon class="cls-63" points="1001.59 667.97 1001.59 673.49 1000.96 673.77 1000.96 667.97 1001.59 667.97"/><path class="cls-63" d="M912.39,523.52l-.86,4.56h0c-2.39,6.42-6,12.57-11.42,17a26.25,26.25,0,0,1-7.45,4.36l.05-.7a26.41,26.41,0,0,0,7-4.17C906.28,539.22,910.12,531.32,912.39,523.52Z"/><polygon class="cls-63" points="897.03 605.68 896.84 606.71 887.14 615.6 887.21 614.68 897.03 605.68"/><path class="cls-50" d="M908.51,473.21a4.37,4.37,0,0,0,1.57-.44,4.13,4.13,0,0,1-1.56.44Z"/><path class="cls-50" d="M911.34,471.81a3,3,0,0,1-.58.54A3.71,3.71,0,0,0,911.34,471.81Z"/><path class="cls-50" d="M912.48,469.22c0-.11,0-.23,0-.34a2.09,2.09,0,0,1,0,.25A.28.28,0,0,1,912.48,469.22Z"/><path class="cls-64" d="M971.72,878.79c-.57.12-4.57.89-5,1-2.52.1-9.13,3.07-11,.25a8.94,8.94,0,0,0-5.05-2.87c-7.46-27.77-16.92-65.51-23.75-96.13-6.23-27.55-12.45-57.28-11.88-84.47l.1-.06c.14-.08.28-.16.43-.23l.38-.19.21-.1.48-.22.47-.21.71-.3a97.15,97.15,0,0,1,13.44-4.3h0c7.13-1.71,15.19-2.68,21.2-.86a11.75,11.75,0,0,1,7.85,6.46s0,.05,0,.07h0A288.46,288.46,0,0,0,963,767.55C966.46,788.71,969.93,823.08,971.72,878.79Z"/><path class="cls-65" d="M960.35,696.6h0s0,0,0-.07,0,0,0,.05h0Z"/><path class="cls-20" d="M892.65,549.73l-.52,7.36L888.77,595l-48.55,2.21s.36-1.06.82-2.74c1.05-3.81,2.65-10.87,1.94-16.46a14.24,14.24,0,0,0-.72-3.12l22.38-2.36.76-.08,11-1.17C885.13,570.39,891.93,558.42,892.65,549.73Z"/><path class="cls-40" d="M892,559.57,888.77,595l-10.16.46S889.16,590.68,892,559.57Z"/><polygon class="cls-63" points="873.57 581.69 873.11 582.1 864.64 572.56 865.4 572.48 873.57 581.69"/><path class="cls-40" d="M915,693.36q-.56-9.72-.72-19.48c-.09-6.51-.07-13,.43-19.6l3.37.43c-1,6.3-1.63,12.76-2.1,19.22S915.2,686.87,915,693.36Z"/><path class="cls-66" d="M761.69,546.91c-5-16.59-11-32.64-21.45-46l.69-5.05L741,495a55.52,55.52,0,0,0,8.18,4.45l-1.75,4.82,7.08,1.63a154.86,154.86,0,0,1,14.56,59.74l3.39,93.69-4.51-26-3-8,1-.14h0l-.41-23Z"/><path class="cls-67" d="M704.77,478.92l1-1.34,3.73-5,0,0h0c8.92,5.28,20,15.59,25.15,21.66l.82-5.93A73.59,73.59,0,0,0,741,495l-.8,5.9c20.24,24.65,26.41,57.91,27,90.06Q767.59,613,769.1,635v0a116.13,116.13,0,0,1-29.57,3.46.45.45,0,0,1,0-.11c1.68-20.74,5.42-42.77,4.9-61.24"/><polygon class="cls-68" points="656.05 814.76 664.78 806.69 674.46 831.35 664.25 834 648.59 834.9 656.05 814.76"/><polygon class="cls-69" points="696.25 871.54 694.89 860.04 715.58 859.06 716.73 868.43 711.49 878.31 696.25 871.54"/><path class="cls-70" d="M687.64,828.38l-1.37.94-10.72,7.32c-14.65-17.78-14.24-36.34-14.24-36.34l21.3-14,1.27-.84Z"/><path class="cls-70" d="M784.87,725.78l-.19-1L769.1,635q-7.12,1.46-14.35,2.31c-4.81.57-9.65.94-14.49,1.12l-.73,0-.89,11.09c-.64,5.94-3,11.75-8.21,13.93a12.47,12.47,0,0,1-4.94.92l-46.69-4.16c-2.55,35,1.81,82.5,5.05,125.19C686.94,826.3,691,859.3,691,859.3a55.49,55.49,0,0,0,29.55-1.62s-.16-25.12,1.44-52.11l1.33-.88,36.56-24.24C795.63,756.52,789,748.67,784.87,725.78Zm-47.66,24.15-11.92,7.94-1.33.88c1.48-20.67,3.36-43,7.83-78.43l11.41,55A14.09,14.09,0,0,1,737.21,749.93Z"/><path class="cls-71" d="M774.08,601.87l1.65,47.84a13.25,13.25,0,0,0,5.61-14.25Z"/><path class="cls-50" d="M755.33,506.51l0,0S755.31,506.48,755.33,506.51Z"/><path class="cls-58" d="M710.42,484c-2.59-2.28-4.43-3.23-4.89-4.48A56.32,56.32,0,0,1,710.42,484Z"/><path class="cls-72" d="M754.55,505.87h0l-7.08-1.64,1.75-4.81h0a34,34,0,0,0,6.2,1.53c7.69,1.15,18.6,14.38,18.6,28.23l1.89,125.16a4.92,4.92,0,0,1-2.07,4l-1.34,1-3.37-93.2A154.81,154.81,0,0,0,754.55,505.87Z"/><path class="cls-66" d="M716.39,513.7h0a144.32,144.32,0,0,0-15.85-16.46h0l0,0h0l3.42-2.47A1.08,1.08,0,0,0,704,493l-7.44-6.28a57.36,57.36,0,0,0,8.22-7.84l.76.61a56.32,56.32,0,0,1,4.89,4.48l0,0c19.68,20.07,33.82,59.56,36,88.74C740.8,552.81,729.46,529.61,716.39,513.7Z"/><path class="cls-66" d="M795.09,576.07s6.65,6.61,3.46,26.5l-10.66-4.43-3.6-14Z"/><path class="cls-73" d="M815.76,579.43a2.06,2.06,0,0,0,1.27-3.5l-.12-.11a2,2,0,0,0-1.64-.6,133.48,133.48,0,0,0-19.6,3.37,1.92,1.92,0,0,0-1.26,1c-3,5.94-1.78,14.49-1.15,17.71a1.88,1.88,0,0,0,1.54,1.52,139.15,139.15,0,0,0,35.24,1.1,2,2,0,0,0,1.48-.9l0,0a2.15,2.15,0,0,0,.39-1.53,2,2,0,0,0-1.05-1.51,2.11,2.11,0,0,0-1-.25,2.51,2.51,0,0,0,1.09-.41h0a2.19,2.19,0,0,0,.5-.51l0,0a2.15,2.15,0,0,0,.11-2.32,1.94,1.94,0,0,0-.76-.72,2,2,0,0,0-1-.26l-.2,0c.11,0,.22,0,.33,0a2,2,0,0,0,1-.4,1.7,1.7,0,0,0,.49-.51l0,0a2.13,2.13,0,0,0,.11-2.31,2,2,0,0,0-.76-.73,2.11,2.11,0,0,0-1-.25h-.2l.26,0a2.11,2.11,0,0,0,1-.4,2.14,2.14,0,0,0,.52-.52l.1-.13a2,2,0,0,0-1.71-3.19h-.2a109.51,109.51,0,0,1-24.79-.21.58.58,0,0,1-.06-1.13l.06,0a52,52,0,0,1,10.84-2.15Z"/><path class="cls-50" d="M829.91,595.69a2.11,2.11,0,0,1,1,.25,100,100,0,0,1-11.78.7c-4.56,0-8.66-.3-12.68-.59l0-.64c7.2.52,14.63,1.05,24.52-.13A2.51,2.51,0,0,1,829.91,595.69Z"/><path class="cls-50" d="M829.91,591.43a2,2,0,0,1,1,.26,102,102,0,0,1-11.78.69c-4.56,0-8.66-.3-12.68-.59l0-.64c7.2.52,14.64,1.06,24.55-.13a2,2,0,0,1-1,.4c-.11,0-.22,0-.33,0Z"/><path class="cls-50" d="M829.91,587.18a2.11,2.11,0,0,1,1,.25,99.84,99.84,0,0,1-11.78.69c-4.56,0-8.66-.3-12.68-.59l0-.64c7.2.52,14.63,1.06,24.52-.12a2.11,2.11,0,0,1-1,.4l-.26,0Z"/><path class="cls-50" d="M717.09,445.45a4.2,4.2,0,0,1,.93-.37A5,5,0,0,0,717.09,445.45Z"/><path class="cls-74" d="M734.63,494.62l1-7a.17.17,0,0,0,0-.07A43,43,0,0,1,738.9,478a21.82,21.82,0,0,1,2.46-3.9,6.56,6.56,0,0,1,.58-.64h0a26.06,26.06,0,0,0,16.94-16.86h0L760.1,448l2.06-14.19c-8.81,3-21,2.47-25.64,2-2.1-.33-3.14,2-4,3.5-1.51,2.28-1.41,5-1.87,7.56-.88,3.41-2.55,6.24-6.6,7.22,5.62-9.23-10-13.89-10.37-2.33a8.47,8.47,0,0,0-.06,1.13c0,14.4-4.14,19.66-4.14,19.66S724.79,484.21,734.63,494.62Z"/><path class="cls-50" d="M772,420.92a7,7,0,0,0-1.94-3.76,5.47,5.47,0,0,0-.51-.45l-.27-.22a8.92,8.92,0,0,0-.89-.56c-.31-.16-.64-.31-1-.45a7,7,0,0,0-.69-.24,14.17,14.17,0,0,0-6.86-.14c-.57.11-1.15.25-1.73.42-.3.08-.59.18-.88.28a23.62,23.62,0,0,0-3.55,1.53,27.28,27.28,0,0,0-4.32,2.88,2.15,2.15,0,0,1-.45.2c-1.58.49-2-2-.76-3.14a8.57,8.57,0,0,0,1.15-8c-4-11.56-22.86,9.6-24.05,18-7.06-21.09-16.49,10.82-12.8,25.18a.74.74,0,0,0,1.19.4c0-.13,0-.26,0-.39v-.21a2.45,2.45,0,0,0,0-.27,2.28,2.28,0,0,0,0-.26l0-.41a0,0,0,0,1,0-.05,3,3,0,0,1,0-.42,6.88,6.88,0,0,1,.11-.81,3.2,3.2,0,0,1,.07-.33c0-.14.06-.28.1-.41s.07-.23.11-.35a2.19,2.19,0,0,1,.12-.33,1.75,1.75,0,0,1,.12-.32,4.65,4.65,0,0,1,.3-.59c.07-.13.15-.26.23-.38s0,0,0,0,.2-.28.31-.41l.34-.39a5.14,5.14,0,0,1,.42-.38h0a3.72,3.72,0,0,1,.45-.33,7,7,0,0,1,.71-.39l.36-.14.23-.08.17-.06H718l.08,0,.11,0,.14,0,.1,0h0l.26,0h0a7.59,7.59,0,0,1,1.17,0l.4,0,.31.05.22.05.23,0h0l.51.16.26.1.24.11.17.08.08,0,.23.12.45.29.42.33.15.13.05.05.19.19c.11.11.21.23.31.35a2.45,2.45,0,0,1,.26.37s0,0,0,0,.15.25.23.38.14.28.2.43a2.69,2.69,0,0,1,.16.45.83.83,0,0,1,.06.21,2.68,2.68,0,0,1,.07.27c0,.08,0,.17,0,.25a4.9,4.9,0,0,1,.06.77v.06h0c0,.12,0,.24,0,.37s0,.3,0,.45h0c0,.14,0,.28-.09.43a5.39,5.39,0,0,1-.24.82c0,.08-.07.17-.1.26a9.17,9.17,0,0,1-.42.92c-.09.17-.19.35-.3.52.22-.05.43-.11.64-.18s.3-.1.44-.15l.33-.12.32-.14.2-.1.4-.2.49-.3a4.71,4.71,0,0,0,.45-.33c.13-.1.25-.19.37-.3a5.77,5.77,0,0,0,.44-.42,8,8,0,0,0,.83-1,3.37,3.37,0,0,0,.22-.35,1.06,1.06,0,0,0,.12-.2l.1-.17h0a.86.86,0,0,0,.1-.16l0-.09c.09-.16.17-.33.25-.5h0s0,0,0,0v0s0,0,0-.05.1-.25.16-.38a.69.69,0,0,0,.05-.13c.16-.4.29-.8.42-1.22.06-.21.11-.42.17-.63.14-.78.22-1.56.32-2.34v0c0-.34.09-.68.14-1a16.13,16.13,0,0,1,.37-1.81.14.14,0,0,1,0-.06,1.71,1.71,0,0,1,.09-.3,1.4,1.4,0,0,1,.09-.29l0-.08.11-.31c.06-.14.11-.27.18-.4a.36.36,0,0,1,0-.09c.07-.14.14-.27.22-.4a2.73,2.73,0,0,1,.26-.43h0c.1-.17.19-.36.3-.55l.16-.29c.13-.23.26-.47.41-.71l.3-.46h0l.15-.2c.06-.07.11-.14.17-.2s.11-.12.16-.19l.18-.17.07-.07.17-.14a1.43,1.43,0,0,1,.22-.15,2.39,2.39,0,0,1,.65-.3l.28-.07h0l.33,0,.39,0a81.47,81.47,0,0,0,9,.36l1,0h0l1,0,1.11,0,1.12-.07h.1l1-.08h.11l1-.09,1.3-.14.95-.13h0l1.1-.16.24,0,.94-.16,1.12-.22c.27-.05.54-.11.8-.18l.33-.07,1.07-.27.27-.07.78-.23h0l.8-.25.23-.08h0l.52-.18.52-.2.51-.2a19.77,19.77,0,0,0,2.84-1.41l.43-.27c.22-.14.44-.29.64-.44a3.55,3.55,0,0,0,.31-.23l.28-.21c.12-.11.24-.2.35-.31s.24-.21.36-.32l.34-.33a9.76,9.76,0,0,0,1.69-2.25,2.74,2.74,0,0,0,.21-.42,3.17,3.17,0,0,0,.19-.42,7.6,7.6,0,0,0,.46-1.37c0-.14.07-.29.11-.44s0-.12,0-.18,0-.1,0-.14v0h0a1.87,1.87,0,0,0,0-.32,8.08,8.08,0,0,0,.08-.86A12.16,12.16,0,0,0,772,420.92Zm-37.33,14.67h0Z"/><path class="cls-50" d="M772,420.92a7,7,0,0,0-1.94-3.76c-.16-.16-.33-.3-.51-.45l-.27-.22c-.28-.2-.58-.38-.89-.56s-.64-.31-1-.45-.45-.17-.69-.24a14.17,14.17,0,0,0-6.86-.14c-.58.11-1.15.25-1.73.42-.3.08-.59.18-.88.28a24.69,24.69,0,0,0-3.55,1.53,27.28,27.28,0,0,0-4.32,2.88,2.15,2.15,0,0,1-.45.2c-1.58.49-2-2-.76-3.14a8.57,8.57,0,0,0,1.15-8c-4-11.56-22.86,9.6-24.05,18-7.06-21.09-16.49,10.82-12.8,25.18a.74.74,0,0,0,1.19.4v-.25l.05-7.34,10.8-4,11.55-10.93,19.47-2.37,6.86,4.37-.22,1.48.52-.18.52-.2.51-.2a19.77,19.77,0,0,0,2.84-1.41l.43-.27c.22-.14.44-.29.64-.44a3.55,3.55,0,0,0,.31-.23l.28-.21c.12-.11.24-.2.35-.31s.24-.21.36-.32l.34-.33a9.76,9.76,0,0,0,1.69-2.25,2.74,2.74,0,0,0,.21-.42,3.17,3.17,0,0,0,.19-.42,7.6,7.6,0,0,0,.46-1.37c0-.14.07-.29.11-.44s0-.12,0-.18,0-.1,0-.14v0a0,0,0,0,0,0,0h0a1.87,1.87,0,0,0,0-.32,8.08,8.08,0,0,0,.08-.86A12.16,12.16,0,0,0,772,420.92Z"/><path class="cls-48" d="M741.94,473.49a7.92,7.92,0,0,0-.58.65,28.17,28.17,0,0,1-7.32-1.65,15.74,15.74,0,0,1-6.22-4.2,26.07,26.07,0,0,0,14.12,5.2Z"/><path class="cls-66" d="M663.91,836a.65.65,0,0,1,0,.13,20.78,20.78,0,0,1-3.72,6.83q-.36.46-.69.93a.86.86,0,0,0-.07.1,26,26,0,0,0-1.41,2.24,1.28,1.28,0,0,0-.15.25c-.24.42-.44.81-.62,1.19h0c-.14.29-.27.57-.38.84a.13.13,0,0,0,0,.08,15.66,15.66,0,0,0-.91,2.76h0a8.84,8.84,0,0,0-.29,2.43,15.1,15.1,0,0,0-.07,1.64c0,5.26.41,11-.37,16.07a14.14,14.14,0,0,0-15.79-7l.19.73a14.23,14.23,0,0,1,10.24,1.62,14.54,14.54,0,0,1,5.15,5.79c-1.08,5.54-3.75,10.22-10.06,12.6l-3.47.92-10.75-40.34a7.53,7.53,0,0,1-.23-2.06l.35-9.74a.91.91,0,0,0-1.14-.92l-2.22.58-3.49-13.12c13-3.46,19-4.66,19-4.66,1.2,4.87.1,8.84-3.29,11.84A16,16,0,0,1,634,831l.19.73c.24-.07,5.76-1.58,8.53-6.35a12.48,12.48,0,0,0,1-9.51A74.34,74.34,0,0,1,656,814.76h.09c.53,2.63-.62,9.48,2.72,10.67C662.36,827.23,665.28,832.08,663.91,836Z"/><path class="cls-67" d="M663.91,836a.65.65,0,0,1,0,.13,20.78,20.78,0,0,1-3.72,6.83l-2.85-10.67-.87.24,3,11.36a.86.86,0,0,0-.07.1,26,26,0,0,0-1.41,2.24,1.28,1.28,0,0,0-.15.25l-2.35-8.8-.87.22,2.6,9.77h0c-.14.29-.27.57-.38.84a.13.13,0,0,0,0,.08,15.66,15.66,0,0,0-.91,2.76L653.66,843l-.87.24,2.81,10.53a15.1,15.1,0,0,0-.07,1.64c0,5.26.41,11-.37,16.07a14.14,14.14,0,0,0-15.79-7l.19.73a14.23,14.23,0,0,1,10.24,1.62,14.54,14.54,0,0,1,5.15,5.79c-1.08,5.54-3.75,10.22-10.06,12.6l-3.47.92-10.75-40.34a7.53,7.53,0,0,1-.23-2.06l.35-9.74a.91.91,0,0,0-1.14-.92l-2.22.58-3.49-13.12c13-3.46,19-4.66,19-4.66,1.2,4.87.1,8.84-3.29,11.84A16,16,0,0,1,634,831l.19.73c.24-.07,5.76-1.58,8.53-6.35a12.48,12.48,0,0,0,1-9.51A74.34,74.34,0,0,1,656,814.76h.09c.53,2.63-.62,9.48,2.72,10.67C662.36,827.23,665.28,832.08,663.91,836Z"/><path class="cls-66" d="M655.16,871.51v0l-.21,1.16a14.54,14.54,0,0,0-5.15-5.79,14.23,14.23,0,0,0-10.24-1.62l-.19-.73a14.14,14.14,0,0,1,15.79,7Z"/><path class="cls-66" d="M642.69,825.33c-2.77,4.77-8.29,6.28-8.53,6.35L634,831a16,16,0,0,0,5.71-3.16c3.39-3,4.49-7,3.29-11.84,0,0,.34-.07.75-.13A12.48,12.48,0,0,1,642.69,825.33Z"/><path class="cls-66" d="M718.81,869.34l.12.08a20.58,20.58,0,0,1,5.63,5.36l.72.9.08.1c.62.73,1.22,1.38,1.8,1.94a1.39,1.39,0,0,0,.21.21c.34.34.67.63,1,.9h0c.25.22.49.41.72.6l.07.05a17,17,0,0,0,2.43,1.59h0a8.76,8.76,0,0,0,2.27.91c.52.19,1,.35,1.57.49,5.09,1.33,10.7,2.43,15.43,4.51a14.16,14.16,0,0,0-10.81,13.46h.75A14.24,14.24,0,0,1,745,891a14.39,14.39,0,0,1,6.92-3.48c5.07,2.48,8.9,6.26,9.57,13v3.58l-41.74,0a7.37,7.37,0,0,1-2-.31l-9.32-2.86a.92.92,0,0,0-1.19.87V904l-13.58,0c0-13.42.43-19.59.43-19.59,5,.1,8.56,2.19,10.58,6.24a15.83,15.83,0,0,1,1.57,6.33H707c0-.24,0-6-3.93-9.87a12.43,12.43,0,0,0-8.92-3.45,75.08,75.08,0,0,1,2.14-12.1l0-.09c2.67.16,9,3,11,.13C709.94,868.57,715.39,867,718.81,869.34Z"/><path class="cls-67" d="M718.81,869.34l.12.08a20.58,20.58,0,0,1,5.63,5.36h-11v.9h11.75l.08.1c.62.73,1.22,1.38,1.8,1.94a1.39,1.39,0,0,0,.21.21h-9.11v.9h10.11c.25.22.49.41.72.6l.07.05a17,17,0,0,0,2.43,1.59H723v.9h10.9c.52.19,1,.35,1.57.49,5.09,1.33,10.7,2.43,15.43,4.51a14.16,14.16,0,0,0-10.81,13.46h.75A14.24,14.24,0,0,1,745,891a14.39,14.39,0,0,1,6.92-3.48c5.07,2.48,8.9,6.26,9.57,13v3.58l-41.74,0a7.37,7.37,0,0,1-2-.31l-9.32-2.86a.92.92,0,0,0-1.19.87V904l-13.58,0c0-13.42.43-19.59.43-19.59,5,.1,8.56,2.19,10.58,6.24a15.83,15.83,0,0,1,1.57,6.33H707c0-.24,0-6-3.93-9.87a12.43,12.43,0,0,0-8.92-3.45,75.08,75.08,0,0,1,2.14-12.1l0-.09c2.67.16,9,3,11,.13C709.94,868.57,715.39,867,718.81,869.34Z"/><path class="cls-66" d="M750.86,887h0l1.06.5A14.39,14.39,0,0,0,745,891a14.24,14.24,0,0,0-4.22,9.47h-.75A14.16,14.16,0,0,1,750.86,887Z"/><path class="cls-66" d="M703,887.09c3.9,3.91,3.93,9.63,3.93,9.87h-.76a15.83,15.83,0,0,0-1.57-6.33c-2-4-5.58-6.14-10.58-6.24,0,0,0-.34.06-.75A12.43,12.43,0,0,1,703,887.09Z"/><path class="cls-72" d="M798.55,602.58l-53.69-3.91c-.81,8.49-1.84,17.29-2.92,25.89-.84,6.58-1.74,13.12-2.67,19.66-.1.67-.19,1.34-.26,2h0c-.14,1.11-.26,2.22-.37,3.33-.82,7.56-4.41,14.91-13.15,14.85l-44.41-4-17.62-1.58-.75-.07-3.25-.3,11.61-102.31.09-.69,5.15-45.42c.87-13.58,11.8-17.08,20.23-23.3,1.89,1.58,4.17,3.51,6.14,5.17,3.34,2.26,1.27,2.67-.91,4.36a6.38,6.38,0,0,0-1.27.92h0s0,0,0,0h0a142.12,142.12,0,0,1,15.84,16.45h0c12.64,16.07,25.5,34.36,29.68,54.69a19.23,19.23,0,0,1,.4,4.22v0l48.63,3.45S793.18,591.73,798.55,602.58Z"/><path class="cls-66" d="M699.14,627.88a31.43,31.43,0,0,0,8.05-1.43,26,26,0,0,0,5.81-2.69,21.84,21.84,0,0,0,6.67-6.52,18.92,18.92,0,0,0,2.22-4.73,26.78,26.78,0,0,1-2.6,3.61,35.94,35.94,0,0,1-12.61,9.17A39.77,39.77,0,0,1,699.14,627.88Z"/><path class="cls-66" d="M676.4,542.31l25.28,51.61a5.7,5.7,0,0,0,4.61,2.76l34.35,1.76-34.07-4.83a3.94,3.94,0,0,1-2.46-1.57Z"/><path class="cls-66" d="M724.49,555.21l3.55,9.93a7.33,7.33,0,0,0,4.64,4.62,4.84,4.84,0,0,0,.51.14l8.59,1.94-8.85-4.29-.38-.15A5.5,5.5,0,0,1,730,565Z"/><circle class="cls-66" cx="739.23" cy="508.76" r="0.97"/><circle class="cls-66" cx="748.5" cy="533.62" r="0.97"/><circle class="cls-66" cx="755" cy="559.25" r="0.97"/><circle class="cls-66" cx="756.93" cy="613.84" r="0.97"/><polygon class="cls-66" points="725.29 757.87 723.32 804.69 721.99 805.57 723.96 758.75 725.29 757.87"/><polygon class="cls-66" points="687.64 828.38 686.26 829.32 682.61 786.26 683.88 785.42 687.64 828.38"/><path class="cls-50" d="M752.05,468.55a7.16,7.16,0,0,1-5.86-3.19l.86-.51a6,6,0,0,0,7,2.41l.27,1A8.22,8.22,0,0,1,752.05,468.55Z"/><path class="cls-75" d="M158.06,875.91c2.35,8.39,6.55,20,9.73,28.14C94.3,888.93,37.64,820.36,37.84,742.39a24.62,24.62,0,0,0-4.06-13.47A194.12,194.12,0,0,1,4.44,660.81,108.89,108.89,0,0,0,17,677.5c15.72,17.09,37,27.56,59.09,33.81,22.27,6.3,43.54,8.76,66.44,10.8q-.6,13.33-.64,26.67a526.29,526.29,0,0,0,4,66.75A397.88,397.88,0,0,0,158.06,875.91Z"/><path class="cls-76" d="M522.65,721.82c-3.85,49.28-31.53,94.83-69.3,126.72C422.34,874.73,385,892.39,346,904c0,0-152.71.13-155.56,0a374.78,374.78,0,0,1,87.5-127.35A368.63,368.63,0,0,1,346.56,725a378.69,378.69,0,0,1,81.52-35.48,374.73,374.73,0,0,1,87.52-15.42c2.2-.11,2.21-3.57,0-3.45-3.64.19-7.26.45-10.89.75a381.21,381.21,0,0,0-169.22,56.26,372.2,372.2,0,0,0-67.14,53.59A375,375,0,0,0,186.8,904H170.42c-5.28-13.24-9.55-29.38-12.81-43.26a427.57,427.57,0,0,1-10.05-61.57q-1-11.26-1.56-22.56-1-20-.53-40.05l.12-4.28a622.77,622.77,0,0,1,20-139,553.94,553.94,0,0,1,21.85-66.37,441.82,441.82,0,0,1,30-61,343.44,343.44,0,0,1,30.67-43.42c1.92-2.34,3.85-4.66,5.77-7,5.1-6.2,10.22-12.54,16.7-17.38a69.1,69.1,0,0,1,21.15-10.59,73.44,73.44,0,0,1,28.87-2.85c1.54.16,3.08.37,4.61.63a72.8,72.8,0,0,1,24.18,8.68l4.82,2.78a58.09,58.09,0,0,1,15.47,87.87L354,503.23A1045.84,1045.84,0,0,1,274.9,587c-1.15,1.1-2.3,2.2-3.45,3.32a13.1,13.1,0,0,0-2.44,2.38,13,13,0,0,0,15.77,19.78,13.38,13.38,0,0,0,2.72-1.74q9.4-5.9,19.28-11,3.72-1.93,7.5-3.73a196.34,196.34,0,0,1,50.13-16c33.51-5.84,68.2-2.25,97.07,15.08a116.13,116.13,0,0,1,28.33,24q1.62,1.88,3.16,3.84a138.07,138.07,0,0,1,24.62,48.64A144.78,144.78,0,0,1,522.65,721.82Z"/><path class="cls-77" d="M271.45,590.29,269,592.67A13.1,13.1,0,0,1,271.45,590.29Z"/><path class="cls-78" d="M287.49,610.72a13.42,13.42,0,0,1-2.71,1.73C285.68,611.86,286.58,611.29,287.49,610.72Z"/><path class="cls-79" d="M318.5,354.78l-5,4c-4.1,3.28-8.37,6.34-12.75,9.24q-6.86,4.56-13.36,9.65a269,269,0,0,0-44.3,43.9,363.62,363.62,0,0,0-36.28,54.73,478.27,478.27,0,0,0-28.28,62.82,573.4,573.4,0,0,0-20.34,68.26,632.69,632.69,0,0,0-12.16,70.09q-2.35,19.95-3.37,40c-1.79-.21-2.78-.42-5.06-.63-23.11-2.19-46.42-5.12-68.52-12.48-21.73-7.22-41.85-19.31-55.78-37.8A119.94,119.94,0,0,1,2.45,649.06C-9.4,574.78,22.63,498.14,80,451.55a4.6,4.6,0,0,1,6.3.47q3.71,4.05,7.11,8.36a3.57,3.57,0,0,0,6.37-2.17,203.09,203.09,0,0,1,1.66-21.9c4.82-36.77,20-71.95,47.81-95.85,32-27.46,77.09-36.56,118.84-30.56a197.16,197.16,0,0,1,25,5.28h0a106.08,106.08,0,0,1,22.68,9.2h0A18.34,18.34,0,0,1,318.5,354.78Z"/></g></svg>